<?xml version="1.0" encoding="utf-8"?>
<!-- Generator: Adobe Illustrator 23.0.2, SVG Export Plug-In . SVG Version: 6.00 Build 0)  -->
<svg version="1.1" id="Layer_1" xmlns="https://www.w3.org/2000/svg" xmlns:xlink="https://www.w3.org/1999/xlink" x="0px" y="0px"
	 viewBox="0 0 161.59 181.33" style="enable-background:new 0 0 161.59 181.33;" xml:space="preserve">
<style type="text/css">
	.st0{fill-rule:evenodd;clip-rule:evenodd;fill:#005699;}
	.st1{fill-rule:evenodd;clip-rule:evenodd;fill:url(#XMLID_2_);}
	.st2{fill:url(#XMLID_3_);}
	.st3{fill:url(#XMLID_4_);}
	.st4{fill:#005699;}
	.st5{fill:#FFFFFF;}
	.st6{fill:none;}
	.st7{font-family:'Georgia-Bold';}
	.st8{font-size:4.1322px;}
	.st9{fill-rule:evenodd;clip-rule:evenodd;fill:none;}
	.st10{fill-rule:evenodd;clip-rule:evenodd;fill:#FFFFFF;}
</style>
<g>
	<polygon id="XMLID_703_" class="st0" points="41.98,115.58 26.89,160.86 49.45,151.64 61.39,171.92 76.77,124.91 	"/>
	<polygon id="XMLID_702_" class="st0" points="116.16,115.58 131.26,160.86 108.71,151.64 96.76,171.92 81.38,124.91 	"/>
	<path id="XMLID_701_" class="st0" d="M146.01,75.53c-0.54,3.4-3.37,6.33-3.9,9.73c-0.54,3.41,1.2,7.3,0.66,10.7
		c-1.57,3.08-5.16,4.98-6.72,8.05c-1.56,3.07-1.11,7.31-2.68,10.39c-2.44,2.43-6.44,3.14-8.87,5.58c-2.44,2.44-3.32,6.61-5.75,9.05
		c-3.07,1.56-7.1,1-10.17,2.56c-3.07,1.57-5.19,5.26-8.26,6.83c-3.41,0.54-7.06-1.24-10.46-0.7c-3.41,0.54-6.57,3.4-9.97,3.93
		c-3.41-0.54-6.33-3.36-9.74-3.89c-3.4-0.54-7.29,1.2-10.7,0.66c-3.07-1.57-4.98-5.15-8.05-6.72c-3.07-1.56-7.3-1.11-10.38-2.67
		c-2.44-2.44-3.14-6.44-5.58-8.88c-2.44-2.44-6.61-3.31-9.05-5.75c-1.56-3.08-1-7.1-2.56-10.17c-1.56-3.07-5.26-5.19-6.83-8.27
		c-0.54-3.4,1.24-7.05,0.7-10.46c-0.54-3.41-3.4-6.57-3.94-9.97c0.54-3.41,3.37-6.33,3.9-9.73c0.54-3.4-1.21-7.29-0.66-10.7
		c1.57-3.07,5.15-4.97,6.71-8.05c1.57-3.08,1.12-7.31,2.68-10.38c2.44-2.44,6.44-3.14,8.88-5.58c2.44-2.44,3.31-6.61,5.75-9.04
		c3.08-1.57,7.1-1,10.17-2.57c3.07-1.56,5.2-5.26,8.27-6.83c3.41-0.54,7.06,1.24,10.46,0.71c3.4-0.54,6.56-3.4,9.97-3.94
		c3.41,0.54,6.33,3.36,9.73,3.9c3.4,0.54,7.29-1.2,10.7-0.67c3.07,1.57,4.98,5.15,8.05,6.72c3.07,1.57,7.31,1.11,10.38,2.68
		c2.44,2.43,3.14,6.44,5.58,8.87c2.43,2.44,6.6,3.31,9.04,5.75c1.56,3.07,1,7.09,2.56,10.16c1.57,3.08,5.26,5.2,6.83,8.27
		c0.54,3.41-1.24,7.06-0.7,10.46C142.61,68.97,145.48,72.13,146.01,75.53z"/>
	
		<radialGradient id="XMLID_2_" cx="78.9739" cy="-16267.4297" r="87.4274" gradientTransform="matrix(1 0 0 -1 0 -16199.6416)" gradientUnits="userSpaceOnUse">
		<stop  offset="0" style="stop-color:#B5B6B6"/>
		<stop  offset="0.15" style="stop-color:#CFD0D0"/>
		<stop  offset="0.5" style="stop-color:#F5F6F6"/>
		<stop  offset="0.85" style="stop-color:#CFD0D0"/>
		<stop  offset="1" style="stop-color:#B5B6B6"/>
	</radialGradient>
	<path id="XMLID_700_" class="st1" d="M142.79,75.53c-0.51,3.24-3.19,6.02-3.71,9.26c-0.51,3.24,1.14,6.94,0.63,10.18
		c-1.49,2.92-4.9,4.74-6.39,7.66c-1.49,2.92-1.06,6.95-2.55,9.87c-2.32,2.32-6.12,2.99-8.44,5.31c-2.32,2.32-3.15,6.29-5.47,8.61
		c-2.92,1.48-6.75,0.95-9.67,2.44c-2.92,1.49-4.94,5-7.86,6.5c-3.24,0.51-6.71-1.18-9.95-0.67c-3.24,0.52-6.24,3.23-9.49,3.75
		c-3.24-0.51-6.02-3.2-9.26-3.71c-3.24-0.51-6.94,1.15-10.18,0.64c-2.92-1.49-4.74-4.91-7.66-6.39c-2.92-1.49-6.95-1.06-9.87-2.54
		c-2.32-2.32-2.99-6.13-5.31-8.45c-2.32-2.31-6.29-3.15-8.61-5.47c-1.49-2.92-0.95-6.74-2.44-9.67c-1.49-2.92-5-4.94-6.49-7.86
		c-0.51-3.24,1.18-6.71,0.67-9.95c-0.51-3.24-3.23-6.25-3.74-9.49c0.51-3.24,3.2-6.02,3.71-9.26c0.51-3.24-1.15-6.94-0.63-10.17
		c1.49-2.93,4.9-4.74,6.38-7.66c1.49-2.92,1.06-6.96,2.55-9.88c2.32-2.32,6.12-2.99,8.44-5.31c2.32-2.32,3.15-6.28,5.47-8.6
		c2.93-1.49,6.75-0.96,9.67-2.44c2.92-1.49,4.94-5.01,7.86-6.5c3.24-0.51,6.71,1.18,9.95,0.67c3.24-0.52,6.25-3.23,9.49-3.75
		c3.24,0.52,6.02,3.2,9.26,3.71c3.24,0.52,6.93-1.14,10.17-0.63c2.92,1.49,4.73,4.9,7.66,6.39c2.92,1.49,6.96,1.06,9.88,2.55
		c2.32,2.32,2.99,6.12,5.31,8.44c2.32,2.32,6.29,3.15,8.61,5.47c1.49,2.92,0.95,6.75,2.44,9.67c1.49,2.91,5,4.94,6.49,7.87
		c0.51,3.24-1.18,6.71-0.67,9.95C139.56,69.29,142.28,72.29,142.79,75.53z"/>
	
		<linearGradient id="XMLID_3_" gradientUnits="userSpaceOnUse" x1="120.3647" y1="-16315.6494" x2="39.4145" y2="-16234.6992" gradientTransform="matrix(1 0 0 -1 0 -16199.6416)">
		<stop  offset="0" style="stop-color:#A9A8A8"/>
		<stop  offset="0.2" style="stop-color:#B4B4B4"/>
		<stop  offset="0.5" style="stop-color:#E2E2E2"/>
		<stop  offset="0.8" style="stop-color:#B4B4B4"/>
		<stop  offset="1" style="stop-color:#A9A8A8"/>
	</linearGradient>
	<path id="XMLID_698_" class="st2" d="M79.89,132.77c-15.29,0-29.66-5.96-40.48-16.77C28.61,105.2,22.65,90.82,22.65,75.53
		c0-15.29,5.95-29.66,16.76-40.48C50.23,24.25,64.6,18.29,79.89,18.29c15.29,0,29.66,5.95,40.47,16.76
		c10.81,10.81,16.77,25.19,16.77,40.48c0,15.29-5.95,29.66-16.77,40.48C109.56,126.82,95.18,132.77,79.89,132.77z"/>
	
		<linearGradient id="XMLID_4_" gradientUnits="userSpaceOnUse" x1="119.6115" y1="-16314.8945" x2="40.1746" y2="-16235.458" gradientTransform="matrix(1 0 0 -1 0 -16199.6416)">
		<stop  offset="0" style="stop-color:#B5B6B6"/>
		<stop  offset="0.15" style="stop-color:#CFD0D0"/>
		<stop  offset="0.5" style="stop-color:#F5F6F6"/>
		<stop  offset="0.85" style="stop-color:#CFD0D0"/>
		<stop  offset="1" style="stop-color:#B5B6B6"/>
	</linearGradient>
	<path id="XMLID_697_" class="st3" d="M136.06,75.53c0,31.03-25.15,56.17-56.17,56.17c-31.02,0-56.17-25.14-56.17-56.17
		c0-31.02,25.15-56.17,56.17-56.17C110.92,19.37,136.06,44.51,136.06,75.53z"/>
	<path id="XMLID_696_" class="st4" d="M79.89,123.73c-26.58,0-48.19-21.62-48.19-48.19c0-26.57,21.62-48.19,48.19-48.19
		c26.57,0,48.19,21.62,48.19,48.19C128.08,102.11,106.46,123.73,79.89,123.73z"/>
	<path id="XMLID_693_" class="st5" d="M116.59,39.48c-9.81-9.79-22.84-15.2-36.69-15.2c-13.86,0-26.89,5.4-36.69,15.2
		C33.39,49.28,28,62.32,28,76.18c0,13.86,5.4,26.89,15.2,36.7c9.8,9.8,22.83,15.2,36.69,15.2c13.86,0,26.89-5.4,36.69-15.2
		c9.8-9.8,15.2-22.84,15.2-36.7C131.78,62.32,126.38,49.28,116.59,39.48z M115.07,111.36c-9.4,9.4-21.89,14.57-35.18,14.57
		c-13.29,0-25.79-5.17-35.18-14.57c-9.4-9.4-14.57-21.89-14.57-35.18c0-13.29,5.18-25.78,14.57-35.18
		c9.39-9.4,21.89-14.57,35.18-14.57c13.29,0,25.78,5.17,35.18,14.57c9.4,9.39,14.57,21.89,14.57,35.18
		C129.64,89.46,124.47,101.96,115.07,111.36z"/>
	<path id="XMLID_690_" class="st4" d="M116.59,38.84c-9.81-9.8-22.84-15.2-36.69-15.2c-13.86,0-26.89,5.39-36.69,15.2
		C33.39,48.64,28,61.68,28,75.53c0,13.86,5.4,26.89,15.2,36.7c9.8,9.8,22.83,15.2,36.69,15.2c13.86,0,26.89-5.4,36.69-15.2
		c9.8-9.8,15.2-22.84,15.2-36.7C131.78,61.68,126.38,48.64,116.59,38.84z M115.07,110.72c-9.4,9.4-21.89,14.57-35.18,14.57
		c-13.29,0-25.79-5.17-35.18-14.57c-9.4-9.4-14.57-21.89-14.57-35.18c0-13.28,5.18-25.78,14.57-35.18
		c9.39-9.39,21.89-14.57,35.18-14.57c13.29,0,25.78,5.18,35.18,14.57c9.4,9.39,14.57,21.89,14.57,35.18
		C129.64,88.82,124.47,101.32,115.07,110.72z"/>
	<path id="XMLID_689_" class="st5" d="M79.89,20.43c30.84,0,55.87,24.86,56.16,55.64c0-0.18,0.01-0.36,0.01-0.54
		c0-31.02-25.15-56.17-56.17-56.17c-31.02,0-56.17,25.15-56.17,56.17c0,0.18,0,0.36,0,0.54C24.01,45.3,49.05,20.43,79.89,20.43z"/>
	<g id="XMLID_685_">
		<path id="SVGID_x5F_1_x5F_" class="st6" d="M110.11,110.5c18.35-16.75,19.65-45.39,2.89-63.74
			c-16.75-18.34-45.38-19.64-63.73-2.89c-18.35,16.75-19.65,45.38-2.89,63.74C63.13,125.96,91.76,127.26,110.11,110.5"/>
		<text class="st5 st7 st8">		<textPath  xlink:href="#SVGID_x5F_1_x5F_" startOffset="2748.8352%">
 		</textPath>
</text>
	</g>
	<path id="XMLID_x5F_5_x5F_" class="st9" d="M54.37,45.81C38.48,59.75,36.9,84.09,50.85,99.97c13.95,15.89,38.28,17.46,54.16,3.52
		c15.89-13.95,17.46-38.28,3.52-54.17C94.58,33.44,70.25,31.86,54.37,45.81"/>
	<text id="XMLID_683_">	<textPath  xlink:href="#XMLID_x5F_5_x5F_" startOffset="2748.8352%">
<tspan  class="st5 st7" style="font-size:8px;">CERTIFICAÇÃO ACADÊMICA</tspan>	</textPath>
</text>
	<g>
		<path id="XMLID_677_" class="st10" d="M115.29,103.46c-1,0.07-1.54-0.33-2.15-0.66c-2.47,0.6-4.76,1.81-7.26,1.24
			c-3.68-0.85-5.25-5.73-3.22-9.17c1.14-1.92,5.84-2.81,8.76-2.07c0-1.68-0.1-3.71-1.09-4.12c-2.04-0.85-5.13,0.12-6.52,0.74
			c-0.21-0.97-0.51-1.85-0.66-2.89c1.06-0.77,2.91-1.24,4.73-1.36c1.97-0.13,5.07,0.03,6.11,0.95c1.61,1.42,1.13,4.81,1.3,8.08
			C115.46,97.55,115.27,100.39,115.29,103.46 M110.76,95.12c-2.38,0.17-5.3,1.09-5.04,3.88c0.25,2.68,4.38,2.23,5.9,0.81
			c0.05-1.42,0.13-3.21-0.24-4.66C111.35,95.15,110.78,95.12,110.76,95.12"/>
		<path id="XMLID_669_" class="st10" d="M71.18,95.7h-9.14c0.06,5.69,5.07,5.55,8.51,3.88c0.32,0.81,0.69,1.57,0.99,2.4
			c-3.28,2.63-10.04,2.79-12.47-0.41c-1.18-1.56-1.56-3.93-1.57-6.36c-0.01-2.08,0.22-4.91,1.15-6.52c1.05-1.81,3.53-3,5.53-3.22
			C70.28,84.8,72.69,89.3,71.18,95.7 M67.26,89.73c-0.77-1.78-4.04-1.84-4.86,0.18c-0.33,0.81-0.39,1.52-0.29,2.65
			c1.81,0,3.61,0,5.36,0.03C67.55,91.58,67.65,90.62,67.26,89.73"/>
		<path id="XMLID_663_" class="st10" d="M79.54,103.57v-9.85c0-1.02-0.2-2.26,0-3.05c0.3-1.19,2.42-2.12,3.96-1.73
			c1.82,0.45,1.24,5.17,1.24,7.84c0,2.09,0.03,4.82,0.07,6.8h3.89c0-1.54,0-4.45,0-6.63c0-2.12-0.16-4.63,0.16-6.09
			c0.3-1.39,2.1-2.46,3.72-2.17c1.44,0.26,1.09,1.89,1.15,3.46c0.14,3.38,0.02,8.35,0.02,11.41l4.43,0.02
			c0.04-3.63-0.16-8.57-0.16-12.25c0-1.31,0.1-2.77-0.25-3.63c-0.47-1.13-1.93-2.3-2.81-2.39c-3.4-0.37-4.55,1.36-6.27,2.14
			c-0.97-0.87-1.57-1.87-2.81-2.14c-2.06-0.46-3.68,0.45-5.12,1.07c-0.99,0.43-2.27,1.3-2.8,1.32c-0.68,0.03-1.63-0.7-2.36-0.57
			v16.46H79.54z"/>
		<path id="XMLID_659_" class="st10" d="M47.84,88.27L47.84,88.27v-0.03v-5.49h0.24c0,0,0-0.01,0-0.01h8.22l1.06-3.72h-13.9
			c-0.12,0.02-0.09,0.18-0.17,0.25c0.06,7.9-0.11,16.02,0.08,23.78c1.28,0,3.12,0.02,4.48,0v-10.5h6.97l0.06-4.27L47.84,88.27
			L47.84,88.27z"/>
		<path id="XMLID_655_" class="st10" d="M96.27,53.04c1.01,1.94,1.75,4.01,2.45,6.09c-7,0.46-14.73,0.15-20.39,2.62
			c-1.41,0.61-3.29,1.24-3.48,3.01c-0.15,1.48,0.38,3.08,0.68,4.52c0.4,1.88,1.52,4.82-0.67,5.42c-2.89,0.12-4.33-1.59-6.09-2.71
			c-5.98-3.81-14.4-6.72-24.36-5.25c5.28-2.58,12.58-2.15,18.7-0.93c2.06,0.41,3.96,1.1,5.75,1.44c1.17,0.22,3.01,0.28,3.55-0.51
			c0.8-1.16-0.23-3.53-0.51-4.74c-0.66-2.91-0.46-5.88,1.69-6.85c1.22-0.56,3.19-0.66,4.82-0.85
			C84.19,53.64,90.28,53.27,96.27,53.04"/>
		<path id="XMLID_651_" class="st10" d="M100.83,64.14c-3.41,0.41-7.02,0.8-10.91,1.44c-4.99,0.82-10.76,1.13-12.18,5.16
			c-0.8-1.51-1.68-4.32-0.59-5.84c0.69-0.95,3.08-1.98,4.74-2.45c3.63-1.04,8.81-1.07,13.11-1.27c1.28-0.06,3.19-0.13,4.4-0.08
			C99.92,62.05,100.29,62.75,100.83,64.14"/>
		<path id="XMLID_647_" class="st10" d="M91.64,77.41c-3.33,0.76-7,1.17-7.87,4.4c-1.21-2.07-2.44-4.07-3.55-6.53
			c-0.53-1.18-1.56-2.75-1.08-3.9c0.99-1.82,4.9-3.3,7.25-3.61c0.1-0.02,0.42-0.06,0.63-0.04c0.51,0.08,0.93,1.2,1.09,1.59
			C89.22,72.05,90.71,74.6,91.64,77.41"/>
	</g>
</g>
</svg>
