<?xml version="1.0" encoding="utf-8"?>
<!-- Generator: Adobe Illustrator 16.0.0, SVG Export Plug-In . SVG Version: 6.00 Build 0)  -->
<!DOCTYPE svg PUBLIC "-//W3C//DTD SVG 1.1//EN" "http://www.w3.org/Graphics/SVG/1.1/DTD/svg11.dtd">
<svg version="1.1" id="Layer_1" xmlns="http://www.w3.org/2000/svg" xmlns:xlink="http://www.w3.org/1999/xlink" x="0px" y="0px"
	 width="60px" height="54.625px" viewBox="0 0 60 54.625" enable-background="new 0 0 60 54.625" xml:space="preserve">
<path fill="none" stroke="#FFFFFF" d="M21.262,47.75c-3.799,0-6.762-3.485-6.762-7.284v-11.18c0-3.802,2.963-6.536,6.762-6.536H37.5
	v-9.072L26.093,1.75H6.478c-6.327,0-6.012,4.802-6.012,4.802L0.464,53.75h4.432H37.5v-6H21.262z"/>
<polyline fill="none" stroke="#FFFFFF" stroke-width="2" points="25.497,1.38 26.409,16.25 37.168,16.25 "/>
<path fill="none" stroke="#FFFFFF" d="M59,40.632c0,3.799-3.08,6.881-6.879,6.881H20.726c-3.799,0-6.879-3.082-6.879-6.881v-11.18
	c0-3.802,3.08-6.882,6.879-6.882h31.395c3.799,0,6.879,3.08,6.879,6.882V40.632z"/>
<g>
	<path fill="#FFFFFF" d="M32.504,40.511h-2.889l-0.671-1.814h-3.735l-0.716,1.814h-2.858l4.002-10.405h2.95L32.504,40.511z
		 M28.212,36.639l-1.121-3.316l-1.136,3.316H28.212z"/>
	<path fill="#FFFFFF" d="M41.621,33.532c0,0.939-0.221,1.716-0.664,2.33c-0.574,0.797-1.527,1.195-2.857,1.195h-1.693v3.453h-2.705
		V30.105h4.307c1.225,0,2.154,0.358,2.789,1.074C41.346,31.794,41.621,32.578,41.621,33.532z M38.816,33.563
		c0-0.388-0.113-0.697-0.342-0.929c-0.227-0.232-0.611-0.348-1.158-0.348h-0.91v2.592h0.902c0.588,0,0.99-0.128,1.209-0.383
		C38.717,34.266,38.816,33.955,38.816,33.563z"/>
	<path fill="#FFFFFF" d="M50.973,33.532c0,0.939-0.221,1.716-0.662,2.33c-0.574,0.797-1.527,1.195-2.859,1.195H45.76v3.453h-2.707
		V30.105h4.307c1.227,0,2.156,0.358,2.791,1.074C50.699,31.794,50.973,32.578,50.973,33.532z M48.168,33.563
		c0-0.388-0.113-0.697-0.34-0.929c-0.227-0.232-0.613-0.348-1.158-0.348h-0.91v2.592h0.902c0.586,0,0.988-0.128,1.207-0.383
		C48.068,34.266,48.168,33.955,48.168,33.563z"/>
</g>
</svg>
