<?xml version="1.0" encoding="utf-8"?>
<!-- Generator: Adobe Illustrator 23.0.4, SVG Export Plug-In . SVG Version: 6.00 Build 0)  -->
<svg version="1.1" id="Capa_1" xmlns="https://www.w3.org/2000/svg" xmlns:xlink="https://www.w3.org/1999/xlink" x="0px" y="0px"
	 viewBox="0 0 18.4 22" style="enable-background:new 0 0 18.4 22;" xml:space="preserve">
<style type="text/css">
	.st0{fill:#F8A655;}
</style>
<g>
	<path class="st0" d="M10.9,10.8c-0.4-1.2-1.7-1.8-2.8-1.4C7,9.8,6.4,11,6.7,12.1c0.8,2.8,3.7,5.3,6.4,7.4c0.2,0.2,0.5,0.1,0.6-0.1
		c0.2-0.2,0.1-0.5-0.1-0.6c-2.6-2-5.4-4.4-6.1-6.9c-0.2-0.7,0.2-1.4,0.9-1.7s1.4,0.2,1.7,0.9c0.5,1.7,2.9,3.8,5.2,5.6
		c0.2,0.2,0.5,0.1,0.6-0.1c0.2-0.2,0.1-0.5-0.1-0.6C14.6,15,11.4,12.5,10.9,10.8z"/>
	<path class="st0" d="M14.3,9.7c-1-3-4.1-4.6-7.1-3.8c-3.1,0.9-4.8,4.1-4,7.1c0,0,0,0,0,0c0.7,2.5-0.8,3.2-1.3,3.4
		c-0.2,0.1-0.4,0.3-0.3,0.6c0.1,0.2,0.3,0.4,0.6,0.3c1.4-0.4,2.7-1.9,1.9-4.5c-0.7-2.6,0.7-5.3,3.3-6.1c0,0,0,0,0,0
		c2.6-0.7,5.2,0.7,6,3.3c0,0,0,0.1,0,0.1c0,0.1,0.1,0.2,3,2.6c0.2,0.2,0.5,0.1,0.6-0.1c0.2-0.2,0.1-0.5-0.1-0.6
		C16.1,11.2,14.5,9.9,14.3,9.7z"/>
	<path class="st0" d="M12.7,10.4C12,8.2,9.8,7,7.7,7.6C5.6,8.3,4.4,10.4,5,12.5c0.9,4.1,0.2,5-1.6,5.6c-0.2,0.1-0.4,0.3-0.3,0.6
		c0.1,0.2,0.3,0.4,0.6,0.3c2.6-0.8,3.1-2.5,2.2-6.6C5.4,10.7,6.3,9,8,8.5C9.6,8,11.3,9,11.8,10.6c0.2,0.6,0.6,1.4,4.3,4.3
		c0.2,0.2,0.5,0.1,0.6-0.1c0.2-0.2,0.1-0.5-0.1-0.6C13.3,11.6,12.8,10.8,12.7,10.4z"/>
	<path class="st0" d="M13.9,16.5c-1.5-1.1-4-3.1-4.6-5.2C9.2,11.1,8.9,11,8.7,11c-0.2,0.1-0.4,0.3-0.3,0.5c0.7,2.4,3.4,4.5,5,5.7
		c0.3,0.2,0.6,0.5,0.9,0.7c0.2,0.2,0.5,0.2,0.6,0c0.2-0.2,0.2-0.4,0-0.6C14.6,17.1,14.2,16.8,13.9,16.5z"/>
	<path class="st0" d="M11.5,19.6c-0.4-0.8-1.3-1.4-2.2-1.5c-1.5,0-1.7,2.6-1.8,3.1c0,0.2,0.2,0.5,0.4,0.5h0c0.2,0,0.4-0.2,0.4-0.4
		C8.4,20.3,8.8,19,9.3,19c0.7,0,1.1,0.6,1.5,1.1c0.1,0.2,0.3,0.3,0.4,0.5c0.2,0.2,0.5,0.2,0.6,0c0.2-0.2,0.2-0.4,0-0.6
		C11.7,19.9,11.6,19.8,11.5,19.6z"/>
	<path class="st0" d="M7.5,15.8c-0.1-0.2-0.3-0.4-0.6-0.3c-0.2,0.1-0.3,0.3-0.3,0.5c0.4,1.2-0.4,3.5-1.5,3.9
		c-0.2,0.1-0.4,0.3-0.3,0.6c0.1,0.2,0.3,0.4,0.6,0.3c0,0,0,0,0,0C7.1,20.2,7.9,17.2,7.5,15.8z"/>
	<path class="st0" d="M16.9,9.7c-0.6-0.2-1-0.9-1.5-1.7c-1.1-1.7-2.5-4.1-6.6-4.1c-4.2,0-7.5,3.4-7.6,7.6c0,0.2,0.2,0.4,0.4,0.4
		s0.4-0.2,0.4-0.4c0-3.7,3-6.7,6.7-6.7c3.6,0,4.9,2,5.9,3.7c0.6,1,1.1,1.8,2,2.1c0.2,0.1,0.5,0,0.6-0.3C17.3,10,17.2,9.8,16.9,9.7
		C17,9.7,17,9.7,16.9,9.7L16.9,9.7z"/>
	<path class="st0" d="M2.1,15c0.2,0,0.4-0.2,0.4-0.4c0-0.1,0-0.1,0-0.2c-0.2-0.4-0.3-0.7-0.4-1.1c0-0.2-0.2-0.4-0.4-0.4
		S1.3,13,1.3,13.2c0.1,0.5,0.2,1.1,0.5,1.5C1.8,14.9,2,15,2.1,15z"/>
	<path class="st0" d="M1.9,5.6c0.2,0.1,0.5,0.1,0.6-0.1c0,0,0,0,0,0C2.9,4.8,4.8,3,8.4,3c3.4,0,5.8,1.7,6.3,2.5
		c0.1,0.2,0.4,0.3,0.6,0.1c0.2-0.1,0.3-0.4,0.1-0.6l0,0c-0.6-1-3.3-2.9-7-2.9c-4,0-6.1,2.1-6.6,2.9C1.6,5.2,1.7,5.5,1.9,5.6z"/>
	<path class="st0" d="M4.5,2.1C4.8,2,4.9,1.9,5.1,1.8c0.7-0.3,1.1-0.6,3.3-0.6c1.4-0.1,2.9,0.2,4.2,0.7C12.8,2,12.9,2,13.1,2.1
		c0,0,0.1,0,0.1,0c0.2,0,0.4-0.2,0.4-0.4c0-0.2-0.1-0.4-0.3-0.4c-0.2-0.1-0.3-0.1-0.5-0.2c-1.4-0.6-3-0.8-4.5-0.7
		C6,0.4,5.4,0.7,4.7,1C4.5,1.1,4.4,1.2,4.2,1.3C4,1.4,3.8,1.6,3.9,1.9C4,2.1,4.3,2.2,4.5,2.1C4.5,2.1,4.5,2.1,4.5,2.1L4.5,2.1z"/>
	<path class="st0" d="M16.4,8c0.1,0.2,0.3,0.4,0.6,0.3c0.2-0.1,0.3-0.3,0.3-0.5c-0.3-0.7-0.6-1.3-0.9-1.9c-0.1-0.2-0.4-0.3-0.6-0.1
		c-0.2,0.1-0.3,0.4-0.1,0.6C15.9,6.9,16.2,7.5,16.4,8z"/>
</g>
<path class="st0" d="M13.4,19.6c-0.1,0-0.2,0-0.3-0.1c-2.7-2.1-5.6-4.6-6.4-7.4c-0.3-1.2,0.4-2.4,1.6-2.7c1.1-0.3,2.3,0.4,2.6,1.5
	c0.5,1.6,3.7,4.2,4.9,5.1c0.2,0.1,0.2,0.4,0.1,0.6c-0.1,0.2-0.4,0.2-0.6,0.1c0,0,0,0,0,0c-2.3-1.8-4.7-3.9-5.2-5.6
	c-0.2-0.7-0.9-1.1-1.6-0.9c-0.7,0.2-1.1,0.9-0.9,1.6c0.7,2.5,3.5,4.9,6.1,6.9c0.2,0.2,0.2,0.4,0.1,0.6
	C13.6,19.5,13.5,19.6,13.4,19.6L13.4,19.6z"/>
<path class="st0" d="M2.1,17.3c-0.2,0-0.4-0.2-0.4-0.4c0-0.2,0.1-0.4,0.3-0.4c0.5-0.2,2.1-0.9,1.3-3.4c-0.9-3.1,0.9-6.3,4-7.1
	c0,0,0,0,0,0c3-0.8,6.1,0.8,7.1,3.8c0.2,0.2,1.7,1.5,2.8,2.3c0.2,0.2,0.2,0.4,0,0.6c-0.2,0.2-0.4,0.2-0.6,0.1c-2.9-2.3-3-2.5-3-2.6
	c0,0,0-0.1,0-0.1c-0.8-2.5-3.5-4-6-3.3c-2.6,0.7-4.1,3.5-3.3,6c0,0,0,0,0,0c0.8,2.6-0.6,4.1-1.9,4.5C2.2,17.3,2.1,17.3,2.1,17.3z"/>
<path class="st0" d="M3.5,19C3.2,19,3,18.8,3,18.6c0-0.2,0.1-0.4,0.3-0.4c1.8-0.6,2.5-1.5,1.6-5.6c-0.5-2.1,0.7-4.3,2.7-4.9
	C9.8,7,12,8.2,12.7,10.4c0.1,0.4,0.7,1.3,4,3.9c0.2,0.1,0.2,0.4,0.1,0.6c-0.1,0.2-0.4,0.2-0.6,0.1c0,0,0,0,0,0
	c-3.6-2.9-4.1-3.7-4.3-4.3C11.3,8.9,9.6,8,8,8.5C6.3,9,5.4,10.7,5.8,12.3c0.9,4.2,0.4,5.8-2.2,6.6C3.6,19,3.5,19,3.5,19z"/>
<path class="st0" d="M14.6,18.1c-0.1,0-0.2,0-0.3-0.1c-0.3-0.3-0.6-0.5-0.9-0.7c-1.6-1.2-4.3-3.2-5-5.7c-0.1-0.2,0.1-0.5,0.3-0.6
	c0.2-0.1,0.5,0.1,0.6,0.3c0,0,0,0,0,0c0.6,2.2,3.1,4.1,4.6,5.2c0.4,0.3,0.7,0.5,1,0.8c0.2,0.2,0.2,0.5,0,0.6
	C14.8,18.1,14.7,18.1,14.6,18.1z"/>
<path class="st0" d="M7.9,21.7L7.9,21.7c-0.3,0-0.5-0.2-0.4-0.5c0-0.5,0.3-3.1,1.8-3.1c0.9,0.1,1.8,0.7,2.2,1.5
	c0.1,0.1,0.2,0.3,0.3,0.4c0.2,0.2,0.2,0.5,0,0.6c-0.2,0.2-0.4,0.2-0.6,0c-0.1-0.2-0.3-0.3-0.4-0.5C10.4,19.6,9.9,19,9.3,19
	c-0.5,0-0.8,1.3-0.9,2.2C8.4,21.5,8.2,21.7,7.9,21.7z"/>
<path class="st0" d="M5.3,20.5c-0.2,0-0.4-0.2-0.4-0.4c0-0.2,0.1-0.4,0.3-0.4c1.1-0.4,1.9-2.7,1.5-3.9c-0.1-0.2,0-0.5,0.3-0.6
	c0.2-0.1,0.5,0,0.6,0.3c0,0,0,0,0,0.1c0.5,1.5-0.4,4.4-2.1,5C5.4,20.4,5.3,20.5,5.3,20.5z"/>
<path class="st0" d="M1.7,11.9c-0.2,0-0.4-0.2-0.4-0.4c0-4.2,3.4-7.5,7.6-7.6c4.1,0,5.6,2.4,6.6,4.1C16,8.8,16.4,9.5,17,9.7
	c0.2,0.1,0.4,0.3,0.3,0.6c-0.1,0.2-0.3,0.4-0.6,0.3c0,0,0,0,0,0c-0.9-0.3-1.4-1.1-2-2.1c-1-1.6-2.3-3.7-5.9-3.7
	c-3.7,0-6.7,3-6.7,6.7C2.1,11.7,1.9,11.9,1.7,11.9z"/>
<path class="st0" d="M2.1,14.7c-0.2,0-0.3-0.1-0.4-0.2c-0.3-0.5-0.4-1-0.5-1.5c0-0.2,0.2-0.4,0.4-0.4s0.4,0.2,0.4,0.4
	c0.1,0.4,0.2,0.8,0.4,1.1c0.1,0.2,0,0.5-0.2,0.6C2.3,14.7,2.2,14.7,2.1,14.7z"/>
<path class="st0" d="M15,5.7c-0.2,0-0.3-0.1-0.4-0.2C14.2,4.7,11.8,3,8.4,3C4.8,3,2.9,4.8,2.5,5.5C2.4,5.7,2.1,5.8,1.9,5.6
	C1.7,5.5,1.6,5.2,1.8,5c0,0,0,0,0,0c0.5-0.8,2.6-2.9,6.6-2.9c3.7,0,6.4,1.9,7,2.9c0.1,0.2,0.1,0.5-0.1,0.6C15.2,5.7,15.1,5.7,15,5.7
	z"/>
<path class="st0" d="M13.3,2.1c0,0-0.1,0-0.1,0C12.9,2,12.8,2,12.6,1.9c-1.3-0.5-2.8-0.8-4.2-0.7c-2.1,0-2.6,0.2-3.3,0.6
	C4.9,1.9,4.8,2,4.6,2.1C4.3,2.2,4.1,2.1,4,1.9C3.9,1.6,4,1.4,4.2,1.3C4.4,1.2,4.5,1.1,4.7,1C5.4,0.7,6,0.4,8.4,0.4
	c1.5-0.1,3.1,0.2,4.5,0.7c0.2,0.1,0.3,0.1,0.5,0.2c0.2,0.1,0.4,0.3,0.3,0.6C13.6,2,13.5,2.1,13.3,2.1z"/>
<path class="st0" d="M16.8,8c-0.2,0-0.4-0.1-0.4-0.3c-0.2-0.6-0.5-1.1-0.8-1.7c-0.1-0.2-0.1-0.5,0.1-0.6c0.2-0.1,0.5-0.1,0.6,0.1
	l0,0c0.4,0.6,0.7,1.2,0.9,1.9c0.1,0.2-0.1,0.5-0.3,0.6C16.9,8,16.9,8,16.8,8z"/>
</svg>
