<?xml version="1.0" encoding="utf-8"?>
<!-- Generator: Adobe Illustrator 23.0.2, SVG Export Plug-In . SVG Version: 6.00 Build 0)  -->
<svg version="1.1" id="Layer_1" xmlns="https://www.w3.org/2000/svg" xmlns:xlink="https://www.w3.org/1999/xlink" x="0px" y="0px"
	 viewBox="0 0 235.38 181.33" style="enable-background:new 0 0 235.38 181.33;" xml:space="preserve">
<style type="text/css">
	.st0{fill-rule:evenodd;clip-rule:evenodd;fill:#012739;}
	.st1{fill-rule:evenodd;clip-rule:evenodd;fill:#BE232F;}
	.st2{fill-rule:evenodd;clip-rule:evenodd;fill:#F15B2A;}
	.st3{fill:#012739;}
	.st4{fill:#FFFEFE;}
	.st5{font-family:'MyriadPro-Regular';}
	.st6{font-size:10.2297px;}
</style>
<path id="XMLID_530_" class="st0" d="M187.36,121.24c-2,0.14-3.07-0.65-4.28-1.31c-4.92,1.19-9.48,3.61-14.47,2.47
	c-7.32-1.68-10.46-11.42-6.41-18.26c2.26-3.82,11.64-5.6,17.46-4.13c0-3.34-0.2-7.38-2.16-8.2c-4.06-1.7-10.22,0.24-12.99,1.48
	c-0.42-1.93-1.01-3.7-1.31-5.76c2.11-1.53,5.8-2.47,9.43-2.71c3.93-0.27,10.09,0.05,12.16,1.9c3.2,2.84,2.25,9.59,2.58,16.11
	C187.7,109.47,187.32,115.13,187.36,121.24 M178.32,104.64c-4.73,0.34-10.55,2.17-10.04,7.72c0.5,5.33,8.73,4.44,11.75,1.61
	c0.09-2.82,0.26-6.4-0.47-9.27C179.5,104.7,178.37,104.64,178.32,104.64"/>
<path id="XMLID_522_" class="st0" d="M99.5,105.78H81.28c0.13,11.34,10.1,11.06,16.95,7.73c0.64,1.61,1.37,3.12,1.97,4.77
	c-6.54,5.23-20.01,5.55-24.83-0.82c-2.35-3.11-3.11-7.84-3.13-12.67c-0.02-4.13,0.45-9.78,2.3-12.99c2.08-3.6,7.04-5.98,11.02-6.42
	C97.7,84.07,102.51,93.04,99.5,105.78 M91.68,93.9c-1.54-3.54-8.06-3.67-9.68,0.35c-0.65,1.62-0.78,3.03-0.58,5.27
	c3.62,0.01,7.2,0.01,10.67,0.06C92.25,97.58,92.45,95.66,91.68,93.9"/>
<path id="XMLID_330_" class="st0" d="M116.15,121.46v-19.63c0-2.03-0.4-4.5,0-6.08c0.6-2.38,4.82-4.22,7.89-3.45
	c3.62,0.9,2.47,10.3,2.47,15.62c0,4.16,0.06,9.6,0.15,13.54h7.75c0-3.07,0-8.87,0-13.21c0-4.22-0.32-9.22,0.31-12.12
	c0.6-2.78,4.18-4.91,7.42-4.32c2.87,0.51,2.17,3.77,2.3,6.9c0.27,6.73,0.04,16.64,0.04,22.72l8.83,0.03
	c0.07-7.22-0.32-17.06-0.32-24.4c0-2.62,0.21-5.52-0.5-7.23c-0.93-2.25-3.84-4.58-5.59-4.77c-6.77-0.73-9.06,2.71-12.49,4.27
	c-1.92-1.73-3.13-3.72-5.59-4.27c-4.11-0.91-7.33,0.89-10.2,2.14c-1.97,0.86-4.52,2.58-5.59,2.63c-1.35,0.05-3.25-1.39-4.69-1.15
	v32.78H116.15z"/>
<path id="XMLID_327_" class="st0" d="M53.01,90.98L53.01,90.98v-0.06V79.98h0.49c0-0.01,0-0.02,0-0.02h16.37l2.11-7.4H44.29
	c-0.24,0.05-0.19,0.36-0.33,0.5c0.11,15.73-0.22,31.9,0.16,47.36c2.55-0.01,6.21,0.05,8.93,0V99.5h13.89l0.12-8.51H53.01V90.98z"/>
<path id="XMLID_324_" class="st0" d="M149.46,20.81c2.02,3.88,3.49,7.99,4.89,12.13c-13.94,0.91-29.34,0.31-40.61,5.23
	c-2.81,1.22-6.56,2.47-6.93,5.99c-0.31,2.94,0.77,6.14,1.36,9c0.79,3.75,3.04,9.59-1.34,10.79c-5.75,0.24-8.62-3.16-12.13-5.39
	C82.79,50.97,66.03,45.16,46.18,48.1c10.51-5.13,25.06-4.28,37.24-1.85c4.1,0.82,7.89,2.19,11.45,2.86c2.32,0.44,6,0.56,7.07-1.01
	c1.59-2.31-0.45-7.03-1.01-9.44c-1.32-5.79-0.91-11.7,3.37-13.64c2.43-1.11,6.36-1.31,9.6-1.69C125.41,22,137.54,21.27,149.46,20.81
	"/>
<path id="XMLID_321_" class="st1" d="M158.54,42.92c-6.79,0.82-13.99,1.58-21.73,2.87c-9.93,1.63-21.43,2.24-24.26,10.27
	c-1.58-3.01-3.35-8.61-1.18-11.63c1.37-1.9,6.13-3.94,9.44-4.89c7.23-2.07,17.55-2.13,26.11-2.53c2.55-0.12,6.35-0.27,8.76-0.17
	C156.74,38.75,157.47,40.16,158.54,42.92"/>
<path id="XMLID_318_" class="st2" d="M140.25,69.35c-6.62,1.52-13.94,2.34-15.67,8.76c-2.41-4.12-4.86-8.12-7.08-13.01
	c-1.06-2.35-3.1-5.48-2.14-7.78c1.98-3.63,9.77-6.58,14.45-7.18c0.2-0.03,0.84-0.13,1.25-0.07c1.01,0.15,1.85,2.4,2.16,3.16
	C135.43,58.67,138.4,63.76,140.25,69.35"/>
<polygon id="XMLID_315_" class="st3" points="19.61,131.37 23.73,131.37 23.57,132.2 20.45,132.2 19.92,134.87 22.8,134.87 
	22.63,135.7 19.76,135.7 19.07,139.28 18.07,139.28 "/>
<path id="XMLID_493_" class="st3" d="M27,139.28c0-0.34,0.06-0.88,0.14-1.47h-0.02c-0.64,1.17-1.44,1.6-2.27,1.6
	c-1.02,0-1.68-0.8-1.68-1.88c0-1.97,1.5-4.06,4.04-4.06c0.56,0,1.17,0.09,1.56,0.22l-0.59,2.96c-0.19,0.98-0.28,1.99-0.25,2.63H27z
	 M27.65,134.33c-0.15-0.04-0.36-0.09-0.7-0.09c-1.51,0-2.74,1.54-2.74,3.12c0,0.63,0.22,1.26,0.99,1.26c0.84,0,1.82-1.05,2.11-2.57
	L27.65,134.33z"/>
<path id="XMLID_312_" class="st3" d="M33.43,139.06c-0.3,0.14-0.91,0.34-1.68,0.34c-1.51,0-2.24-0.99-2.24-2.2
	c0-1.94,1.47-3.72,3.57-3.72c0.54,0,1.03,0.15,1.21,0.25L34,134.5c-0.22-0.11-0.55-0.21-0.99-0.21c-1.52,0-2.47,1.46-2.47,2.8
	c0,0.91,0.5,1.51,1.45,1.51c0.59,0,1.04-0.17,1.34-0.32L33.43,139.06z"/>
<path id="XMLID_311_" class="st3" d="M40.2,133.6l-0.78,4.03c-0.12,0.63-0.21,1.19-0.27,1.65h-0.9l0.15-1.07h-0.02
	c-0.52,0.74-1.29,1.2-2.06,1.2c-0.75,0-1.53-0.36-1.53-1.64c0-0.27,0.03-0.58,0.11-0.95l0.62-3.21h1l-0.61,3.17
	c-0.08,0.32-0.11,0.59-0.11,0.83c0,0.58,0.26,0.99,0.94,0.99c0.72,0,1.65-0.82,1.89-2.08l0.57-2.91H40.2z"/>
<polygon id="XMLID_310_" class="st3" points="40.87,139.28 42.5,130.95 43.5,130.95 41.86,139.28 "/>
<path id="XMLID_487_" class="st3" d="M49.82,130.95l-1.28,6.54c-0.12,0.58-0.22,1.24-0.25,1.79h-0.91l0.15-1.13h-0.02
	c-0.53,0.81-1.26,1.26-2.09,1.26c-1.13,0-1.75-0.91-1.75-2.07c0-2.02,1.54-3.87,3.6-3.87c0.37,0,0.78,0.08,1.04,0.2l0.51-2.72H49.82
	z M48.15,134.49c-0.21-0.13-0.54-0.23-0.97-0.23c-1.4,0-2.48,1.44-2.48,2.96c0,0.68,0.24,1.4,1.09,1.4c0.77,0,1.7-0.86,1.95-2.14
	L48.15,134.49z"/>
<path id="XMLID_484_" class="st3" d="M53.8,139.28c0-0.34,0.06-0.88,0.13-1.47h-0.02c-0.64,1.17-1.44,1.6-2.27,1.6
	c-1.03,0-1.67-0.8-1.67-1.88c0-1.97,1.49-4.06,4.03-4.06c0.56,0,1.17,0.09,1.57,0.22l-0.59,2.96c-0.2,0.98-0.28,1.99-0.26,2.63H53.8
	z M54.46,134.33c-0.15-0.04-0.36-0.09-0.7-0.09c-1.51,0-2.74,1.54-2.75,3.12c0,0.63,0.23,1.26,1,1.26c0.83,0,1.82-1.05,2.11-2.57
	L54.46,134.33z"/>
<path id="XMLID_481_" class="st3" d="M62.43,130.95l-1.27,6.54c-0.13,0.58-0.22,1.24-0.26,1.79h-0.91l0.15-1.13h-0.02
	c-0.53,0.81-1.27,1.26-2.1,1.26c-1.13,0-1.74-0.91-1.74-2.07c0-2.02,1.54-3.87,3.6-3.87c0.37,0,0.79,0.08,1.03,0.2l0.52-2.72H62.43z
	 M60.76,134.49c-0.21-0.13-0.54-0.23-0.97-0.23c-1.4,0-2.48,1.44-2.48,2.96c0,0.68,0.24,1.4,1.1,1.4c0.77,0,1.7-0.86,1.95-2.14
	L60.76,134.49z"/>
<path id="XMLID_478_" class="st3" d="M66.76,138.95c-0.44,0.25-1.14,0.45-1.93,0.45c-1.54,0-2.21-1.02-2.21-2.28
	c0-1.71,1.29-3.65,3.17-3.65c1.11,0,1.71,0.64,1.71,1.45c0,1.49-1.72,1.89-3.88,1.85c-0.05,0.25-0.01,0.78,0.12,1.08
	c0.23,0.5,0.7,0.76,1.31,0.76c0.68,0,1.2-0.21,1.56-0.4L66.76,138.95z M65.64,134.24c-0.95,0-1.65,0.9-1.9,1.79
	c1.57,0.01,2.8-0.19,2.8-1.07C66.54,134.49,66.18,134.24,65.64,134.24"/>
<path id="XMLID_301_" class="st3" d="M68.06,138.3c0.27,0.16,0.78,0.35,1.25,0.35c0.67,0,1.11-0.42,1.11-0.92
	c0-0.45-0.2-0.72-0.8-1.05c-0.68-0.36-1.05-0.87-1.05-1.45c0-0.99,0.88-1.76,2.11-1.76c0.53,0,1,0.14,1.22,0.28l-0.27,0.74
	c-0.21-0.12-0.58-0.25-1.02-0.25c-0.6,0-1.03,0.36-1.03,0.85c0,0.41,0.27,0.67,0.79,0.95c0.65,0.36,1.1,0.85,1.1,1.49
	c0,1.2-1,1.87-2.22,1.87c-0.63,0-1.19-0.19-1.45-0.39L68.06,138.3z"/>
<polygon id="XMLID_300_" class="st3" points="77.26,131.37 75.71,139.28 74.72,139.28 76.26,131.37 "/>
<path id="XMLID_299_" class="st3" d="M77.5,139.28l0.78-4.03c0.13-0.64,0.21-1.19,0.28-1.65h0.89l-0.15,1.12h0.03
	c0.52-0.8,1.3-1.24,2.16-1.24c0.7,0,1.49,0.38,1.49,1.58c0,0.25-0.05,0.61-0.11,0.92l-0.66,3.31h-0.99l0.63-3.28
	c0.05-0.22,0.08-0.49,0.08-0.73c0-0.57-0.23-1-0.92-1c-0.71,0-1.72,0.83-1.99,2.24l-0.53,2.76H77.5z"/>
<path id="XMLID_298_" class="st3" d="M86.55,132.08l-0.3,1.52h1.4l-0.15,0.76h-1.4l-0.54,2.76c-0.06,0.32-0.11,0.61-0.11,0.92
	c0,0.35,0.18,0.54,0.56,0.54c0.17,0,0.34-0.02,0.47-0.04l-0.05,0.77c-0.18,0.07-0.48,0.11-0.78,0.11c-0.89,0-1.22-0.53-1.22-1.11
	c0-0.33,0.03-0.66,0.12-1.07l0.58-2.88h-0.85l0.16-0.76h0.83l0.26-1.28L86.55,132.08z"/>
<path id="XMLID_471_" class="st3" d="M91.86,138.95c-0.43,0.25-1.15,0.45-1.93,0.45c-1.54,0-2.22-1.02-2.22-2.28
	c0-1.71,1.31-3.65,3.18-3.65c1.11,0,1.71,0.64,1.71,1.45c0,1.49-1.72,1.89-3.88,1.85c-0.05,0.25-0.01,0.78,0.12,1.08
	c0.23,0.5,0.7,0.76,1.3,0.76c0.69,0,1.2-0.21,1.57-0.4L91.86,138.95z M90.76,134.24c-0.96,0-1.67,0.9-1.91,1.79
	c1.56,0.01,2.8-0.19,2.8-1.07C91.65,134.49,91.28,134.24,90.76,134.24"/>
<path id="XMLID_468_" class="st3" d="M93.17,140.57c0.35,0.21,0.93,0.38,1.55,0.38c0.98,0,1.75-0.5,2.1-2.03l0.19-0.85h-0.04
	c-0.51,0.81-1.22,1.21-2.03,1.21c-1.17,0-1.77-0.96-1.77-1.97c-0.01-1.93,1.45-3.84,3.7-3.84c0.67,0,1.41,0.19,1.87,0.4l-0.89,4.69
	c-0.24,1.2-0.57,2.04-1.18,2.54c-0.58,0.49-1.36,0.64-2.03,0.64c-0.72,0-1.38-0.17-1.75-0.4L93.17,140.57z M97.64,134.44
	c-0.18-0.08-0.54-0.18-0.96-0.18c-1.46,0-2.46,1.48-2.47,2.88c0,0.62,0.22,1.36,1.12,1.36c0.85,0,1.72-1.06,1.93-2.17L97.64,134.44z
	"/>
<path id="XMLID_293_" class="st3" d="M99.42,139.28l0.71-3.66c0.15-0.74,0.24-1.49,0.31-2.02h0.88c-0.05,0.4-0.1,0.8-0.16,1.23h0.04
	c0.37-0.77,1-1.36,1.79-1.36c0.08,0,0.21,0.01,0.27,0.02l-0.19,0.96c-0.06-0.01-0.16-0.02-0.27-0.02c-0.87,0-1.64,1.02-1.89,2.35
	l-0.48,2.5H99.42z"/>
<path id="XMLID_464_" class="st3" d="M106.94,139.28c0-0.34,0.06-0.88,0.13-1.47h-0.02c-0.64,1.17-1.44,1.6-2.27,1.6
	c-1.03,0-1.67-0.8-1.67-1.88c0-1.97,1.49-4.06,4.03-4.06c0.56,0,1.17,0.09,1.57,0.22l-0.6,2.96c-0.19,0.98-0.27,1.99-0.25,2.63
	H106.94z M107.59,134.33c-0.14-0.04-0.36-0.09-0.69-0.09c-1.51,0-2.74,1.54-2.75,3.12c0,0.63,0.23,1.26,1,1.26
	c0.83,0,1.82-1.05,2.11-2.57L107.59,134.33z"/>
<path id="XMLID_461_" class="st3" d="M115.56,130.95l-1.27,6.54c-0.12,0.58-0.22,1.24-0.25,1.79h-0.92l0.15-1.13h-0.02
	c-0.53,0.81-1.27,1.26-2.1,1.26c-1.13,0-1.74-0.91-1.74-2.07c0-2.02,1.54-3.87,3.6-3.87c0.37,0,0.78,0.08,1.04,0.2l0.52-2.72H115.56
	z M113.89,134.49c-0.2-0.13-0.54-0.23-0.97-0.23c-1.39,0-2.47,1.44-2.47,2.96c0,0.68,0.24,1.4,1.09,1.4c0.78,0,1.7-0.86,1.95-2.14
	L113.89,134.49z"/>
<path id="XMLID_458_" class="st3" d="M119.55,139.28c0-0.34,0.06-0.88,0.13-1.47h-0.02c-0.63,1.17-1.43,1.6-2.27,1.6
	c-1.02,0-1.67-0.8-1.67-1.88c0-1.97,1.49-4.06,4.03-4.06c0.56,0,1.17,0.09,1.56,0.22l-0.59,2.96c-0.2,0.98-0.28,1.99-0.26,2.63
	H119.55z M120.21,134.33c-0.15-0.04-0.36-0.09-0.7-0.09c-1.5,0-2.73,1.54-2.75,3.12c0,0.63,0.23,1.26,1.01,1.26
	c0.83,0,1.81-1.05,2.11-2.57L120.21,134.33z"/>
<path id="XMLID_286_" class="st3" d="M122.02,138.3c0.28,0.16,0.78,0.35,1.25,0.35c0.67,0,1.11-0.42,1.11-0.92
	c0-0.45-0.21-0.72-0.81-1.05c-0.68-0.36-1.05-0.87-1.05-1.45c0-0.99,0.88-1.76,2.11-1.76c0.53,0,1,0.14,1.21,0.28l-0.27,0.74
	c-0.2-0.12-0.57-0.25-1.02-0.25c-0.6,0-1.03,0.36-1.03,0.85c0,0.41,0.28,0.67,0.8,0.95c0.65,0.36,1.1,0.85,1.1,1.49
	c0,1.2-1.01,1.87-2.23,1.87c-0.63,0-1.18-0.19-1.44-0.39L122.02,138.3z"/>
<path id="XMLID_285_" class="st3" d="M135.5,139.28l0.58-4.27c0.11-0.75,0.28-1.91,0.44-2.68h-0.05c-0.38,0.79-0.82,1.74-1.27,2.54
	l-2.41,4.36h-0.76l-0.61-4.26c-0.12-0.92-0.2-1.83-0.25-2.64h-0.02c-0.18,0.73-0.43,1.93-0.63,2.68l-1.11,4.27h-0.94l2.11-7.91h1.28
	l0.64,4.54c0.08,0.67,0.18,1.39,0.2,1.97h0.03c0.25-0.58,0.61-1.29,0.95-1.95l2.51-4.57h1.3l-1.04,7.91H135.5z"/>
<path id="XMLID_453_" class="st3" d="M141.92,139.28c0-0.34,0.07-0.88,0.13-1.47h-0.03c-0.64,1.17-1.43,1.6-2.26,1.6
	c-1.02,0-1.67-0.8-1.67-1.88c0-1.97,1.49-4.06,4.04-4.06c0.55,0,1.17,0.09,1.57,0.22l-0.59,2.96c-0.19,0.98-0.28,1.99-0.25,2.63
	H141.92z M142.58,134.33c-0.15-0.04-0.36-0.09-0.7-0.09c-1.51,0-2.73,1.54-2.74,3.12c0,0.63,0.23,1.26,0.99,1.26
	c0.83,0,1.82-1.05,2.11-2.57L142.58,134.33z"/>
<path id="XMLID_282_" class="st3" d="M148.36,139.06c-0.3,0.14-0.9,0.34-1.68,0.34c-1.51,0-2.24-0.99-2.24-2.2
	c0-1.94,1.47-3.72,3.57-3.72c0.54,0,1.03,0.15,1.22,0.25l-0.29,0.77c-0.23-0.11-0.55-0.21-0.98-0.21c-1.52,0-2.47,1.46-2.47,2.8
	c0,0.91,0.49,1.51,1.44,1.51c0.59,0,1.05-0.17,1.35-0.32L148.36,139.06z"/>
<path id="XMLID_281_" class="st3" d="M149.44,139.28l1.63-8.34h1l-0.73,3.66h0.02c0.5-0.7,1.21-1.14,2.09-1.14
	c0.66,0,1.44,0.4,1.44,1.53c0,0.3-0.03,0.66-0.09,0.96l-0.65,3.32h-1l0.65-3.28c0.04-0.21,0.07-0.46,0.07-0.79
	c0-0.53-0.25-0.94-0.9-0.94c-0.77,0-1.75,0.88-1.98,2.16l-0.54,2.84H149.44z"/>
<path id="XMLID_448_" class="st3" d="M159.74,139.28c0-0.34,0.06-0.88,0.13-1.47h-0.02c-0.64,1.17-1.43,1.6-2.27,1.6
	c-1.02,0-1.67-0.8-1.67-1.88c0-1.97,1.49-4.06,4.03-4.06c0.55,0,1.17,0.09,1.57,0.22l-0.59,2.96c-0.19,0.98-0.28,1.99-0.26,2.63
	H159.74z M160.39,134.33c-0.15-0.04-0.36-0.09-0.7-0.09c-1.51,0-2.73,1.54-2.75,3.12c0,0.63,0.23,1.26,1,1.26
	c0.83,0,1.82-1.05,2.11-2.57L160.39,134.33z"/>
<path id="XMLID_445_" class="st3" d="M168.36,130.95l-1.28,6.54c-0.12,0.58-0.22,1.24-0.25,1.79h-0.92l0.16-1.13h-0.02
	c-0.53,0.81-1.27,1.26-2.1,1.26c-1.14,0-1.75-0.91-1.75-2.07c0-2.02,1.54-3.87,3.6-3.87c0.37,0,0.78,0.08,1.04,0.2l0.52-2.72H168.36
	z M166.69,134.49c-0.21-0.13-0.55-0.23-0.97-0.23c-1.39,0-2.48,1.44-2.48,2.96c0,0.68,0.24,1.4,1.09,1.4c0.77,0,1.7-0.86,1.95-2.14
	L166.69,134.49z"/>
<path id="XMLID_442_" class="st3" d="M174.07,135.84c0,1.75-1.27,3.57-3.23,3.57c-1.46,0-2.27-1.06-2.27-2.33
	c0-1.87,1.33-3.6,3.23-3.6C173.38,133.47,174.07,134.63,174.07,135.84 M169.61,137.04c0,0.93,0.51,1.6,1.37,1.6
	c1.18,0,2.07-1.48,2.07-2.81c0-0.66-0.32-1.59-1.36-1.59C170.44,134.24,169.59,135.74,169.61,137.04"/>
<path id="XMLID_439_" class="st3" d="M183.17,130.95l-1.28,6.54c-0.12,0.58-0.22,1.24-0.25,1.79h-0.92l0.16-1.13h-0.03
	c-0.53,0.81-1.27,1.26-2.09,1.26c-1.13,0-1.75-0.91-1.75-2.07c0-2.02,1.55-3.87,3.6-3.87c0.38,0,0.79,0.08,1.04,0.2l0.51-2.72
	H183.17z M181.5,134.49c-0.21-0.13-0.54-0.23-0.96-0.23c-1.4,0-2.48,1.44-2.48,2.96c0,0.68,0.24,1.4,1.09,1.4
	c0.78,0,1.7-0.86,1.95-2.14L181.5,134.49z"/>
<path id="XMLID_436_" class="st3" d="M187.49,138.95c-0.43,0.25-1.15,0.45-1.92,0.45c-1.54,0-2.22-1.02-2.22-2.28
	c0-1.71,1.3-3.65,3.18-3.65c1.11,0,1.7,0.64,1.7,1.45c0,1.49-1.71,1.89-3.87,1.85c-0.05,0.25-0.01,0.78,0.12,1.08
	c0.23,0.5,0.7,0.76,1.3,0.76c0.69,0,1.2-0.21,1.57-0.4L187.49,138.95z M186.39,134.24c-0.95,0-1.67,0.9-1.9,1.79
	c1.57,0.01,2.79-0.19,2.79-1.07C187.28,134.49,186.91,134.24,186.39,134.24"/>
<path id="XMLID_433_" class="st3" d="M192.63,136.78l-1.29,2.5h-1.06l4.2-7.91h1.18l1.12,7.91h-1.02l-0.33-2.5H192.63z M195.35,136
	l-0.31-2.29c-0.05-0.41-0.11-0.98-0.14-1.45h-0.03c-0.21,0.47-0.42,0.96-0.66,1.44l-1.21,2.3H195.35z"/>
<path id="XMLID_268_" class="st3" d="M197.89,138.3c0.28,0.16,0.78,0.35,1.25,0.35c0.68,0,1.11-0.42,1.11-0.92
	c0-0.45-0.21-0.72-0.81-1.05c-0.68-0.36-1.04-0.87-1.04-1.45c0-0.99,0.88-1.76,2.11-1.76c0.53,0,1,0.14,1.22,0.28l-0.27,0.74
	c-0.21-0.12-0.58-0.25-1.01-0.25c-0.6,0-1.04,0.36-1.04,0.85c0,0.41,0.28,0.67,0.8,0.95c0.65,0.36,1.1,0.85,1.1,1.49
	c0,1.2-1,1.87-2.23,1.87c-0.63,0-1.18-0.19-1.44-0.39L197.89,138.3z"/>
<path id="XMLID_267_" class="st3" d="M202.38,138.3c0.28,0.16,0.79,0.35,1.25,0.35c0.68,0,1.11-0.42,1.11-0.92
	c0-0.45-0.2-0.72-0.81-1.05c-0.67-0.36-1.04-0.87-1.04-1.45c0-0.99,0.87-1.76,2.1-1.76c0.53,0,1,0.14,1.22,0.28l-0.27,0.74
	c-0.21-0.12-0.58-0.25-1.01-0.25c-0.6,0-1.03,0.36-1.03,0.85c0,0.41,0.27,0.67,0.79,0.95c0.65,0.36,1.1,0.85,1.1,1.49
	c0,1.2-1,1.87-2.23,1.87c-0.63,0-1.18-0.19-1.45-0.39L202.38,138.3z"/>
<path id="XMLID_428_" class="st3" d="M206.83,139.28l1.12-5.68h1l-1.12,5.68H206.83z M208.13,132.01c0-0.37,0.3-0.66,0.67-0.66
	c0.36,0,0.59,0.26,0.59,0.61c-0.01,0.39-0.29,0.65-0.67,0.65C208.36,132.62,208.13,132.37,208.13,132.01"/>
<path id="XMLID_264_" class="st3" d="M209.63,138.3c0.28,0.16,0.78,0.35,1.26,0.35c0.67,0,1.11-0.42,1.11-0.92
	c0-0.45-0.21-0.72-0.81-1.05c-0.68-0.36-1.05-0.87-1.05-1.45c0-0.99,0.88-1.76,2.11-1.76c0.53,0,1,0.14,1.22,0.28l-0.28,0.74
	c-0.21-0.12-0.58-0.25-1.02-0.25c-0.6,0-1.04,0.36-1.04,0.85c0,0.41,0.28,0.67,0.8,0.95c0.65,0.36,1.09,0.85,1.09,1.49
	c0,1.2-1,1.87-2.23,1.87c-0.62,0-1.18-0.19-1.44-0.39L209.63,138.3z"/>
<g id="XMLID_263_">
	<rect x="16.64" y="146.34" class="st4" width="198.15" height="0.25"/>
	<rect x="16.05" y="145.75" class="st3" width="199.34" height="1.43"/>
</g>
<text id="XMLID_4_" transform="matrix(1 0 0 1 19.2802 158.3179)" class="st3 st5 st6">Recredenciada pela Portaria do MEC n° 734/2016</text>
</svg>
