<?xml version="1.0" encoding="utf-8"?>
<!-- Generator: Adobe Illustrator 23.0.4, SVG Export Plug-In . SVG Version: 6.00 Build 0)  -->
<svg version="1.1" id="Layer_1" xmlns="https://www.w3.org/2000/svg" xmlns:xlink="https://www.w3.org/1999/xlink" x="0px" y="0px"
	 viewBox="0 0 219 158" style="enable-background:new 0 0 219 158;" xml:space="preserve">
<style type="text/css">
	.st0{fill-rule:evenodd;clip-rule:evenodd;fill:#FFFFFF;}
	.st1{fill:#FFFFFF;}
	.st2{fill-rule:evenodd;clip-rule:evenodd;fill:#002639;}
	.st3{fill-rule:evenodd;clip-rule:evenodd;fill:#BE212F;}
	.st4{fill-rule:evenodd;clip-rule:evenodd;fill:#F05A2A;}
	.st5{fill:none;stroke:#FFFFFF;stroke-miterlimit:10;}
</style>
<g>
	<path id="XMLID_530_" class="st0" d="M180.6,109.6c-2,0.1-3.1-0.7-4.3-1.3c-4.9,1.2-9.4,3.6-14.4,2.5c-7.3-1.7-10.4-11.4-6.4-18.2
		c2.3-3.8,11.6-5.6,17.4-4.1c0-3.3-0.2-7.4-2.2-8.2c-4-1.7-10.2,0.2-13,1.5c-0.4-1.9-1-3.7-1.3-5.7c2.1-1.5,5.8-2.5,9.4-2.7
		c3.9-0.3,10.1,0.1,12.1,1.9c3.2,2.8,2.2,9.6,2.6,16.1C180.9,97.9,180.6,103.5,180.6,109.6 M171.6,93.1c-4.7,0.3-10.5,2.2-10,7.7
		c0.5,5.3,8.7,4.4,11.7,1.6c0.1-2.8,0.3-6.4-0.5-9.2C172.8,93.1,171.6,93.1,171.6,93.1"/>
	<path id="XMLID_525_" class="st1" d="M164.6,111.6c-1,0-1.9-0.1-2.8-0.3c-3.3-0.7-6-3.1-7.4-6.5c-1.7-4-1.4-8.7,0.7-12.4
		c1.9-3.2,8.1-4.9,13.3-4.9c1.5,0,2.8,0.1,4.1,0.4c0-2.2-0.2-6.4-1.9-7.1c-1-0.4-2.2-0.6-3.6-0.6c-3.2,0-6.7,1.1-9,2.1l-0.5,0.2
		l-0.1-0.6c-0.2-0.7-0.3-1.4-0.5-2c-0.3-1.2-0.6-2.4-0.8-3.7l0-0.3l0.2-0.2c2-1.5,5.6-2.5,9.7-2.8c0.8-0.1,1.7-0.1,2.6-0.1
		c2.3,0,7.8,0.2,9.9,2.1c2.6,2.3,2.6,6.9,2.6,11.8c0,1.5,0,3,0.1,4.6c0.2,4.2,0.1,8.1,0.1,11.8c0,2.1-0.1,4.3-0.1,6.5l0,0.5l-0.5,0
		c-0.2,0-0.3,0-0.5,0c-1.6,0-2.6-0.6-3.6-1.1c-0.1,0-0.2-0.1-0.3-0.2c-1.2,0.3-2.5,0.7-3.6,1.1C170,110.7,167.3,111.6,164.6,111.6
		 M168.4,88.4c-5.6,0-10.9,1.9-12.4,4.4c-2,3.4-2.3,7.8-0.7,11.5c1.3,3.1,3.8,5.3,6.8,6c0.8,0.2,1.7,0.3,2.6,0.3
		c2.6,0,5.1-0.8,7.7-1.6c1.3-0.4,2.6-0.8,3.9-1.1l0.2,0l0.2,0.1c0.2,0.1,0.3,0.2,0.5,0.3c0.9,0.5,1.8,1,3.1,1c0-2.1,0-4.1,0.1-6.1
		c0.1-3.7,0.1-7.6-0.1-11.8c-0.1-1.5-0.1-3.1-0.1-4.6c0-4.7,0-9.1-2.3-11.1c-1.3-1.1-4.8-1.8-9.3-1.8c-0.9,0-1.7,0-2.5,0.1
		c-3.7,0.2-7,1.2-8.9,2.4c0.2,1.2,0.5,2.3,0.8,3.3c0.1,0.5,0.3,1,0.4,1.5c2.4-1,5.8-2,8.8-2c1.5,0,2.9,0.2,4,0.7
		c2.2,0.9,2.5,4.7,2.5,8.6v0.6l-0.6-0.2C171.5,88.6,170,88.4,168.4,88.4 M166.8,105.1L166.8,105.1c-3.3,0-5.5-1.6-5.7-4.3
		c-0.2-1.8,0.3-3.4,1.4-4.7c2.3-2.7,6.6-3.4,9.1-3.5l0,0c0,0,0.1,0,0.6,0c0.3,0,0.6,0,0.6,0l0.4,0l0.1,0.4c0.7,2.8,0.6,6.2,0.5,8.9
		l0,0.7l-0.1,0.1C172.1,104.2,169.4,105.1,166.8,105.1 M171.6,93.6c-2.3,0.2-6.3,0.8-8.4,3.2c-0.9,1.1-1.3,2.4-1.2,4
		c0.3,3.1,3.4,3.4,4.8,3.4c2.2,0,4.6-0.8,6-2l0-0.2c0.1-2.6,0.2-5.7-0.4-8.3c-0.1,0-0.2,0-0.3,0C171.9,93.6,171.7,93.6,171.6,93.6"
		/>
	<path id="XMLID_522_" class="st0" d="M93,94.2H74.8c0.1,11.3,10.1,11,16.9,7.7c0.6,1.6,1.4,3.1,2,4.8c-6.5,5.2-19.9,5.5-24.8-0.8
		c-2.3-3.1-3.1-7.8-3.1-12.6c0-4.1,0.4-9.8,2.3-12.9c2.1-3.6,7-6,11-6.4C91.2,72.6,96,81.5,93,94.2 M85.2,82.4
		c-1.5-3.5-8-3.7-9.6,0.4c-0.7,1.6-0.8,3-0.6,5.3c3.6,0,7.2,0,10.6,0.1C85.8,86,86,84.1,85.2,82.4"/>
	<path id="XMLID_517_" class="st1" d="M81,111.1c-5.5,0-10.1-1.8-12.4-4.9c-2.1-2.8-3.2-7.1-3.2-12.9c0-2.7,0.2-9.4,2.4-13.2
		c2.2-3.8,7.4-6.2,11.4-6.6c5.4-0.6,9.8,0.9,12.4,4.2c3,3.7,3.7,9.7,2,16.7l-0.1,0.4h-18c0.3,7.6,5.3,8.7,8.4,8.7
		c2.4,0,5.2-0.7,7.8-2l0.5-0.2l0.2,0.5c0.3,0.7,0.6,1.4,0.9,2.1c0.4,0.9,0.8,1.8,1.1,2.7l0.1,0.3l-0.3,0.2
		C90.9,109.6,86,111.1,81,111.1 M81.4,74.2c-0.7,0-1.5,0-2.2,0.1c-3.7,0.4-8.6,2.7-10.6,6.2c-2.1,3.5-2.2,10.1-2.2,12.7
		c0,5.6,1,9.7,3,12.3c2.2,2.9,6.5,4.6,11.7,4.6c4.6,0,9.1-1.3,12.1-3.6c-0.3-0.8-0.6-1.6-1-2.3c-0.2-0.5-0.5-1.1-0.7-1.6
		c-2.6,1.2-5.3,1.8-7.8,1.8c-2.7,0-4.9-0.8-6.5-2.3c-1.9-1.7-2.8-4.4-2.8-7.9l0-0.5h18.3c1.5-6.6,0.8-12.1-1.9-15.5
		C88.6,75.6,85.5,74.2,81.4,74.2 M86.1,88.5l-0.5,0c-2.8,0-5.8,0-8.6-0.1l-2.4,0l0-0.4c-0.2-2.4-0.1-3.8,0.6-5.5
		c0.8-2,2.9-3.3,5.4-3.3c2.4,0,4.4,1.2,5.2,2.9c0.8,1.8,0.6,3.7,0.5,5.6L86.1,88.5z M75.4,87.5l1.6,0c2.7,0,5.5,0,8.2,0.1
		c0.1-1.8,0.3-3.5-0.4-5c-0.6-1.4-2.3-2.4-4.3-2.4c-1.6,0-3.7,0.7-4.5,2.7C75.4,84.3,75.3,85.5,75.4,87.5"/>
	<path id="XMLID_330_" class="st0" d="M109.6,109.8V90.3c0-2-0.4-4.5,0-6.1c0.6-2.4,4.8-4.2,7.9-3.4c3.6,0.9,2.5,10.3,2.5,15.6
		c0,4.1,0.1,9.6,0.1,13.5h7.7c0-3.1,0-8.8,0-13.2c0-4.2-0.3-9.2,0.3-12.1c0.6-2.8,4.2-4.9,7.4-4.3c2.9,0.5,2.2,3.8,2.3,6.9
		c0.3,6.7,0,16.6,0,22.7l8.8,0c0.1-7.2-0.3-17-0.3-24.3c0-2.6,0.2-5.5-0.5-7.2c-0.9-2.2-3.8-4.6-5.6-4.8c-6.8-0.7-9,2.7-12.5,4.3
		c-1.9-1.7-3.1-3.7-5.6-4.3c-4.1-0.9-7.3,0.9-10.2,2.1c-2,0.9-4.5,2.6-5.6,2.6c-1.3,0.1-3.2-1.4-4.7-1.1v32.7H109.6z"/>
	<path id="XMLID_513_" class="st1" d="M147.1,110.3l-9.8,0v-0.5c0-1.8,0-3.9,0-6.1c0.1-5.5,0.1-11.8-0.1-16.5c0-0.6,0-1.2,0-1.8
		c0-2.7,0-4.3-1.9-4.6c-0.3-0.1-0.7-0.1-1-0.1c-2.7,0-5.4,1.8-5.8,4c-0.5,2.1-0.4,5.5-0.3,8.7c0,1.1,0,2.2,0,3.3c0,1.6,0,3.5,0,5.3
		v7.9v0.5h-8.7l0-0.5c-0.1-4.1-0.2-9.5-0.2-13.5c0-1,0-2.1,0.1-3.3c0.2-4.7,0.4-11.2-2.2-11.8c-0.4-0.1-0.9-0.2-1.4-0.2
		c-2.7,0-5.5,1.6-5.9,3.2c-0.3,1-0.2,2.4-0.1,3.8c0,0.7,0.1,1.5,0.1,2.2v20.1h-8.8V76.8l0.4-0.1c0.1,0,0.3,0,0.4,0
		c0.8,0,1.6,0.3,2.4,0.6c0.7,0.3,1.4,0.5,1.9,0.5h0.1c0.5,0,1.8-0.7,2.9-1.3c0.8-0.5,1.7-0.9,2.5-1.3c0.3-0.1,0.6-0.3,1-0.4
		c2.1-0.9,4.4-2,7.1-2c0.8,0,1.6,0.1,2.3,0.3c1.9,0.4,3.1,1.7,4.4,3c0.4,0.4,0.7,0.8,1.2,1.2c0.8-0.4,1.5-0.9,2.3-1.4
		c2-1.4,4.4-2.9,8.3-2.9c0.6,0,1.2,0,1.8,0.1c2,0.2,5,2.8,6,5.1c0.6,1.5,0.6,3.7,0.5,5.9c0,0.5,0,1,0,1.5c0,3.3,0.1,7.2,0.2,11
		c0.1,4.6,0.2,9.4,0.2,13.3L147.1,110.3z M120.6,109.4h6.8c0-1.9,0-4.6,0-7.4c0-1.8,0-3.7,0-5.3c0-1,0-2.2,0-3.2
		c-0.1-3.3-0.1-6.7,0.4-9c0.6-2.6,3.6-4.8,6.8-4.8c0.4,0,0.8,0,1.2,0.1c2.7,0.5,2.7,3.1,2.7,5.6c0,0.6,0,1.2,0,1.7
		c0.2,4.8,0.1,11.1,0.1,16.6c0,2,0,3.9,0,5.6l7.8,0c0-3.8-0.1-8.4-0.2-12.8c-0.1-3.8-0.2-7.7-0.2-11c0-0.5,0-1,0-1.5
		c0-2.1,0.1-4.2-0.5-5.5c-0.9-2.1-3.7-4.3-5.2-4.5c-0.6-0.1-1.2-0.1-1.7-0.1c-3.7,0-5.7,1.4-7.8,2.7c-0.9,0.6-1.7,1.2-2.7,1.6
		l-0.3,0.1l-0.2-0.2c-0.5-0.5-1-1-1.4-1.4c-1.2-1.3-2.3-2.3-3.9-2.7c-0.7-0.2-1.4-0.2-2.1-0.2c-2.5,0-4.7,1-6.7,1.9
		c-0.3,0.1-0.7,0.3-1,0.4c-0.7,0.3-1.6,0.8-2.4,1.2c-1.4,0.8-2.6,1.4-3.4,1.4c-0.7,0-1.5-0.3-2.3-0.6c-0.7-0.3-1.3-0.5-1.9-0.6v31.7
		h6.8V90.3c0-0.7,0-1.4-0.1-2.1c-0.1-1.5-0.2-3,0.1-4.1c0.6-2.4,4-4,6.8-4c0.6,0,1.1,0.1,1.6,0.2c3.3,0.8,3.1,7.2,2.9,12.8
		c0,1.2-0.1,2.3-0.1,3.2C120.4,100.2,120.5,105.3,120.6,109.4"/>
	<path id="XMLID_327_" class="st0" d="M46.7,79.5L46.7,79.5L46.7,79.5v-11h0.5c0,0,0,0,0,0h16.3l2.1-7.4H38c-0.2,0-0.2,0.4-0.3,0.5
		c0.1,15.7-0.2,31.8,0.2,47.2c2.5,0,6.2,0,8.9,0V88h13.8l0.1-8.5L46.7,79.5L46.7,79.5z"/>
	<path id="XMLID_509_" class="st1" d="M44.1,109.3c-1,0-2.1,0-3.1,0c-1,0-1.9,0-2.7,0l-0.9,0l0-0.5c-0.2-9.5-0.2-19.5-0.2-29.1
		c0-6,0-12.1,0-18.1v-0.2l0.1-0.1c0,0,0,0,0,0c0.1-0.2,0.2-0.5,0.6-0.6l0.1,0h28.2L63.8,69h-0.4H47.5l0,0h-0.4v10h14L61,88.4H47.2
		v20.8l-0.5,0C46,109.3,45.1,109.3,44.1,109.3 M38.3,108.3c0.8,0,1.7,0,2.7,0c1,0,2.1,0,3.1,0c0.8,0,1.5,0,2.2,0V87.5h13.8l0.1-7.5
		h-14V68h0.5v0h0.5h16l1.8-6.4H38.2c0,0,0,0.1-0.1,0.2c0,6,0,12.1,0,18C38.1,89.2,38,98.9,38.3,108.3"/>
	<path id="XMLID_324_" class="st2" d="M142.8,9.5c2,3.9,3.5,8,4.9,12.1c-13.9,0.9-29.2,0.3-40.5,5.2c-2.8,1.2-6.5,2.5-6.9,6
		c-0.3,2.9,0.8,6.1,1.4,9c0.8,3.7,3,9.6-1.3,10.8c-5.7,0.2-8.6-3.2-12.1-5.4c-11.9-7.6-28.6-13.3-48.4-10.4
		c10.5-5.1,25-4.3,37.1-1.8c4.1,0.8,7.9,2.2,11.4,2.9c2.3,0.4,6,0.6,7.1-1c1.6-2.3-0.5-7-1-9.4c-1.3-5.8-0.9-11.7,3.4-13.6
		c2.4-1.1,6.3-1.3,9.6-1.7C118.8,10.7,130.9,10,142.8,9.5"/>
	<path id="XMLID_505_" class="st1" d="M99.7,53c-4.3,0-6.9-2-9.5-3.9c-0.8-0.6-1.5-1.1-2.3-1.6c-8-5.1-21-11.1-37.7-11.1
		c-3.4,0-6.9,0.3-10.4,0.8l-0.3-0.9c5.2-2.5,11.7-3.8,19.5-3.8c5.5,0,11.6,0.6,18,1.9c2.1,0.4,4,1,6,1.5c1.9,0.5,3.7,1,5.5,1.4
		c0.9,0.2,2,0.3,2.9,0.3c1.9,0,3.2-0.4,3.6-1.1c1.1-1.6,0.1-4.8-0.6-7.2c-0.2-0.7-0.4-1.3-0.5-1.9c-1.7-7.2-0.3-12.4,3.6-14.2
		c2-0.9,5-1.2,7.8-1.5c0.6-0.1,1.3-0.1,1.9-0.2c10.1-1.2,21.7-2,35.5-2.5l0.3,0l0.1,0.3c2.1,4.1,3.6,8.4,4.9,12.2l0.2,0.6l-0.6,0
		c-3,0.2-6.1,0.3-9.2,0.5c-11,0.4-22.4,0.9-31.1,4.7c-0.3,0.1-0.5,0.2-0.8,0.3c-2.6,1.1-5.5,2.3-5.8,5.2c-0.2,2.2,0.3,4.6,0.9,6.8
		c0.2,0.7,0.3,1.3,0.5,2c0.1,0.5,0.3,1.1,0.4,1.7c0.9,3.6,2.1,8.5-2.1,9.6l-0.1,0C100.1,53,99.9,53,99.7,53 M50.3,35.4
		c16.9,0,30.1,6.1,38.2,11.3c0.8,0.5,1.6,1.1,2.3,1.6c2.6,1.9,5.2,3.8,9.4,3.7c3-0.8,2.4-4.2,1.4-8.4c-0.1-0.6-0.3-1.2-0.4-1.8
		c-0.1-0.6-0.3-1.3-0.5-2c-0.6-2.4-1.2-4.8-0.9-7.2c0.4-3.5,3.7-4.9,6.4-6c0.3-0.1,0.5-0.2,0.8-0.3c8.9-3.9,20.4-4.3,31.5-4.8
		c2.8-0.1,5.7-0.2,8.5-0.4c-1.2-3.5-2.6-7.4-4.5-11.2c-13.7,0.5-25.1,1.3-35.1,2.5c-0.6,0.1-1.3,0.1-1.9,0.2
		c-2.8,0.3-5.6,0.6-7.5,1.4c-5,2.3-3.8,9.9-3.1,13.1c0.1,0.5,0.3,1.1,0.5,1.8c0.8,2.7,1.8,6,0.4,8c-0.9,1.2-2.9,1.5-4.5,1.5
		c-1,0-2.1-0.1-3.1-0.3c-1.8-0.3-3.6-0.8-5.5-1.4c-1.9-0.5-3.9-1.1-5.9-1.5c-6.3-1.3-12.3-1.9-17.8-1.9c-6,0-11.3,0.8-15.8,2.4
		C45.6,35.6,48,35.4,50.3,35.4"/>
	<path id="XMLID_321_" class="st3" d="M151.9,31.5c-6.8,0.8-13.9,1.6-21.7,2.9c-9.9,1.6-21.4,2.2-24.2,10.2c-1.6-3-3.3-8.6-1.2-11.6
		c1.4-1.9,6.1-3.9,9.4-4.9c7.2-2.1,17.5-2.1,26-2.5c2.5-0.1,6.3-0.3,8.7-0.2C150.1,27.4,150.8,28.8,151.9,31.5"/>
	<path id="XMLID_501_" class="st1" d="M106.1,45.9l-0.5-1c-1.6-2.9-3.5-8.8-1.1-12.1c1.5-2.1,6.6-4.2,9.7-5.1
		c6.1-1.7,14.5-2.1,21.9-2.4c1.4-0.1,2.9-0.1,4.2-0.2c1.9-0.1,4.6-0.2,6.9-0.2c0.7,0,1.3,0,1.8,0l0.3,0l0.1,0.2
		c1,1.9,1.8,3.3,2.9,6.1l0.2,0.6l-0.6,0.1c-1.3,0.2-2.6,0.3-3.9,0.5c-5.7,0.7-11.5,1.4-17.8,2.4c-1.3,0.2-2.6,0.4-3.8,0.6
		c-8.7,1.3-17.6,2.6-20,9.3L106.1,45.9z M147.2,26c-2.3,0-5,0.1-6.9,0.2c-1.4,0.1-2.8,0.1-4.2,0.2c-7.4,0.3-15.7,0.6-21.7,2.3
		c-3.5,1-7.9,3-9.1,4.7c-1.9,2.6-0.5,7.3,0.7,10.1c3-6.4,11.8-7.7,20.3-9c1.3-0.2,2.5-0.4,3.8-0.6c6.3-1,12.1-1.7,17.8-2.4
		c1.1-0.1,2.2-0.3,3.2-0.4c-0.9-2.3-1.6-3.6-2.5-5.2C148.3,26,147.8,26,147.2,26"/>
	<path id="XMLID_318_" class="st4" d="M133.6,57.9c-6.6,1.5-13.9,2.3-15.6,8.7c-2.4-4.1-4.8-8.1-7.1-13c-1.1-2.3-3.1-5.5-2.1-7.8
		c2-3.6,9.7-6.6,14.4-7.2c0.2,0,0.8-0.1,1.2-0.1c1,0.1,1.8,2.4,2.2,3.2C128.8,47.2,131.8,52.3,133.6,57.9"/>
	<path id="XMLID_497_" class="st1" d="M118.2,67.9l-0.6-1c-0.3-0.5-0.6-1-0.9-1.5c-2.1-3.5-4.2-7.2-6.2-11.5
		c-0.2-0.4-0.4-0.9-0.7-1.4c-1.1-2.2-2.4-4.7-1.5-6.8l0,0c2.1-3.8,10.1-6.8,14.8-7.4l0.1,0c0.3,0,0.9-0.1,1.3-0.1
		c1.1,0.2,1.8,1.7,2.5,3.3l0.1,0.2c0.9,2.2,1.9,4.4,2.9,6.5c1.5,3.1,3,6.3,4.1,9.6l0.2,0.5l-0.5,0.1c-0.7,0.2-1.5,0.3-2.2,0.5
		c-6,1.3-11.6,2.5-13,7.9L118.2,67.9z M109.3,46.1c-0.7,1.7,0.5,3.9,1.5,5.9c0.2,0.5,0.5,1,0.7,1.4c1.9,4.3,4.1,7.9,6.1,11.4
		c0.1,0.2,0.2,0.4,0.3,0.6c2-5.1,7.8-6.3,13.4-7.6c0.6-0.1,1.1-0.2,1.7-0.4c-1.1-3.1-2.5-6.1-3.9-9c-1-2.1-2-4.3-2.9-6.5l-0.1-0.2
		c-0.7-1.7-1.3-2.6-1.7-2.7c-0.1,0-0.1,0-0.2,0c-0.3,0-0.6,0-0.8,0.1l0,0C118.7,39.8,111.1,42.7,109.3,46.1"/>
	<polygon id="XMLID_315_" class="st1" points="13.4,119.7 17.5,119.7 17.3,120.5 14.2,120.5 13.7,123.2 16.5,123.2 16.4,124 
		13.5,124 12.8,127.6 11.8,127.6 	"/>
	<path id="XMLID_493_" class="st1" d="M20.7,127.6c0-0.3,0.1-0.9,0.1-1.5h0c-0.6,1.2-1.4,1.6-2.3,1.6c-1,0-1.7-0.8-1.7-1.9
		c0-2,1.5-4,4-4c0.6,0,1.2,0.1,1.6,0.2l-0.6,3c-0.2,1-0.3,2-0.2,2.6H20.7z M21.4,122.7c-0.1,0-0.4-0.1-0.7-0.1
		c-1.5,0-2.7,1.5-2.7,3.1c0,0.6,0.2,1.3,1,1.3c0.8,0,1.8-1.1,2.1-2.6L21.4,122.7z"/>
	<path id="XMLID_312_" class="st1" d="M27.1,127.4c-0.3,0.1-0.9,0.3-1.7,0.3c-1.5,0-2.2-1-2.2-2.2c0-1.9,1.5-3.7,3.6-3.7
		c0.5,0,1,0.2,1.2,0.2l-0.3,0.8c-0.2-0.1-0.6-0.2-1-0.2c-1.5,0-2.5,1.5-2.5,2.8c0,0.9,0.5,1.5,1.4,1.5c0.6,0,1-0.2,1.3-0.3
		L27.1,127.4z"/>
	<path id="XMLID_311_" class="st1" d="M33.9,121.9l-0.8,4c-0.1,0.6-0.2,1.2-0.3,1.6h-0.9l0.2-1.1h0c-0.5,0.7-1.3,1.2-2.1,1.2
		c-0.7,0-1.5-0.4-1.5-1.6c0-0.3,0-0.6,0.1-0.9l0.6-3.2h1l-0.6,3.2c-0.1,0.3-0.1,0.6-0.1,0.8c0,0.6,0.3,1,0.9,1
		c0.7,0,1.6-0.8,1.9-2.1l0.6-2.9H33.9z"/>
	<polygon id="XMLID_310_" class="st1" points="34.6,127.6 36.2,119.3 37.2,119.3 35.5,127.6 	"/>
	<path id="XMLID_487_" class="st1" d="M43.5,119.3l-1.3,6.5c-0.1,0.6-0.2,1.2-0.3,1.8H41l0.1-1.1h0c-0.5,0.8-1.3,1.3-2.1,1.3
		c-1.1,0-1.7-0.9-1.7-2.1c0-2,1.5-3.9,3.6-3.9c0.4,0,0.8,0.1,1,0.2l0.5-2.7H43.5z M41.8,122.8c-0.2-0.1-0.5-0.2-1-0.2
		c-1.4,0-2.5,1.4-2.5,2.9c0,0.7,0.2,1.4,1.1,1.4c0.8,0,1.7-0.9,1.9-2.1L41.8,122.8z"/>
	<path id="XMLID_484_" class="st1" d="M47.4,127.6c0-0.3,0.1-0.9,0.1-1.5h0c-0.6,1.2-1.4,1.6-2.3,1.6c-1,0-1.7-0.8-1.7-1.9
		c0-2,1.5-4,4-4c0.6,0,1.2,0.1,1.6,0.2l-0.6,3c-0.2,1-0.3,2-0.3,2.6H47.4z M48.1,122.7c-0.1,0-0.4-0.1-0.7-0.1
		c-1.5,0-2.7,1.5-2.7,3.1c0,0.6,0.2,1.3,1,1.3c0.8,0,1.8-1.1,2.1-2.6L48.1,122.7z"/>
	<path id="XMLID_481_" class="st1" d="M56,119.3l-1.3,6.5c-0.1,0.6-0.2,1.2-0.3,1.8h-0.9l0.2-1.1h0c-0.5,0.8-1.3,1.3-2.1,1.3
		c-1.1,0-1.7-0.9-1.7-2.1c0-2,1.5-3.9,3.6-3.9c0.4,0,0.8,0.1,1,0.2l0.5-2.7H56z M54.4,122.8c-0.2-0.1-0.5-0.2-1-0.2
		c-1.4,0-2.5,1.4-2.5,2.9c0,0.7,0.2,1.4,1.1,1.4c0.8,0,1.7-0.9,1.9-2.1L54.4,122.8z"/>
	<path id="XMLID_478_" class="st1" d="M60.4,127.3c-0.4,0.2-1.1,0.4-1.9,0.4c-1.5,0-2.2-1-2.2-2.3c0-1.7,1.3-3.6,3.2-3.6
		c1.1,0,1.7,0.6,1.7,1.4c0,1.5-1.7,1.9-3.9,1.8c0,0.2,0,0.8,0.1,1.1c0.2,0.5,0.7,0.8,1.3,0.8c0.7,0,1.2-0.2,1.6-0.4L60.4,127.3z
		 M59.3,122.6c-0.9,0-1.6,0.9-1.9,1.8c1.6,0,2.8-0.2,2.8-1.1C60.1,122.8,59.8,122.6,59.3,122.6"/>
	<path id="XMLID_301_" class="st1" d="M61.7,126.6c0.3,0.2,0.8,0.3,1.2,0.3c0.7,0,1.1-0.4,1.1-0.9c0-0.4-0.2-0.7-0.8-1
		c-0.7-0.4-1-0.9-1-1.4c0-1,0.9-1.8,2.1-1.8c0.5,0,1,0.1,1.2,0.3l-0.3,0.7c-0.2-0.1-0.6-0.3-1-0.3c-0.6,0-1,0.4-1,0.9
		c0,0.4,0.3,0.7,0.8,0.9c0.7,0.4,1.1,0.9,1.1,1.5c0,1.2-1,1.9-2.2,1.9c-0.6,0-1.2-0.2-1.4-0.4L61.7,126.6z"/>
	<polygon id="XMLID_300_" class="st1" points="70.8,119.7 69.3,127.6 68.3,127.6 69.8,119.7 	"/>
	<path id="XMLID_299_" class="st1" d="M71.1,127.6l0.8-4c0.1-0.6,0.2-1.2,0.3-1.6H73l-0.1,1.1h0c0.5-0.8,1.3-1.2,2.2-1.2
		c0.7,0,1.5,0.4,1.5,1.6c0,0.2-0.1,0.6-0.1,0.9l-0.7,3.3h-1l0.6-3.3c0-0.2,0.1-0.5,0.1-0.7c0-0.6-0.2-1-0.9-1c-0.7,0-1.7,0.8-2,2.2
		l-0.5,2.7H71.1z"/>
	<path id="XMLID_298_" class="st1" d="M80.1,120.4l-0.3,1.5h1.4l-0.2,0.8h-1.4l-0.5,2.7c-0.1,0.3-0.1,0.6-0.1,0.9
		c0,0.3,0.2,0.5,0.6,0.5c0.2,0,0.3,0,0.5,0l0,0.8c-0.2,0.1-0.5,0.1-0.8,0.1c-0.9,0-1.2-0.5-1.2-1.1c0-0.3,0-0.7,0.1-1.1l0.6-2.9
		h-0.8l0.2-0.8h0.8l0.3-1.3L80.1,120.4z"/>
	<path id="XMLID_471_" class="st1" d="M85.4,127.3c-0.4,0.2-1.1,0.4-1.9,0.4c-1.5,0-2.2-1-2.2-2.3c0-1.7,1.3-3.6,3.2-3.6
		c1.1,0,1.7,0.6,1.7,1.4c0,1.5-1.7,1.9-3.9,1.8c0,0.2,0,0.8,0.1,1.1c0.2,0.5,0.7,0.8,1.3,0.8c0.7,0,1.2-0.2,1.6-0.4L85.4,127.3z
		 M84.3,122.6c-1,0-1.7,0.9-1.9,1.8c1.6,0,2.8-0.2,2.8-1.1C85.2,122.8,84.8,122.6,84.3,122.6"/>
	<path id="XMLID_468_" class="st1" d="M86.7,128.9c0.3,0.2,0.9,0.4,1.5,0.4c1,0,1.7-0.5,2.1-2l0.2-0.8h0c-0.5,0.8-1.2,1.2-2,1.2
		c-1.2,0-1.8-1-1.8-2c0-1.9,1.4-3.8,3.7-3.8c0.7,0,1.4,0.2,1.9,0.4l-0.9,4.7c-0.2,1.2-0.6,2-1.2,2.5c-0.6,0.5-1.4,0.6-2,0.6
		c-0.7,0-1.4-0.2-1.7-0.4L86.7,128.9z M91.1,122.8c-0.2-0.1-0.5-0.2-1-0.2c-1.5,0-2.5,1.5-2.5,2.9c0,0.6,0.2,1.4,1.1,1.4
		c0.8,0,1.7-1.1,1.9-2.2L91.1,122.8z"/>
	<path id="XMLID_293_" class="st1" d="M92.9,127.6l0.7-3.7c0.1-0.7,0.2-1.5,0.3-2h0.9c0,0.4-0.1,0.8-0.2,1.2h0
		c0.4-0.8,1-1.4,1.8-1.4c0.1,0,0.2,0,0.3,0l-0.2,1c-0.1,0-0.2,0-0.3,0c-0.9,0-1.6,1-1.9,2.3l-0.5,2.5H92.9z"/>
	<path id="XMLID_464_" class="st1" d="M100.4,127.6c0-0.3,0.1-0.9,0.1-1.5h0c-0.6,1.2-1.4,1.6-2.3,1.6c-1,0-1.7-0.8-1.7-1.9
		c0-2,1.5-4,4-4c0.6,0,1.2,0.1,1.6,0.2l-0.6,3c-0.2,1-0.3,2-0.3,2.6H100.4z M101.1,122.7c-0.1,0-0.4-0.1-0.7-0.1
		c-1.5,0-2.7,1.5-2.7,3.1c0,0.6,0.2,1.3,1,1.3c0.8,0,1.8-1.1,2.1-2.6L101.1,122.7z"/>
	<path id="XMLID_461_" class="st1" d="M109,119.3l-1.3,6.5c-0.1,0.6-0.2,1.2-0.2,1.8h-0.9l0.2-1.1h0c-0.5,0.8-1.3,1.3-2.1,1.3
		c-1.1,0-1.7-0.9-1.7-2.1c0-2,1.5-3.9,3.6-3.9c0.4,0,0.8,0.1,1,0.2l0.5-2.7H109z M107.4,122.8c-0.2-0.1-0.5-0.2-1-0.2
		c-1.4,0-2.5,1.4-2.5,2.9c0,0.7,0.2,1.4,1.1,1.4c0.8,0,1.7-0.9,1.9-2.1L107.4,122.8z"/>
	<path id="XMLID_458_" class="st1" d="M113,127.6c0-0.3,0.1-0.9,0.1-1.5h0c-0.6,1.2-1.4,1.6-2.3,1.6c-1,0-1.7-0.8-1.7-1.9
		c0-2,1.5-4,4-4c0.6,0,1.2,0.1,1.6,0.2l-0.6,3c-0.2,1-0.3,2-0.3,2.6H113z M113.6,122.7c-0.1,0-0.4-0.1-0.7-0.1
		c-1.5,0-2.7,1.5-2.7,3.1c0,0.6,0.2,1.3,1,1.3c0.8,0,1.8-1.1,2.1-2.6L113.6,122.7z"/>
	<path id="XMLID_286_" class="st1" d="M115.5,126.6c0.3,0.2,0.8,0.3,1.2,0.3c0.7,0,1.1-0.4,1.1-0.9c0-0.4-0.2-0.7-0.8-1
		c-0.7-0.4-1-0.9-1-1.4c0-1,0.9-1.8,2.1-1.8c0.5,0,1,0.1,1.2,0.3l-0.3,0.7c-0.2-0.1-0.6-0.3-1-0.3c-0.6,0-1,0.4-1,0.9
		c0,0.4,0.3,0.7,0.8,0.9c0.6,0.4,1.1,0.9,1.1,1.5c0,1.2-1,1.9-2.2,1.9c-0.6,0-1.2-0.2-1.4-0.4L115.5,126.6z"/>
	<path id="XMLID_285_" class="st1" d="M128.9,127.6l0.6-4.3c0.1-0.7,0.3-1.9,0.4-2.7h0c-0.4,0.8-0.8,1.7-1.3,2.5l-2.4,4.3h-0.8
		l-0.6-4.2c-0.1-0.9-0.2-1.8-0.3-2.6h0c-0.2,0.7-0.4,1.9-0.6,2.7l-1.1,4.3h-0.9l2.1-7.9h1.3l0.6,4.5c0.1,0.7,0.2,1.4,0.2,2h0
		c0.3-0.6,0.6-1.3,1-1.9l2.5-4.6h1.3l-1,7.9H128.9z"/>
	<path id="XMLID_453_" class="st1" d="M135.3,127.6c0-0.3,0.1-0.9,0.1-1.5h0c-0.6,1.2-1.4,1.6-2.3,1.6c-1,0-1.7-0.8-1.7-1.9
		c0-2,1.5-4,4-4c0.6,0,1.2,0.1,1.6,0.2l-0.6,3c-0.2,1-0.3,2-0.3,2.6H135.3z M135.9,122.7c-0.1,0-0.4-0.1-0.7-0.1
		c-1.5,0-2.7,1.5-2.7,3.1c0,0.6,0.2,1.3,1,1.3c0.8,0,1.8-1.1,2.1-2.6L135.9,122.7z"/>
	<path id="XMLID_282_" class="st1" d="M141.7,127.4c-0.3,0.1-0.9,0.3-1.7,0.3c-1.5,0-2.2-1-2.2-2.2c0-1.9,1.5-3.7,3.6-3.7
		c0.5,0,1,0.2,1.2,0.2l-0.3,0.8c-0.2-0.1-0.6-0.2-1-0.2c-1.5,0-2.5,1.5-2.5,2.8c0,0.9,0.5,1.5,1.4,1.5c0.6,0,1-0.2,1.3-0.3
		L141.7,127.4z"/>
	<path id="XMLID_281_" class="st1" d="M142.8,127.6l1.6-8.3h1l-0.7,3.7h0c0.5-0.7,1.2-1.1,2.1-1.1c0.7,0,1.4,0.4,1.4,1.5
		c0,0.3,0,0.7-0.1,1l-0.7,3.3h-1l0.6-3.3c0-0.2,0.1-0.5,0.1-0.8c0-0.5-0.2-0.9-0.9-0.9c-0.8,0-1.7,0.9-2,2.2l-0.5,2.8H142.8z"/>
	<path id="XMLID_448_" class="st1" d="M153.1,127.6c0-0.3,0.1-0.9,0.1-1.5h0c-0.6,1.2-1.4,1.6-2.3,1.6c-1,0-1.7-0.8-1.7-1.9
		c0-2,1.5-4,4-4c0.6,0,1.2,0.1,1.6,0.2l-0.6,3c-0.2,1-0.3,2-0.3,2.6H153.1z M153.7,122.7c-0.1,0-0.4-0.1-0.7-0.1
		c-1.5,0-2.7,1.5-2.7,3.1c0,0.6,0.2,1.3,1,1.3c0.8,0,1.8-1.1,2.1-2.6L153.7,122.7z"/>
	<path id="XMLID_445_" class="st1" d="M161.7,119.3l-1.3,6.5c-0.1,0.6-0.2,1.2-0.3,1.8h-0.9l0.2-1.1h0c-0.5,0.8-1.3,1.3-2.1,1.3
		c-1.1,0-1.7-0.9-1.7-2.1c0-2,1.5-3.9,3.6-3.9c0.4,0,0.8,0.1,1,0.2l0.5-2.7H161.7z M160,122.8c-0.2-0.1-0.5-0.2-1-0.2
		c-1.4,0-2.5,1.4-2.5,2.9c0,0.7,0.2,1.4,1.1,1.4c0.8,0,1.7-0.9,1.9-2.1L160,122.8z"/>
	<path id="XMLID_442_" class="st1" d="M167.3,124.2c0,1.7-1.3,3.6-3.2,3.6c-1.5,0-2.3-1.1-2.3-2.3c0-1.9,1.3-3.6,3.2-3.6
		C166.7,121.8,167.3,123,167.3,124.2 M162.9,125.4c0,0.9,0.5,1.6,1.4,1.6c1.2,0,2.1-1.5,2.1-2.8c0-0.7-0.3-1.6-1.4-1.6
		C163.7,122.6,162.9,124.1,162.9,125.4"/>
	<path id="XMLID_439_" class="st1" d="M176.4,119.3l-1.3,6.5c-0.1,0.6-0.2,1.2-0.3,1.8H174l0.2-1.1h0c-0.5,0.8-1.3,1.3-2.1,1.3
		c-1.1,0-1.7-0.9-1.7-2.1c0-2,1.5-3.9,3.6-3.9c0.4,0,0.8,0.1,1,0.2l0.5-2.7H176.4z M174.8,122.8c-0.2-0.1-0.5-0.2-1-0.2
		c-1.4,0-2.5,1.4-2.5,2.9c0,0.7,0.2,1.4,1.1,1.4c0.8,0,1.7-0.9,1.9-2.1L174.8,122.8z"/>
	<path id="XMLID_436_" class="st1" d="M180.7,127.3c-0.4,0.2-1.1,0.4-1.9,0.4c-1.5,0-2.2-1-2.2-2.3c0-1.7,1.3-3.6,3.2-3.6
		c1.1,0,1.7,0.6,1.7,1.4c0,1.5-1.7,1.9-3.9,1.8c0,0.2,0,0.8,0.1,1.1c0.2,0.5,0.7,0.8,1.3,0.8c0.7,0,1.2-0.2,1.6-0.4L180.7,127.3z
		 M179.6,122.6c-1,0-1.7,0.9-1.9,1.8c1.6,0,2.8-0.2,2.8-1.1C180.5,122.8,180.2,122.6,179.6,122.6"/>
	<path id="XMLID_433_" class="st1" d="M185.8,125.1l-1.3,2.5h-1.1l4.2-7.9h1.2l1.1,7.9h-1l-0.3-2.5H185.8z M188.6,124.3l-0.3-2.3
		c0-0.4-0.1-1-0.1-1.4h0c-0.2,0.5-0.4,1-0.7,1.4l-1.2,2.3H188.6z"/>
	<path id="XMLID_268_" class="st1" d="M191.1,126.6c0.3,0.2,0.8,0.3,1.2,0.3c0.7,0,1.1-0.4,1.1-0.9c0-0.4-0.2-0.7-0.8-1
		c-0.7-0.4-1-0.9-1-1.4c0-1,0.9-1.8,2.1-1.8c0.5,0,1,0.1,1.2,0.3l-0.3,0.7c-0.2-0.1-0.6-0.3-1-0.3c-0.6,0-1,0.4-1,0.9
		c0,0.4,0.3,0.7,0.8,0.9c0.6,0.4,1.1,0.9,1.1,1.5c0,1.2-1,1.9-2.2,1.9c-0.6,0-1.2-0.2-1.4-0.4L191.1,126.6z"/>
	<path id="XMLID_267_" class="st1" d="M195.6,126.6c0.3,0.2,0.8,0.3,1.2,0.3c0.7,0,1.1-0.4,1.1-0.9c0-0.4-0.2-0.7-0.8-1
		c-0.7-0.4-1-0.9-1-1.4c0-1,0.9-1.8,2.1-1.8c0.5,0,1,0.1,1.2,0.3l-0.3,0.7c-0.2-0.1-0.6-0.3-1-0.3c-0.6,0-1,0.4-1,0.9
		c0,0.4,0.3,0.7,0.8,0.9c0.6,0.4,1.1,0.9,1.1,1.5c0,1.2-1,1.9-2.2,1.9c-0.6,0-1.2-0.2-1.4-0.4L195.6,126.6z"/>
	<path id="XMLID_428_" class="st1" d="M200,127.6l1.1-5.7h1l-1.1,5.7H200z M201.3,120.4c0-0.4,0.3-0.7,0.7-0.7
		c0.4,0,0.6,0.3,0.6,0.6c0,0.4-0.3,0.7-0.7,0.7C201.5,121,201.3,120.7,201.3,120.4"/>
	<path id="XMLID_264_" class="st1" d="M202.8,126.6c0.3,0.2,0.8,0.3,1.3,0.3c0.7,0,1.1-0.4,1.1-0.9c0-0.4-0.2-0.7-0.8-1
		c-0.7-0.4-1-0.9-1-1.4c0-1,0.9-1.8,2.1-1.8c0.5,0,1,0.1,1.2,0.3l-0.3,0.7c-0.2-0.1-0.6-0.3-1-0.3c-0.6,0-1,0.4-1,0.9
		c0,0.4,0.3,0.7,0.8,0.9c0.6,0.4,1.1,0.9,1.1,1.5c0,1.2-1,1.9-2.2,1.9c-0.6,0-1.2-0.2-1.4-0.4L202.8,126.6z"/>
	<rect id="XMLID_263_" x="10.4" y="134.6" class="st5" width="197.5" height="0.2"/>
	<g id="XMLID_4_">
		<path class="st1" d="M13.8,139.8c0.4-0.1,1.1-0.1,1.7-0.1c0.9,0,1.6,0.2,2,0.6c0.3,0.3,0.5,0.8,0.5,1.3c0,0.9-0.6,1.5-1.3,1.8v0
			c0.5,0.2,0.8,0.7,1,1.4c0.2,1,0.4,1.6,0.5,1.9h-0.9c-0.1-0.2-0.3-0.8-0.5-1.6c-0.2-0.9-0.6-1.3-1.4-1.3h-0.8v3h-0.9V139.8z
			 M14.7,142.9h0.9c0.9,0,1.5-0.5,1.5-1.3c0-0.9-0.6-1.3-1.6-1.3c-0.4,0-0.7,0-0.9,0.1V142.9z"/>
		<path class="st1" d="M19.4,144.3c0,1.2,0.8,1.7,1.7,1.7c0.6,0,1-0.1,1.4-0.3l0.2,0.6c-0.3,0.1-0.9,0.3-1.6,0.3
			c-1.5,0-2.4-1-2.4-2.5c0-1.5,0.9-2.7,2.3-2.7c1.6,0,2,1.4,2,2.3c0,0.2,0,0.3,0,0.4H19.4z M22.1,143.6c0-0.6-0.2-1.5-1.2-1.5
			c-0.9,0-1.3,0.8-1.4,1.5H22.1z"/>
		<path class="st1" d="M27.2,146.4c-0.2,0.1-0.8,0.3-1.4,0.3c-1.5,0-2.5-1-2.5-2.5c0-1.5,1-2.6,2.7-2.6c0.5,0,1,0.1,1.2,0.3
			l-0.2,0.7c-0.2-0.1-0.6-0.2-1-0.2c-1.1,0-1.7,0.8-1.7,1.9c0,1.1,0.7,1.8,1.7,1.8c0.5,0,0.8-0.1,1.1-0.2L27.2,146.4z"/>
		<path class="st1" d="M27.9,143.2c0-0.6,0-1.1,0-1.5h0.8l0,1h0c0.2-0.7,0.8-1.1,1.4-1.1c0.1,0,0.2,0,0.3,0v0.8c-0.1,0-0.2,0-0.3,0
			c-0.6,0-1.1,0.5-1.2,1.2c0,0.1,0,0.3,0,0.4v2.6h-0.9V143.2z"/>
		<path class="st1" d="M31.3,144.3c0,1.2,0.8,1.7,1.7,1.7c0.6,0,1-0.1,1.4-0.3l0.2,0.6c-0.3,0.1-0.9,0.3-1.6,0.3
			c-1.5,0-2.4-1-2.4-2.5c0-1.5,0.9-2.7,2.3-2.7c1.6,0,2,1.4,2,2.3c0,0.2,0,0.3,0,0.4H31.3z M33.9,143.6c0-0.6-0.2-1.5-1.2-1.5
			c-0.9,0-1.3,0.8-1.4,1.5H33.9z"/>
		<path class="st1" d="M39.8,139.3v6c0,0.4,0,0.9,0,1.3H39l0-0.9h0c-0.3,0.6-0.9,1-1.7,1c-1.2,0-2.1-1-2.1-2.5c0-1.6,1-2.7,2.2-2.7
			c0.8,0,1.3,0.4,1.5,0.8h0v-2.9H39.8z M38.9,143.7c0-0.1,0-0.3,0-0.4c-0.1-0.6-0.6-1-1.3-1c-0.9,0-1.5,0.8-1.5,1.9
			c0,1,0.5,1.8,1.5,1.8c0.6,0,1.2-0.4,1.3-1.1c0-0.1,0-0.2,0-0.4V143.7z"/>
		<path class="st1" d="M41.4,144.3c0,1.2,0.8,1.7,1.7,1.7c0.6,0,1-0.1,1.4-0.3l0.2,0.6c-0.3,0.1-0.9,0.3-1.6,0.3
			c-1.5,0-2.4-1-2.4-2.5c0-1.5,0.9-2.7,2.3-2.7c1.6,0,2,1.4,2,2.3c0,0.2,0,0.3,0,0.4H41.4z M44.1,143.6c0-0.6-0.2-1.5-1.2-1.5
			c-0.9,0-1.3,0.8-1.4,1.5H44.1z"/>
		<path class="st1" d="M45.7,143c0-0.5,0-0.9,0-1.3h0.8l0.1,0.8h0c0.2-0.5,0.8-0.9,1.6-0.9c0.7,0,1.7,0.4,1.7,2.1v2.9H49v-2.8
			c0-0.8-0.3-1.5-1.1-1.5c-0.6,0-1,0.4-1.2,0.9c0,0.1-0.1,0.3-0.1,0.4v3h-0.9V143z"/>
		<path class="st1" d="M54.5,146.4c-0.2,0.1-0.8,0.3-1.4,0.3c-1.5,0-2.5-1-2.5-2.5c0-1.5,1-2.6,2.7-2.6c0.5,0,1,0.1,1.2,0.3
			l-0.2,0.7c-0.2-0.1-0.6-0.2-1-0.2c-1.1,0-1.7,0.8-1.7,1.9c0,1.1,0.7,1.8,1.7,1.8c0.5,0,0.8-0.1,1.1-0.2L54.5,146.4z"/>
		<path class="st1" d="M56.2,140.3c0,0.3-0.2,0.5-0.6,0.5c-0.3,0-0.5-0.2-0.5-0.5c0-0.3,0.2-0.6,0.6-0.6
			C56,139.7,56.2,139.9,56.2,140.3z M55.2,146.6v-4.9h0.9v4.9H55.2z"/>
		<path class="st1" d="M60,146.6l-0.1-0.6h0c-0.3,0.4-0.8,0.7-1.5,0.7c-1,0-1.5-0.7-1.5-1.4c0-1.2,1.1-1.8,3-1.8v-0.1
			c0-0.4-0.1-1.1-1.1-1.1c-0.5,0-0.9,0.1-1.3,0.4l-0.2-0.6c0.4-0.3,1-0.4,1.6-0.4c1.5,0,1.9,1,1.9,2v1.8c0,0.4,0,0.8,0.1,1.2H60z
			 M59.8,144.1c-1,0-2.1,0.2-2.1,1.1c0,0.6,0.4,0.9,0.8,0.9c0.6,0,1-0.4,1.2-0.8c0-0.1,0.1-0.2,0.1-0.3V144.1z"/>
		<path class="st1" d="M66,139.3v6c0,0.4,0,0.9,0,1.3h-0.8l0-0.9h0c-0.3,0.6-0.9,1-1.7,1c-1.2,0-2.1-1-2.1-2.5c0-1.6,1-2.7,2.2-2.7
			c0.8,0,1.3,0.4,1.5,0.8h0v-2.9H66z M65.2,143.7c0-0.1,0-0.3,0-0.4c-0.1-0.6-0.6-1-1.3-1c-0.9,0-1.5,0.8-1.5,1.9
			c0,1,0.5,1.8,1.5,1.8c0.6,0,1.2-0.4,1.3-1.1c0-0.1,0-0.2,0-0.4V143.7z"/>
		<path class="st1" d="M69.9,146.6l-0.1-0.6h0c-0.3,0.4-0.8,0.7-1.5,0.7c-1,0-1.5-0.7-1.5-1.4c0-1.2,1.1-1.8,3-1.8v-0.1
			c0-0.4-0.1-1.1-1.1-1.1c-0.5,0-0.9,0.1-1.3,0.4l-0.2-0.6c0.4-0.3,1-0.4,1.6-0.4c1.5,0,1.9,1,1.9,2v1.8c0,0.4,0,0.8,0.1,1.2H69.9z
			 M69.8,144.1c-1,0-2.1,0.2-2.1,1.1c0,0.6,0.4,0.9,0.8,0.9c0.6,0,1-0.4,1.2-0.8c0-0.1,0.1-0.2,0.1-0.3V144.1z"/>
		<path class="st1" d="M73.5,143.3c0-0.6,0-1.1,0-1.6h0.8l0,0.8h0c0.4-0.6,0.9-1,1.8-1c1.2,0,2.1,1,2.1,2.5c0,1.8-1.1,2.7-2.2,2.7
			c-0.7,0-1.2-0.3-1.5-0.8h0v2.7h-0.9V143.3z M74.4,144.6c0,0.1,0,0.3,0,0.4c0.2,0.6,0.7,1,1.3,1c0.9,0,1.5-0.8,1.5-1.9
			c0-1-0.5-1.8-1.5-1.8c-0.6,0-1.2,0.4-1.4,1.1c0,0.1-0.1,0.2-0.1,0.4V144.6z"/>
		<path class="st1" d="M79.5,144.3c0,1.2,0.8,1.7,1.7,1.7c0.6,0,1-0.1,1.4-0.3l0.2,0.6c-0.3,0.1-0.9,0.3-1.6,0.3
			c-1.5,0-2.4-1-2.4-2.5c0-1.5,0.9-2.7,2.3-2.7c1.6,0,2,1.4,2,2.3c0,0.2,0,0.3,0,0.4H79.5z M82.1,143.6c0-0.6-0.2-1.5-1.2-1.5
			c-0.9,0-1.3,0.8-1.4,1.5H82.1z"/>
		<path class="st1" d="M83.7,139.3h0.9v7.2h-0.9V139.3z"/>
		<path class="st1" d="M88.5,146.6l-0.1-0.6h0c-0.3,0.4-0.8,0.7-1.5,0.7c-1,0-1.5-0.7-1.5-1.4c0-1.2,1.1-1.8,3-1.8v-0.1
			c0-0.4-0.1-1.1-1.1-1.1c-0.5,0-0.9,0.1-1.3,0.4l-0.2-0.6c0.4-0.3,1-0.4,1.6-0.4c1.5,0,1.9,1,1.9,2v1.8c0,0.4,0,0.8,0.1,1.2H88.5z
			 M88.4,144.1c-1,0-2.1,0.2-2.1,1.1c0,0.6,0.4,0.9,0.8,0.9c0.6,0,1-0.4,1.2-0.8c0-0.1,0.1-0.2,0.1-0.3V144.1z"/>
		<path class="st1" d="M92.2,139.8c0.4-0.1,1-0.1,1.7-0.1c0.9,0,1.5,0.2,1.9,0.6c0.4,0.3,0.6,0.8,0.6,1.4c0,0.6-0.2,1.1-0.5,1.5
			c-0.5,0.5-1.2,0.8-2.1,0.8c-0.3,0-0.5,0-0.7-0.1v2.8h-0.9V139.8z M93.1,143.1c0.2,0.1,0.4,0.1,0.7,0.1c1.1,0,1.7-0.5,1.7-1.5
			c0-0.9-0.6-1.3-1.6-1.3c-0.4,0-0.7,0-0.8,0.1V143.1z"/>
		<path class="st1" d="M101.4,144.1c0,1.8-1.3,2.6-2.5,2.6c-1.3,0-2.4-1-2.4-2.5c0-1.7,1.1-2.6,2.4-2.6
			C100.5,141.5,101.4,142.6,101.4,144.1z M97.5,144.1c0,1.1,0.6,1.9,1.5,1.9c0.9,0,1.5-0.8,1.5-1.9c0-0.8-0.4-1.9-1.5-1.9
			C98,142.2,97.5,143.2,97.5,144.1z"/>
		<path class="st1" d="M102.2,143.2c0-0.6,0-1.1,0-1.5h0.8l0,1h0c0.2-0.7,0.8-1.1,1.4-1.1c0.1,0,0.2,0,0.3,0v0.8c-0.1,0-0.2,0-0.3,0
			c-0.6,0-1.1,0.5-1.2,1.2c0,0.1,0,0.3,0,0.4v2.6h-0.9V143.2z"/>
		<path class="st1" d="M106.5,140.2v1.4h1.3v0.7h-1.3v2.7c0,0.6,0.2,1,0.7,1c0.2,0,0.4,0,0.5-0.1l0,0.7c-0.2,0.1-0.4,0.1-0.8,0.1
			c-0.4,0-0.8-0.1-1-0.4c-0.3-0.3-0.3-0.7-0.3-1.3v-2.7h-0.8v-0.7h0.8v-1.2L106.5,140.2z"/>
		<path class="st1" d="M111.2,146.6l-0.1-0.6h0c-0.3,0.4-0.8,0.7-1.5,0.7c-1,0-1.5-0.7-1.5-1.4c0-1.2,1.1-1.8,3-1.8v-0.1
			c0-0.4-0.1-1.1-1.1-1.1c-0.5,0-0.9,0.1-1.3,0.4l-0.2-0.6c0.4-0.3,1-0.4,1.6-0.4c1.5,0,1.9,1,1.9,2v1.8c0,0.4,0,0.8,0.1,1.2H111.2z
			 M111.1,144.1c-1,0-2.1,0.2-2.1,1.1c0,0.6,0.4,0.9,0.8,0.9c0.6,0,1-0.4,1.2-0.8c0-0.1,0.1-0.2,0.1-0.3V144.1z"/>
		<path class="st1" d="M113,143.2c0-0.6,0-1.1,0-1.5h0.8l0,1h0c0.2-0.7,0.8-1.1,1.4-1.1c0.1,0,0.2,0,0.3,0v0.8c-0.1,0-0.2,0-0.3,0
			c-0.6,0-1.1,0.5-1.2,1.2c0,0.1,0,0.3,0,0.4v2.6H113V143.2z"/>
		<path class="st1" d="M117,140.3c0,0.3-0.2,0.5-0.6,0.5c-0.3,0-0.5-0.2-0.5-0.5c0-0.3,0.2-0.6,0.6-0.6
			C116.8,139.7,117,139.9,117,140.3z M116,146.6v-4.9h0.9v4.9H116z"/>
		<path class="st1" d="M120.8,146.6l-0.1-0.6h0c-0.3,0.4-0.8,0.7-1.5,0.7c-1,0-1.5-0.7-1.5-1.4c0-1.2,1.1-1.8,3-1.8v-0.1
			c0-0.4-0.1-1.1-1.1-1.1c-0.5,0-0.9,0.1-1.3,0.4L118,142c0.4-0.3,1-0.4,1.6-0.4c1.5,0,1.9,1,1.9,2v1.8c0,0.4,0,0.8,0.1,1.2H120.8z
			 M120.7,144.1c-1,0-2.1,0.2-2.1,1.1c0,0.6,0.4,0.9,0.8,0.9c0.6,0,1-0.4,1.2-0.8c0-0.1,0.1-0.2,0.1-0.3V144.1z"/>
		<path class="st1" d="M128.7,139.3v6c0,0.4,0,0.9,0,1.3h-0.8l0-0.9h0c-0.3,0.6-0.9,1-1.7,1c-1.2,0-2.1-1-2.1-2.5
			c0-1.6,1-2.7,2.2-2.7c0.8,0,1.3,0.4,1.5,0.8h0v-2.9H128.7z M127.8,143.7c0-0.1,0-0.3,0-0.4c-0.1-0.6-0.6-1-1.3-1
			c-0.9,0-1.5,0.8-1.5,1.9c0,1,0.5,1.8,1.5,1.8c0.6,0,1.2-0.4,1.3-1.1c0-0.1,0-0.2,0-0.4V143.7z"/>
		<path class="st1" d="M134.3,144.1c0,1.8-1.3,2.6-2.5,2.6c-1.3,0-2.4-1-2.4-2.5c0-1.7,1.1-2.6,2.4-2.6
			C133.3,141.5,134.3,142.6,134.3,144.1z M130.4,144.1c0,1.1,0.6,1.9,1.5,1.9c0.9,0,1.5-0.8,1.5-1.9c0-0.8-0.4-1.9-1.5-1.9
			C130.8,142.2,130.4,143.2,130.4,144.1z"/>
		<path class="st1" d="M142.7,143.6c-0.1-1-0.1-2.1-0.1-3h0c-0.2,0.8-0.5,1.7-0.9,2.6l-1.2,3.3h-0.7l-1.1-3.3
			c-0.3-1-0.6-1.9-0.8-2.7h0c0,0.9-0.1,2-0.1,3l-0.2,2.9h-0.8l0.5-6.9h1.1l1.2,3.3c0.3,0.8,0.5,1.6,0.7,2.3h0
			c0.2-0.7,0.4-1.4,0.7-2.3l1.2-3.3h1.1l0.4,6.9h-0.9L142.7,143.6z"/>
		<path class="st1" d="M148.3,143.4h-2.7v2.5h3v0.7h-3.9v-6.9h3.7v0.7h-2.8v2.2h2.7V143.4z"/>
		<path class="st1" d="M154.2,146.4c-0.3,0.2-1,0.3-1.8,0.3c-1.9,0-3.4-1.2-3.4-3.5c0-2.2,1.5-3.6,3.6-3.6c0.9,0,1.4,0.2,1.6,0.3
			l-0.2,0.7c-0.3-0.2-0.8-0.3-1.4-0.3c-1.6,0-2.7,1-2.7,2.8c0,1.7,1,2.8,2.6,2.8c0.5,0,1.1-0.1,1.4-0.3L154.2,146.4z"/>
		<path class="st1" d="M156.7,143c0-0.5,0-0.9,0-1.3h0.8l0.1,0.8h0c0.2-0.5,0.8-0.9,1.6-0.9c0.7,0,1.7,0.4,1.7,2.1v2.9H160v-2.8
			c0-0.8-0.3-1.5-1.1-1.5c-0.6,0-1,0.4-1.2,0.9c0,0.1-0.1,0.3-0.1,0.4v3h-0.9V143z"/>
		<path class="st1" d="M164.3,140.9c0,0.8-0.7,1.4-1.4,1.4c-0.8,0-1.3-0.6-1.3-1.3c0-0.8,0.6-1.4,1.4-1.4
			C163.8,139.6,164.3,140.2,164.3,140.9z M162.1,141c0,0.5,0.3,0.8,0.8,0.8c0.5,0,0.8-0.4,0.8-0.9c0-0.4-0.2-0.9-0.8-0.9
			C162.4,140.1,162.1,140.5,162.1,141z"/>
		<path class="st1" d="M170.7,140v0.6l-2.9,6h-0.9l2.9-5.9v0h-3.2V140H170.7z"/>
		<path class="st1" d="M171.5,145.6c0.3,0.2,0.8,0.4,1.5,0.4c1.2,0,1.5-0.7,1.5-1.3c0-0.9-0.8-1.3-1.7-1.3h-0.5v-0.7h0.5
			c0.7,0,1.5-0.3,1.5-1.1c0-0.5-0.3-1-1.2-1c-0.5,0-1,0.2-1.3,0.4l-0.2-0.7c0.3-0.3,1-0.5,1.7-0.5c1.3,0,1.9,0.8,1.9,1.6
			c0,0.7-0.4,1.3-1.2,1.6v0c0.8,0.2,1.5,0.8,1.5,1.7c0,1.1-0.8,2-2.4,2c-0.7,0-1.4-0.2-1.7-0.4L171.5,145.6z"/>
		<path class="st1" d="M179,146.6v-1.8h-3.1v-0.6l3-4.2h1v4.1h0.9v0.7h-0.9v1.8H179z M179,144.1v-2.2c0-0.3,0-0.7,0-1h0
			c-0.2,0.4-0.4,0.7-0.6,1l-1.6,2.3v0H179z"/>
		<path class="st1" d="M180.6,147l2.8-7.4h0.7l-2.9,7.4H180.6z"/>
		<path class="st1" d="M184.2,146.6V146l0.7-0.7c1.7-1.6,2.5-2.5,2.5-3.5c0-0.7-0.3-1.3-1.3-1.3c-0.6,0-1.1,0.3-1.4,0.6l-0.3-0.6
			c0.5-0.4,1.1-0.7,1.9-0.7c1.4,0,2,1,2,1.9c0,1.2-0.9,2.2-2.3,3.6l-0.5,0.5v0h3v0.7H184.2z"/>
		<path class="st1" d="M193.5,143.2c0,2.3-0.8,3.5-2.3,3.5c-1.3,0-2.2-1.2-2.2-3.4c0-2.2,1-3.4,2.3-3.4
			C192.7,139.8,193.5,141.1,193.5,143.2z M189.9,143.3c0,1.7,0.5,2.7,1.3,2.7c0.9,0,1.4-1.1,1.4-2.8c0-1.6-0.4-2.7-1.3-2.7
			C190.5,140.5,189.9,141.5,189.9,143.3z"/>
		<path class="st1" d="M195.9,140.8L195.9,140.8l-1.2,0.6l-0.2-0.7l1.4-0.8h0.8v6.6h-0.9V140.8z"/>
		<path class="st1" d="M202.6,140.6c-0.2,0-0.4,0-0.7,0c-1.4,0.2-2.2,1.3-2.3,2.4h0c0.3-0.4,0.9-0.8,1.6-0.8c1.2,0,2,0.8,2,2.1
			c0,1.2-0.8,2.3-2.2,2.3c-1.4,0-2.3-1.1-2.3-2.8c0-1.3,0.5-2.3,1.1-3c0.6-0.5,1.3-0.9,2.1-1c0.3,0,0.5-0.1,0.7-0.1V140.6z
			 M202.4,144.4c0-0.9-0.5-1.5-1.4-1.5c-0.5,0-1,0.3-1.3,0.8c-0.1,0.1-0.1,0.2-0.1,0.4c0,1.1,0.5,1.9,1.5,1.9
			C201.8,146,202.4,145.4,202.4,144.4z"/>
	</g>
</g>
</svg>
