<?xml version="1.0" encoding="utf-8"?>
<!-- Generator: Adobe Illustrator 23.0.4, SVG Export Plug-In . SVG Version: 6.00 Build 0)  -->
<svg version="1.1" id="Layer_1" xmlns="https://www.w3.org/2000/svg" xmlns:xlink="https://www.w3.org/1999/xlink" x="0px" y="0px"
	 viewBox="0 0 628 165" style="enable-background:new 0 0 628 165;" xml:space="preserve">
<style type="text/css">
	.st0{fill:#F59120;}
	.st1{fill:#F7931E;}
	.st2{fill:#FFFFFF;}
</style>
<g>
	<path class="st0" d="M72.2-234.7v9.6H51v23.1H40.3v-23.1H19.1v-9.6h21.2v-23.1H51v23.1H72.2z"/>
	<path class="st0" d="M189.6-193.8v24.6h-73.8v-24.6h24.3v-43.6c-1,1.4-2.6,2.8-4.8,4.2c-2.2,1.4-4.6,2.7-7.3,3.9
		c-2.7,1.2-5.4,2.2-8.2,2.9c-2.8,0.7-5.3,1.1-7.4,1.1v-25.3c1.8,0,4.2-0.6,7.1-1.9c2.9-1.3,5.8-2.8,8.6-4.5c2.8-1.8,5.4-3.6,7.7-5.4
		c2.3-1.8,3.7-3.3,4.3-4.4h27.9v73H189.6z"/>
	<path class="st0" d="M195.1-169.2v-27.9h22.4v27.9H195.1z"/>
	<path class="st0" d="M269.8-244.1h-51.1V-269h94.2L253-147.7h-30.9L269.8-244.1z"/>
	<path class="st0" d="M398.9-219.3c0,7.5-1.1,14.4-3.4,20.8c-2.3,6.3-5.4,11.8-9.4,16.4c-4,4.6-8.7,8.2-14.1,10.8
		c-5.4,2.6-11.3,3.8-17.7,3.8c-6.4,0-12.3-1.3-17.8-3.8c-5.5-2.6-10.2-6.2-14.2-10.8c-4-4.6-7.1-10.1-9.3-16.4s-3.3-13.2-3.3-20.8
		c0-7.5,1.1-14.4,3.3-20.8c2.2-6.3,5.3-11.8,9.3-16.4c4-4.6,8.7-8.2,14.2-10.9c5.5-2.6,11.4-3.9,17.8-3.9c6.4,0,12.3,1.3,17.7,3.9
		c5.4,2.6,10.1,6.2,14.1,10.9c4,4.6,7.1,10.1,9.4,16.4C397.8-233.7,398.9-226.8,398.9-219.3z M371.4-219.3c0-8-1.6-14.4-4.8-19.4
		c-3.2-5-7.3-7.4-12.3-7.4c-5.2,0-9.4,2.5-12.6,7.4c-3.1,5-4.7,11.4-4.7,19.4c0,8,1.6,14.4,4.7,19.3c3.1,4.9,7.3,7.3,12.6,7.3
		c5,0,9.1-2.4,12.3-7.3C369.8-204.9,371.4-211.3,371.4-219.3z"/>
	<path class="st0" d="M496-219.3c0,7.5-1.1,14.4-3.4,20.8c-2.3,6.3-5.4,11.8-9.4,16.4c-4,4.6-8.7,8.2-14.1,10.8
		c-5.4,2.6-11.3,3.8-17.7,3.8c-6.4,0-12.3-1.3-17.8-3.8c-5.5-2.6-10.2-6.2-14.2-10.8c-4-4.6-7.1-10.1-9.3-16.4s-3.3-13.2-3.3-20.8
		c0-7.5,1.1-14.4,3.3-20.8c2.2-6.3,5.3-11.8,9.3-16.4c4-4.6,8.7-8.2,14.2-10.9c5.5-2.6,11.4-3.9,17.8-3.9c6.4,0,12.3,1.3,17.7,3.9
		c5.4,2.6,10.1,6.2,14.1,10.9c4,4.6,7.1,10.1,9.4,16.4C494.9-233.7,496-226.8,496-219.3z M468.5-219.3c0-8-1.6-14.4-4.8-19.4
		c-3.2-5-7.3-7.4-12.3-7.4c-5.2,0-9.4,2.5-12.6,7.4c-3.1,5-4.7,11.4-4.7,19.4c0,8,1.6,14.4,4.7,19.3c3.1,4.9,7.3,7.3,12.6,7.3
		c5,0,9.1-2.4,12.3-7.3C466.9-204.9,468.5-211.3,468.5-219.3z"/>
</g>
<g>
	<path class="st1" d="M84,104.4c-3.5,0-6.8-0.7-9.8-2.2c-3-1.5-5.6-3.4-7.7-5.8c-2.2-2.4-3.8-5.2-5-8.4c-1.2-3.2-1.8-6.5-1.8-9.9
		c0-3.6,0.6-7,1.8-10.2c1.2-3.2,2.8-6.1,4.8-8.5c2.1-2.4,4.5-4.3,7.3-5.7c2.8-1.4,6-2.1,9.3-2.1c4.3,0,8.1,1.1,11.5,3.4
		c3.3,2.3,5.9,5,7.8,8.2V31.9h6.7v62.8c0,1.8,0.8,2.7,2.3,2.7v5.9c-1,0.2-1.8,0.3-2.3,0.3c-1.6,0-2.9-0.5-4.1-1.5
		c-1.2-1-1.8-2.2-1.8-3.7v-5c-2,3.3-4.8,6-8.2,7.9C91.3,103.4,87.7,104.4,84,104.4z M85.5,98.5c1.6,0,3.4-0.3,5.2-1
		c1.9-0.7,3.6-1.5,5.2-2.7c1.6-1.1,3-2.5,4.2-4c1.1-1.5,1.8-3.2,2.1-4.9V70.1c-0.7-1.8-1.6-3.4-2.8-4.9c-1.2-1.5-2.7-2.9-4.3-4.1
		c-1.6-1.2-3.3-2.1-5.1-2.7c-1.8-0.7-3.6-1-5.4-1c-2.7,0-5.2,0.6-7.4,1.8c-2.2,1.2-4.1,2.7-5.7,4.7c-1.6,1.9-2.8,4.1-3.7,6.6
		c-0.8,2.5-1.3,5-1.3,7.6c0,2.7,0.5,5.4,1.5,7.8c1,2.5,2.3,4.7,4,6.5c1.7,1.9,3.7,3.3,6,4.5C80.3,98,82.8,98.5,85.5,98.5z"/>
	<path class="st1" d="M141.5,104.4c-3.7,0-7.1-0.7-10.2-2.1c-3.1-1.4-5.8-3.3-8.1-5.8c-2.3-2.4-4.1-5.3-5.3-8.5
		c-1.3-3.2-1.9-6.6-1.9-10.3c0-3.6,0.6-7,1.9-10.1c1.3-3.2,3-5.9,5.3-8.3c2.3-2.4,4.9-4.3,8.1-5.7c3.1-1.4,6.5-2.1,10.2-2.1
		c3.7,0,7.1,0.7,10.2,2.1c3.1,1.4,5.8,3.3,8,5.7c2.2,2.4,3.9,5.2,5.2,8.3c1.2,3.1,1.9,6.5,1.9,10c0,0.5,0,1,0,1.6
		c0,0.5,0,0.9-0.1,1.1h-43.7c0.2,2.7,0.8,5.3,1.9,7.6c1.1,2.3,2.5,4.3,4.2,6c1.7,1.7,3.6,3,5.8,4c2.2,0.9,4.5,1.4,7,1.4
		c1.6,0,3.3-0.2,4.9-0.7c1.6-0.5,3.1-1.1,4.5-1.9c1.4-0.8,2.6-1.7,3.7-2.9c1.1-1.1,2-2.4,2.5-3.8l5.8,1.6c-0.8,1.9-1.9,3.6-3.3,5.1
		c-1.4,1.5-3.1,2.9-5,4c-1.9,1.1-4,2-6.3,2.6C146.3,104.1,143.9,104.4,141.5,104.4z M160.3,75.2c-0.2-2.7-0.8-5.2-1.9-7.5
		c-1.1-2.3-2.4-4.2-4.1-5.8c-1.7-1.6-3.6-2.9-5.8-3.8c-2.2-0.9-4.5-1.4-7-1.4c-2.5,0-4.8,0.5-7,1.4c-2.2,0.9-4.2,2.2-5.8,3.8
		c-1.7,1.6-3,3.6-4,5.9c-1,2.3-1.6,4.8-1.8,7.4H160.3z"/>
	<path class="st1" d="M268.2,81.6v21.8h-65.4V81.6h21.5V43c-0.9,1.2-2.3,2.5-4.2,3.7c-1.9,1.3-4.1,2.4-6.4,3.5
		c-2.4,1.1-4.8,1.9-7.3,2.6c-2.5,0.7-4.7,1-6.6,1V31.3c1.6,0,3.7-0.6,6.3-1.7c2.6-1.1,5.1-2.4,7.6-4c2.5-1.6,4.8-3.2,6.8-4.8
		c2-1.6,3.3-2.9,3.8-3.9H249v64.7H268.2z"/>
	<path class="st1" d="M311.8,37.1h-45.3V15H350l-53,107.5h-27.4L311.8,37.1z"/>
	<path class="st1" d="M339.8,103.4V78.7h19.8v24.7H339.8z"/>
	<path class="st1" d="M446.9,59c0,6.7-1,12.8-3,18.4c-2,5.6-4.8,10.5-8.3,14.5c-3.5,4.1-7.7,7.3-12.5,9.5c-4.8,2.3-10,3.4-15.7,3.4
		c-5.7,0-10.9-1.1-15.8-3.4c-4.8-2.3-9-5.5-12.6-9.5c-3.5-4.1-6.3-8.9-8.3-14.5c-2-5.6-3-11.7-3-18.4c0-6.7,1-12.8,3-18.4
		c2-5.6,4.7-10.5,8.3-14.5c3.5-4.1,7.7-7.3,12.6-9.6c4.8-2.3,10.1-3.5,15.8-3.5c5.7,0,10.9,1.2,15.7,3.5c4.8,2.3,9,5.5,12.5,9.6
		c3.5,4.1,6.3,8.9,8.3,14.5C445.9,46.2,446.9,52.4,446.9,59z M422.5,59c0-7.1-1.4-12.8-4.2-17.2c-2.8-4.4-6.5-6.6-10.9-6.6
		c-4.6,0-8.4,2.2-11.1,6.6c-2.8,4.4-4.2,10.1-4.2,17.2c0,7.1,1.4,12.8,4.2,17.1c2.8,4.3,6.5,6.5,11.1,6.5c4.4,0,8.1-2.2,10.9-6.5
		C421.1,71.8,422.5,66.1,422.5,59z"/>
	<path class="st1" d="M533,59c0,6.7-1,12.8-3,18.4c-2,5.6-4.8,10.5-8.3,14.5c-3.5,4.1-7.7,7.3-12.5,9.5c-4.8,2.3-10,3.4-15.7,3.4
		c-5.7,0-10.9-1.1-15.8-3.4c-4.8-2.3-9-5.5-12.6-9.5c-3.5-4.1-6.3-8.9-8.3-14.5c-2-5.6-3-11.7-3-18.4c0-6.7,1-12.8,3-18.4
		c2-5.6,4.7-10.5,8.3-14.5c3.5-4.1,7.7-7.3,12.6-9.6c4.8-2.3,10.1-3.5,15.8-3.5c5.7,0,10.9,1.2,15.7,3.5c4.8,2.3,9,5.5,12.5,9.6
		c3.5,4.1,6.3,8.9,8.3,14.5C532,46.2,533,52.4,533,59z M508.6,59c0-7.1-1.4-12.8-4.2-17.2c-2.8-4.4-6.5-6.6-10.9-6.6
		c-4.6,0-8.4,2.2-11.1,6.6c-2.8,4.4-4.2,10.1-4.2,17.2c0,7.1,1.4,12.8,4.2,17.1c2.8,4.3,6.5,6.5,11.1,6.5c4.4,0,8.1-2.2,10.9-6.5
		C507.2,71.8,508.6,66.1,508.6,59z"/>
	<path class="st1" d="M619,59c0,6.7-1,12.8-3,18.4c-2,5.6-4.8,10.5-8.3,14.5c-3.5,4.1-7.7,7.3-12.5,9.5c-4.8,2.3-10,3.4-15.7,3.4
		c-5.7,0-10.9-1.1-15.8-3.4c-4.8-2.3-9-5.5-12.6-9.5c-3.5-4.1-6.3-8.9-8.3-14.5c-2-5.6-3-11.7-3-18.4c0-6.7,1-12.8,3-18.4
		c2-5.6,4.7-10.5,8.3-14.5c3.5-4.1,7.7-7.3,12.6-9.6c4.8-2.3,10.1-3.5,15.8-3.5c5.7,0,10.9,1.2,15.7,3.5c4.8,2.3,9,5.5,12.5,9.6
		c3.5,4.1,6.3,8.9,8.3,14.5C618,46.2,619,52.4,619,59z M594.6,59c0-7.1-1.4-12.8-4.2-17.2c-2.8-4.4-6.5-6.6-10.9-6.6
		c-4.6,0-8.4,2.2-11.1,6.6c-2.8,4.4-4.2,10.1-4.2,17.2c0,7.1,1.4,12.8,4.2,17.1c2.8,4.3,6.5,6.5,11.1,6.5c4.4,0,8.1-2.2,10.9-6.5
		C593.2,71.8,594.6,66.1,594.6,59z"/>
</g>
<g>
	<path class="st1" d="M40.8,72.6v5.5H28.6v13.2h-6.2V78.1H10.3v-5.5h12.1V59.4h6.2v13.2H40.8z"/>
</g>
<g>
	<path class="st2" d="M222,136.9v18.6h-4.3v-7.6h-7.4v7.6H206v-18.6h4.3v7.2h7.4v-7.2H222z"/>
	<path class="st2" d="M233.7,155.6c-1.4,0-2.6-0.3-3.8-0.8c-1.1-0.5-2.1-1.3-2.9-2.1s-1.4-1.9-1.9-3c-0.4-1.1-0.7-2.3-0.7-3.5
		c0-1.2,0.2-2.4,0.7-3.5c0.5-1.1,1.1-2.1,1.9-3c0.8-0.9,1.8-1.6,2.9-2.1c1.1-0.5,2.4-0.8,3.7-0.8c1.4,0,2.6,0.3,3.8,0.8
		c1.1,0.5,2.1,1.3,2.9,2.1s1.4,1.9,1.9,3c0.4,1.1,0.7,2.3,0.7,3.5c0,1.2-0.2,2.4-0.7,3.5c-0.5,1.1-1.1,2.1-1.9,3
		c-0.8,0.9-1.8,1.6-2.9,2.1C236.3,155.4,235,155.6,233.7,155.6z M228.8,146.2c0,0.7,0.1,1.4,0.3,2.1c0.2,0.7,0.5,1.3,0.9,1.8
		c0.4,0.5,0.9,0.9,1.5,1.3c0.6,0.3,1.3,0.5,2.1,0.5c0.8,0,1.5-0.2,2.1-0.5c0.6-0.3,1.1-0.8,1.5-1.3c0.4-0.5,0.7-1.1,0.9-1.8
		c0.2-0.7,0.3-1.4,0.3-2.1c0-0.7-0.1-1.4-0.3-2.1c-0.2-0.7-0.5-1.3-0.9-1.8c-0.4-0.5-0.9-0.9-1.5-1.2s-1.3-0.5-2.1-0.5
		c-0.8,0-1.5,0.2-2.1,0.5c-0.6,0.3-1.1,0.7-1.5,1.3c-0.4,0.5-0.7,1.1-0.9,1.8C228.9,144.8,228.8,145.5,228.8,146.2z"/>
	<path class="st2" d="M245.5,155.5v-18.6h8.4c0.9,0,1.7,0.2,2.4,0.5c0.7,0.4,1.4,0.8,1.9,1.4c0.5,0.6,1,1.3,1.3,2s0.5,1.5,0.5,2.3
		c0,0.6-0.1,1.1-0.2,1.7c-0.1,0.5-0.3,1-0.6,1.5c-0.3,0.5-0.6,0.9-1,1.3c-0.4,0.4-0.8,0.7-1.3,1l4.1,6.9h-4.8l-3.6-6h-2.8v6H245.5z
		 M249.8,145.7h3.9c0.5,0,0.9-0.2,1.3-0.7s0.5-1.1,0.5-1.8c0-0.8-0.2-1.4-0.6-1.8c-0.4-0.5-0.9-0.7-1.4-0.7h-3.8V145.7z"/>
	<path class="st2" d="M267.8,136.9h3.9l6.8,18.6H274l-1.4-4.2h-5.8l-1.4,4.2H261L267.8,136.9z M271.9,148.3l-2.2-6.6l-2.2,6.6H271.9
		z"/>
	<path class="st2" d="M291.2,142.3c-0.1-0.1-0.2-0.2-0.5-0.4s-0.7-0.4-1.2-0.6c-0.5-0.2-1-0.4-1.5-0.6c-0.6-0.2-1.1-0.2-1.7-0.2
		c-1.5,0-2.3,0.5-2.3,1.5c0,0.3,0.1,0.6,0.2,0.8c0.2,0.2,0.4,0.4,0.7,0.6c0.3,0.2,0.7,0.3,1.2,0.5c0.5,0.1,1.1,0.3,1.7,0.5
		c0.9,0.2,1.7,0.5,2.4,0.8c0.7,0.3,1.3,0.6,1.8,1.1c0.5,0.4,0.9,0.9,1.2,1.6c0.3,0.6,0.4,1.3,0.4,2.2c0,1-0.2,1.9-0.6,2.7
		c-0.4,0.7-0.9,1.3-1.6,1.8c-0.6,0.4-1.4,0.8-2.2,1c-0.8,0.2-1.7,0.3-2.6,0.3c-0.7,0-1.4-0.1-2.1-0.2c-0.7-0.1-1.4-0.3-2.1-0.5
		c-0.7-0.2-1.3-0.4-2-0.7c-0.6-0.3-1.2-0.6-1.8-1l1.9-3.7c0.1,0.1,0.3,0.3,0.7,0.5c0.4,0.2,0.9,0.5,1.4,0.7c0.6,0.2,1.2,0.5,1.9,0.7
		s1.4,0.3,2.1,0.3c1.5,0,2.3-0.5,2.3-1.4c0-0.3-0.1-0.6-0.3-0.9c-0.2-0.2-0.5-0.4-0.9-0.6c-0.4-0.2-0.9-0.4-1.4-0.5
		c-0.5-0.2-1.1-0.3-1.8-0.5c-0.9-0.3-1.6-0.5-2.2-0.9s-1.1-0.7-1.6-1.1c-0.4-0.4-0.7-0.9-0.9-1.4c-0.2-0.5-0.3-1.1-0.3-1.8
		c0-1,0.2-1.8,0.5-2.6c0.4-0.8,0.9-1.4,1.5-1.9c0.6-0.5,1.4-0.9,2.2-1.2c0.8-0.3,1.7-0.4,2.6-0.4c0.6,0,1.3,0.1,1.9,0.2
		s1.2,0.3,1.8,0.5c0.6,0.2,1.1,0.4,1.6,0.7c0.5,0.2,1,0.5,1.4,0.7L291.2,142.3z"/>
	<path class="st2" d="M295.7,150.1v-3.8h8.1v3.8H295.7z"/>
	<path class="st2" d="M311.7,136.9h3.9l6.8,18.6h-4.4l-1.4-4.2h-5.8l-1.4,4.2h-4.4L311.7,136.9z M315.8,148.3l-2.2-6.6l-2.2,6.6
		H315.8z"/>
	<path class="st2" d="M331.3,151.8c0.7,0,1.4-0.2,1.9-0.5c0.5-0.3,0.9-0.7,1.2-1.2s0.5-1.1,0.7-1.7s0.2-1.3,0.2-2v-9.5h4.3v9.5
		c0,1.3-0.2,2.5-0.5,3.6c-0.3,1.1-0.8,2.1-1.5,2.9c-0.7,0.8-1.5,1.5-2.6,2s-2.3,0.7-3.7,0.7c-1.5,0-2.8-0.3-3.8-0.8s-1.9-1.2-2.6-2
		c-0.7-0.8-1.1-1.8-1.4-2.9c-0.3-1.1-0.5-2.3-0.5-3.5v-9.5h4.3v9.5c0,0.7,0.1,1.4,0.2,2c0.1,0.6,0.4,1.2,0.7,1.7s0.7,0.9,1.2,1.2
		C330,151.6,330.6,151.8,331.3,151.8z"/>
	<path class="st2" d="M342.9,155.5v-18.6h4.3v14.8h9v3.8H342.9z"/>
	<path class="st2" d="M363.3,136.9h3.9l6.8,18.6h-4.4l-1.4-4.2h-5.8l-1.4,4.2h-4.4L363.3,136.9z M367.4,148.3l-2.2-6.6l-2.2,6.6
		H367.4z"/>
	<path class="st2" d="M395.8,155.5v-11.1l-4,8.1h-2.3l-4-8.1v11.1h-4.3v-18.6h4.7l4.8,9.7l4.8-9.7h4.6v18.6H395.8z"/>
	<path class="st2" d="M403.6,155.5v-18.6h4.3v18.6H403.6z"/>
	<path class="st2" d="M415.8,144.8v10.6h-4.3v-18.6h3.4l8.7,10.9v-10.9h4.3v18.6h-3.5L415.8,144.8z"/>
	<path class="st2" d="M431.4,155.5v-18.6h4.3v18.6H431.4z"/>
	<path class="st2" d="M450.4,142.3c-0.1-0.1-0.2-0.2-0.5-0.4s-0.7-0.4-1.2-0.6c-0.5-0.2-1-0.4-1.5-0.6c-0.6-0.2-1.1-0.2-1.7-0.2
		c-1.5,0-2.3,0.5-2.3,1.5c0,0.3,0.1,0.6,0.2,0.8c0.2,0.2,0.4,0.4,0.7,0.6c0.3,0.2,0.7,0.3,1.2,0.5s1.1,0.3,1.7,0.5
		c0.9,0.2,1.7,0.5,2.4,0.8c0.7,0.3,1.3,0.6,1.8,1.1s0.9,0.9,1.2,1.6c0.3,0.6,0.4,1.3,0.4,2.2c0,1-0.2,1.9-0.6,2.7
		c-0.4,0.7-0.9,1.3-1.6,1.8c-0.6,0.4-1.4,0.8-2.2,1c-0.8,0.2-1.7,0.3-2.6,0.3c-0.7,0-1.4-0.1-2.1-0.2c-0.7-0.1-1.4-0.3-2.1-0.5
		c-0.7-0.2-1.3-0.4-2-0.7c-0.6-0.3-1.2-0.6-1.8-1l1.9-3.7c0.1,0.1,0.3,0.3,0.7,0.5c0.4,0.2,0.9,0.5,1.4,0.7c0.6,0.2,1.2,0.5,1.9,0.7
		s1.4,0.3,2.1,0.3c1.5,0,2.3-0.5,2.3-1.4c0-0.3-0.1-0.6-0.3-0.9c-0.2-0.2-0.5-0.4-0.9-0.6c-0.4-0.2-0.9-0.4-1.4-0.5
		c-0.6-0.2-1.1-0.3-1.8-0.5c-0.9-0.3-1.6-0.5-2.2-0.9c-0.6-0.3-1.1-0.7-1.6-1.1c-0.4-0.4-0.7-0.9-0.9-1.4c-0.2-0.5-0.3-1.1-0.3-1.8
		c0-1,0.2-1.8,0.5-2.6c0.4-0.8,0.9-1.4,1.5-1.9c0.6-0.5,1.4-0.9,2.2-1.2c0.8-0.3,1.7-0.4,2.6-0.4c0.6,0,1.3,0.1,1.9,0.2
		s1.2,0.3,1.8,0.5c0.6,0.2,1.1,0.4,1.6,0.7c0.5,0.2,1,0.5,1.4,0.7L450.4,142.3z"/>
	<path class="st2" d="M469.4,140.6h-5.7v14.8h-4.3v-14.8h-5.7v-3.8h15.6V140.6z"/>
	<path class="st2" d="M471.5,155.5v-18.6h8.4c0.9,0,1.7,0.2,2.4,0.5c0.7,0.4,1.4,0.8,1.9,1.4c0.5,0.6,1,1.3,1.3,2s0.5,1.5,0.5,2.3
		c0,0.6-0.1,1.1-0.2,1.7c-0.1,0.5-0.3,1-0.6,1.5s-0.6,0.9-1,1.3c-0.4,0.4-0.8,0.7-1.3,1l4.1,6.9h-4.8l-3.6-6h-2.8v6H471.5z
		 M475.8,145.7h3.9c0.5,0,0.9-0.2,1.3-0.7c0.4-0.5,0.5-1.1,0.5-1.8c0-0.8-0.2-1.4-0.6-1.8c-0.4-0.5-0.9-0.7-1.4-0.7h-3.8V145.7z"/>
	<path class="st2" d="M493.8,136.9h3.9l6.8,18.6h-4.4l-1.4-4.2h-5.8l-1.4,4.2H487L493.8,136.9z M497.9,148.3l-2.2-6.6l-2.2,6.6
		H497.9z"/>
	<path class="st2" d="M506.3,155.5v-18.6h6.9c1.5,0,2.9,0.2,4,0.7c1.2,0.5,2.1,1.2,2.9,2c0.8,0.8,1.4,1.8,1.8,2.9
		c0.4,1.1,0.6,2.3,0.6,3.6c0,1.4-0.2,2.7-0.7,3.8c-0.4,1.1-1.1,2.1-1.9,2.9c-0.8,0.8-1.8,1.4-2.9,1.9c-1.1,0.4-2.4,0.7-3.8,0.7
		H506.3z M518.1,146.1c0-0.8-0.1-1.6-0.3-2.2c-0.2-0.7-0.5-1.3-1-1.7c-0.4-0.5-0.9-0.9-1.5-1.1c-0.6-0.3-1.3-0.4-2.1-0.4h-2.6v11.1
		h2.6c0.8,0,1.5-0.1,2.1-0.4c0.6-0.3,1.1-0.7,1.5-1.2c0.4-0.5,0.7-1.1,0.9-1.8C518,147.7,518.1,146.9,518.1,146.1z"/>
	<path class="st2" d="M529.5,136.9h3.9l6.8,18.6h-4.4l-1.4-4.2h-5.8l-1.4,4.2h-4.4L529.5,136.9z M533.6,148.3l-2.2-6.6l-2.2,6.6
		H533.6z"/>
	<path class="st2" d="M552.8,142.3c-0.1-0.1-0.2-0.2-0.5-0.4s-0.7-0.4-1.2-0.6c-0.5-0.2-1-0.4-1.5-0.6c-0.6-0.2-1.1-0.2-1.7-0.2
		c-1.5,0-2.3,0.5-2.3,1.5c0,0.3,0.1,0.6,0.2,0.8c0.2,0.2,0.4,0.4,0.7,0.6c0.3,0.2,0.7,0.3,1.2,0.5s1.1,0.3,1.7,0.5
		c0.9,0.2,1.7,0.5,2.4,0.8c0.7,0.3,1.3,0.6,1.8,1.1s0.9,0.9,1.2,1.6c0.3,0.6,0.4,1.3,0.4,2.2c0,1-0.2,1.9-0.6,2.7
		c-0.4,0.7-0.9,1.3-1.6,1.8c-0.6,0.4-1.4,0.8-2.2,1c-0.8,0.2-1.7,0.3-2.6,0.3c-0.7,0-1.4-0.1-2.1-0.2c-0.7-0.1-1.4-0.3-2.1-0.5
		c-0.7-0.2-1.3-0.4-2-0.7c-0.6-0.3-1.2-0.6-1.8-1l1.9-3.7c0.1,0.1,0.3,0.3,0.7,0.5c0.4,0.2,0.9,0.5,1.4,0.7c0.6,0.2,1.2,0.5,1.9,0.7
		s1.4,0.3,2.1,0.3c1.5,0,2.3-0.5,2.3-1.4c0-0.3-0.1-0.6-0.3-0.9c-0.2-0.2-0.5-0.4-0.9-0.6c-0.4-0.2-0.9-0.4-1.4-0.5
		c-0.6-0.2-1.1-0.3-1.8-0.5c-0.9-0.3-1.6-0.5-2.2-0.9c-0.6-0.3-1.1-0.7-1.6-1.1c-0.4-0.4-0.7-0.9-0.9-1.4c-0.2-0.5-0.3-1.1-0.3-1.8
		c0-1,0.2-1.8,0.5-2.6c0.4-0.8,0.9-1.4,1.5-1.9c0.6-0.5,1.4-0.9,2.2-1.2c0.8-0.3,1.7-0.4,2.6-0.4c0.6,0,1.3,0.1,1.9,0.2
		s1.2,0.3,1.8,0.5c0.6,0.2,1.1,0.4,1.6,0.7c0.5,0.2,1,0.5,1.4,0.7L552.8,142.3z"/>
</g>
</svg>
