<?xml version="1.0" encoding="utf-8"?>
<!-- Generator: Adobe Illustrator 23.0.4, SVG Export Plug-In . SVG Version: 6.00 Build 0)  -->
<svg version="1.1" id="Layer_1" xmlns="https://www.w3.org/2000/svg" xmlns:xlink="https://www.w3.org/1999/xlink" x="0px" y="0px"
	 viewBox="0 0 858.4 336" style="enable-background:new 0 0 858.4 336;" xml:space="preserve">
<style type="text/css">
	.st0{fill:#FFFFFF;}
</style>
<g>
	<path class="st0" d="M1213.6-447v12.6h-28v30.5h-14.2v-30.4h-28V-447h28v-30.5h14.2v30.5H1213.6z"/>
	<path class="st0" d="M1368.7-393v32.5h-97.5V-393h32v-57.6c-1.4,1.8-3.5,3.6-6.3,5.5c-2.9,1.9-6.1,3.6-9.6,5.2
		c-3.5,1.6-7.1,2.9-10.8,3.8c-3.7,1-7,1.5-9.8,1.5V-468c2.4,0,5.5-0.8,9.4-2.5c3.8-1.7,7.6-3.6,11.4-6c3.8-2.3,7.1-4.7,10.2-7.1
		c3-2.4,4.9-4.4,5.6-5.9h36.8v96.4h28.6V-393z"/>
	<path class="st0" d="M1375.9-360.5v-36.8h29.6v36.8H1375.9z"/>
	<path class="st0" d="M1473.6-433.2c7.7,0,14.7,1.3,21.2,3.8c6.5,2.6,12.1,6.1,16.8,10.6c4.7,4.5,8.4,9.9,11.1,16.2
		c2.6,6.3,3.9,13.3,3.9,21c0,8.1-1.5,15.5-4.5,22.2c-3,6.7-7.2,12.4-12.5,17.3c-5.3,4.8-11.7,8.5-19.1,11.2
		c-7.4,2.6-15.5,3.9-24.4,3.9c-11.7,0-22.3-2.3-31.6-7c-9.3-4.7-16.4-11.2-21.2-19.6l20.1-22.3c4.4,5.3,9.4,9.5,15.2,12.6
		c5.8,3.2,11.7,4.7,17.7,4.7c7.1,0,12.7-2,16.9-6.1c4.2-4.1,6.3-9.5,6.3-16.2c0-6.5-2-11.7-5.9-15.6c-3.9-3.9-9-5.9-15.3-5.9
		c-4.1,0-7.8,0.9-11.3,2.7c-3.5,1.8-6.2,4.4-8.4,7.7h-31.4c0-0.1,0.3-1.7,0.9-4.6c0.6-2.9,1.3-6.7,2.1-11.4
		c0.8-4.7,1.8-9.9,2.9-15.7c1.1-5.8,2.3-11.7,3.5-17.7c2.7-14.1,5.8-30.2,9.3-48.1h79.7v33h-53.5l-4.5,27.3c0.9-1.1,2.7-2,5.3-2.8
		C1465.7-432.9,1469.2-433.2,1473.6-433.2z"/>
	<path class="st0" d="M1651-426.8c0,9.9-1.5,19.1-4.5,27.4c-3,8.4-7.1,15.6-12.4,21.7c-5.3,6.1-11.5,10.8-18.6,14.2
		s-14.9,5.1-23.4,5.1c-8.4,0-16.2-1.7-23.5-5.1c-7.2-3.4-13.5-8.1-18.7-14.2c-5.3-6.1-9.4-13.3-12.3-21.7
		c-2.9-8.3-4.4-17.4-4.4-27.4c0-9.9,1.5-19.1,4.4-27.4c2.9-8.4,7-15.6,12.3-21.7c5.3-6.1,11.5-10.9,18.7-14.3
		c7.2-3.5,15-5.2,23.5-5.2c8.4,0,16.2,1.7,23.4,5.2c7.1,3.5,13.4,8.2,18.6,14.3c5.3,6.1,9.4,13.3,12.4,21.7S1651-436.6,1651-426.8z
		 M1614.7-426.8c0-10.5-2.1-19.1-6.3-25.6c-4.2-6.5-9.6-9.8-16.3-9.8c-6.9,0-12.5,3.3-16.6,9.8s-6.2,15.1-6.2,25.6s2.1,19,6.2,25.5
		s9.7,9.7,16.6,9.7c6.6,0,12-3.2,16.3-9.7C1612.6-407.6,1614.7-416.1,1614.7-426.8z"/>
	<path class="st0" d="M1779.2-426.8c0,9.9-1.5,19.1-4.5,27.4c-3,8.4-7.1,15.6-12.4,21.7c-5.3,6.1-11.5,10.8-18.6,14.2
		s-14.9,5.1-23.4,5.1c-8.4,0-16.2-1.7-23.5-5.1c-7.2-3.4-13.5-8.1-18.7-14.2c-5.3-6.1-9.4-13.3-12.3-21.7
		c-2.9-8.4-4.4-17.5-4.4-27.4c0-9.9,1.5-19.1,4.4-27.4c2.9-8.4,7-15.6,12.3-21.7c5.3-6.1,11.5-10.9,18.7-14.3
		c7.2-3.5,15-5.2,23.5-5.2c8.4,0,16.2,1.7,23.4,5.2c7.1,3.5,13.4,8.2,18.6,14.3c5.3,6.1,9.4,13.3,12.4,21.7
		S1779.2-436.6,1779.2-426.8z M1742.9-426.8c0-10.5-2.1-19.1-6.3-25.6c-4.2-6.5-9.6-9.8-16.3-9.8c-6.9,0-12.5,3.3-16.6,9.8
		s-6.2,15.1-6.2,25.6s2.1,19,6.2,25.5c4.1,6.5,9.7,9.7,16.6,9.7c6.6,0,12-3.2,16.3-9.7C1740.8-407.6,1742.9-416.1,1742.9-426.8z"/>
</g>
<g>
	<path class="st0" d="M327.3,241.2c0-1.6,0.3-3.2,0.9-4.9c0.6-1.6,1.5-3,2.7-4.3c1.1-1.3,2.6-2.3,4.3-3c1.6-0.8,3.6-1.2,5.6-1.2
		c2.5,0,4.7,0.5,6.6,1.6c1.8,1.1,3.2,2.5,4.2,4.3l-4.8,3.3c-0.3-0.7-0.7-1.3-1.1-1.7c-0.4-0.4-1-0.9-1.6-1.1
		c-0.5-0.3-1.1-0.5-1.7-0.6c-0.6-0.1-1.1-0.2-1.7-0.2c-1.2,0-2.3,0.3-3.1,0.7c-0.9,0.5-1.6,1.1-2.2,1.8c-0.6,0.8-1,1.6-1.3,2.6
		c-0.3,1-0.4,1.9-0.4,3s0.2,2.1,0.5,3c0.3,1,0.8,1.8,1.4,2.6c0.6,0.8,1.4,1.4,2.3,1.8s1.8,0.7,3,0.7c0.5,0,1.1-0.1,1.7-0.2
		c0.6-0.2,1.1-0.3,1.7-0.6c0.5-0.3,1-0.7,1.5-1.1c0.4-0.4,0.8-1,1.1-1.7l5,3c-0.4,1-1,1.9-1.8,2.7s-1.7,1.5-2.8,2
		c-1,0.5-2.2,1-3.3,1.2c-1.1,0.3-2.3,0.4-3.4,0.4c-1.9,0-3.7-0.4-5.4-1.2c-1.6-0.8-3-1.8-4.2-3.1c-1.1-1.3-2.1-2.8-2.7-4.4
		C327.6,244.6,327.3,242.9,327.3,241.2z"/>
	<path class="st0" d="M361.8,228h5.6l9.8,26.9h-6.3l-2.1-6h-8.3l-2.1,6h-6.3L361.8,228z M367.7,244.5l-3.1-9.5l-3.2,9.5H367.7z"/>
	<path class="st0" d="M379.9,254.9V228h11.5c1.3,0,2.4,0.3,3.6,0.8c1,0.5,2,1.2,2.8,2.1c0.8,0.9,1.4,1.8,1.8,3
		c0.4,1.1,0.7,2.2,0.7,3.3c0,1.2-0.2,2.3-0.6,3.4c-0.4,1.1-1,2.1-1.7,3c-0.8,0.9-1.6,1.6-2.7,2.1c-1,0.5-2.3,0.8-3.6,0.8h-5.5v8.7
		L379.9,254.9L379.9,254.9z M386,240.8h5c0.7,0,1.4-0.3,1.9-1c0.5-0.6,0.8-1.6,0.8-2.8c0-0.6-0.1-1.2-0.3-1.6s-0.3-0.9-0.7-1.1
		c-0.3-0.3-0.6-0.5-1-0.7c-0.3-0.2-0.7-0.2-1-0.2h-4.9L386,240.8L386,240.8z"/>
	<path class="st0" d="M409,228h5.6l9.8,26.9h-6.3l-2.1-6h-8.3l-2.1,6h-6.3L409,228z M415,244.5l-3.1-9.5l-3.2,9.5H415z"/>
	<path class="st0" d="M424.6,241.2c0-1.6,0.3-3.2,0.9-4.9c0.6-1.6,1.5-3,2.7-4.3c1.1-1.3,2.6-2.3,4.3-3c1.6-0.8,3.6-1.2,5.6-1.2
		c2.5,0,4.7,0.5,6.6,1.6c1.8,1.1,3.2,2.5,4.2,4.3l-4.8,3.3c-0.3-0.7-0.7-1.3-1.1-1.7c-0.4-0.4-1-0.9-1.6-1.1
		c-0.5-0.3-1.1-0.5-1.7-0.6c-0.6-0.1-1.1-0.2-1.7-0.2c-1.2,0-2.3,0.3-3.1,0.7c-0.9,0.5-1.6,1.1-2.2,1.8c-0.6,0.8-1,1.6-1.3,2.6
		c-0.3,1-0.4,1.9-0.4,3s0.2,2.1,0.5,3c0.3,1,0.8,1.8,1.4,2.6s1.4,1.4,2.3,1.8c0.9,0.4,1.8,0.7,3,0.7c0.5,0,1.1-0.1,1.7-0.2
		c0.6-0.2,1.1-0.3,1.7-0.6c0.5-0.3,1-0.7,1.5-1.1c0.4-0.4,0.8-1,1.1-1.7l5,3c-0.4,1-1,1.9-1.8,2.7c-0.8,0.8-1.7,1.5-2.8,2
		c-1,0.5-2.2,1-3.3,1.2c-1.1,0.3-2.3,0.4-3.4,0.4c-1.9,0-3.7-0.4-5.4-1.2s-3-1.8-4.2-3.1c-1.2-1.3-2.1-2.8-2.7-4.4
		C424.9,244.6,424.6,242.9,424.6,241.2z"/>
	<path class="st0" d="M452.2,254.9V228h6.3v26.9H452.2z"/>
	<path class="st0" d="M484.1,233.4h-8.2v21.4h-6.3v-21.4h-8.2V228H484L484.1,233.4L484.1,233.4z"/>
	<path class="st0" d="M491.8,228h5.6l9.8,26.9h-6.3l-2.1-6h-8.3l-2.1,6h-6.3L491.8,228z M497.7,244.5l-3.1-9.5l-3.2,9.5H497.7z"/>
	<path class="st0" d="M516.9,259.6c0.3,0.2,0.8,0.3,1.4,0.5c0.7,0.2,1.3,0.3,2,0.3c0.6,0,1.1-0.1,1.5-0.3c0.4-0.2,0.6-0.5,0.6-1
		c0-0.4-0.2-0.8-0.6-1c-0.3-0.2-0.9-0.3-1.5-0.3c-0.5,0-1.1,0.1-1.6,0.2c-0.6,0.1-1,0.2-1.3,0.3l1.6-3.4c-1.7-0.2-3.4-0.7-4.9-1.6
		c-1.5-0.9-2.7-1.9-3.7-3.2c-1-1.3-1.8-2.7-2.4-4.3c-0.6-1.6-0.9-3.2-0.9-4.8c0-1.6,0.3-3.2,0.9-4.9c0.6-1.6,1.5-3,2.7-4.3
		c1.1-1.3,2.6-2.3,4.3-3c1.6-0.8,3.6-1.2,5.6-1.2c2.5,0,4.7,0.5,6.6,1.6c1.8,1.1,3.2,2.5,4.2,4.3l-4.8,3.3c-0.3-0.7-0.7-1.3-1.1-1.7
		c-0.4-0.4-1-0.9-1.6-1.1c-0.5-0.3-1.1-0.5-1.7-0.6s-1.1-0.2-1.7-0.2c-1.2,0-2.3,0.3-3.1,0.7c-0.9,0.5-1.6,1.1-2.2,1.8
		c-0.6,0.8-1,1.6-1.3,2.6c-0.3,1-0.4,1.9-0.4,3s0.2,2.1,0.5,3c0.3,1,0.8,1.8,1.4,2.6c0.6,0.8,1.4,1.4,2.3,1.8c0.9,0.4,1.8,0.7,3,0.7
		c0.5,0,1.1-0.1,1.7-0.2c0.6-0.2,1.1-0.3,1.7-0.6c0.5-0.3,1-0.7,1.5-1.1c0.4-0.4,0.8-1,1.1-1.7l5,3c-0.3,0.9-1,1.7-1.6,2.4
		c-0.7,0.7-1.6,1.4-2.4,1.9c-0.9,0.5-1.9,1-3,1.3c-1,0.3-2.1,0.5-3.1,0.6l-0.9,1.2c0.3-0.1,0.7-0.1,1.1-0.1c0.9,0,1.7,0.3,2.3,0.7
		c0.7,0.4,1,1.1,1,2.2s-0.4,1.8-1.3,2.5c-0.9,0.7-2.2,1-4,1c-0.9,0-1.6-0.1-2.3-0.3c-0.7-0.2-1.3-0.3-1.8-0.5L516.9,259.6z"/>
	<path class="st0" d="M546.4,255.1c-2,0-3.8-0.4-5.5-1.2c-1.6-0.8-3-1.8-4.2-3.1c-1.1-1.3-2.1-2.7-2.7-4.3c-0.6-1.6-1-3.3-1-5
		c0-1.7,0.3-3.5,1-5.1c0.7-1.6,1.6-3.1,2.8-4.3s2.6-2.3,4.3-3c1.6-0.8,3.5-1.1,5.4-1.1c2,0,3.8,0.4,5.5,1.2c1.6,0.8,3,1.8,4.2,3.1
		c1.1,1.3,2.1,2.8,2.7,4.4c0.6,1.6,1,3.3,1,5s-0.3,3.5-1,5.1c-0.7,1.6-1.6,3.1-2.8,4.3c-1.2,1.2-2.6,2.3-4.3,3
		C550.1,254.7,548.3,255.1,546.4,255.1z M549,225.6c-0.6,0-1.1-0.1-1.6-0.3c-0.4-0.2-0.9-0.3-1.2-0.6c-0.3-0.3-0.8-0.4-1.1-0.6
		c-0.3-0.2-0.8-0.3-1.2-0.3c-0.4,0-0.8,0.1-1,0.3c-0.3,0.2-0.4,0.3-0.5,0.6c-0.1,0.3-0.2,0.4-0.3,0.6c0,0.2,0,0.3,0,0.3h-3.3
		c0-0.3,0.1-0.7,0.3-1.3s0.4-1.2,0.8-1.8c0.3-0.6,0.9-1.1,1.5-1.6s1.4-0.7,2.3-0.7c0.6,0,1.1,0.1,1.6,0.3c0.4,0.2,0.9,0.4,1.2,0.6
		c0.3,0.3,0.7,0.4,1,0.6c0.3,0.2,0.8,0.3,1.2,0.3c0.4,0,0.8-0.1,1-0.3c0.3-0.2,0.4-0.4,0.6-0.6c0.2-0.3,0.3-0.4,0.3-0.6
		c0-0.2,0.1-0.3,0.1-0.3h3.3c0,0.2-0.1,0.6-0.3,1.2s-0.4,1.2-0.9,1.8c-0.4,0.6-0.9,1.2-1.6,1.6C550.7,225.4,550,225.6,549,225.6z
		 M539.4,241.5c0,1,0.2,2,0.4,3c0.3,1,0.8,1.8,1.3,2.6c0.6,0.8,1.3,1.4,2.3,1.8c0.9,0.4,1.9,0.7,3,0.7c1.2,0,2.3-0.3,3.1-0.7
		c0.9-0.5,1.6-1.1,2.2-1.9c0.6-0.8,1-1.6,1.3-2.6c0.3-1,0.4-2,0.4-3c0-1-0.2-2-0.4-3c-0.3-1-0.8-1.8-1.4-2.6s-1.3-1.3-2.3-1.7
		c-0.9-0.4-1.9-0.7-3-0.7c-1.2,0-2.3,0.3-3.1,0.7c-0.9,0.4-1.6,1-2.2,1.8c-0.6,0.8-1,1.6-1.3,2.6
		C539.5,239.4,539.4,240.5,539.4,241.5z"/>
	<path class="st0" d="M582.3,249.4v5.5h-18.9V228h18.6v5.5h-12.3v5.2h10.6v5h-10.6v5.7H582.3z"/>
	<path class="st0" d="M601.6,235.9c-0.1-0.1-0.3-0.3-0.8-0.6c-0.4-0.3-1-0.6-1.7-0.9c-0.7-0.3-1.4-0.6-2.3-0.8
		c-0.9-0.2-1.6-0.3-2.4-0.3c-2.3,0-3.3,0.8-3.3,2.3c0,0.4,0.1,0.9,0.3,1.1c0.3,0.3,0.6,0.6,1,0.8c0.4,0.2,1,0.4,1.7,0.7
		c0.7,0.2,1.6,0.4,2.4,0.7c1.3,0.3,2.4,0.8,3.5,1.1c1,0.4,1.9,1,2.6,1.6s1.3,1.4,1.6,2.3c0.4,0.9,0.6,1.9,0.6,3.2
		c0,1.5-0.3,2.8-0.9,3.8s-1.3,1.9-2.3,2.5c-1,0.6-2,1.1-3.2,1.4c-1.2,0.3-2.4,0.4-3.7,0.4c-1,0-2-0.1-3-0.3c-1-0.2-2.1-0.3-3-0.7
		c-1-0.3-1.9-0.6-2.9-1c-1-0.4-1.7-0.9-2.5-1.4l2.7-5.4c0.1,0.1,0.4,0.3,1,0.7c0.5,0.3,1.2,0.7,2.1,1c0.8,0.3,1.7,0.7,2.8,1
		c1,0.3,2,0.4,3,0.4c2.2,0,3.3-0.7,3.3-2c0-0.5-0.2-1-0.5-1.2s-0.8-0.6-1.4-0.9c-0.6-0.3-1.3-0.5-2.1-0.8s-1.6-0.5-2.6-0.8
		c-1.2-0.3-2.3-0.8-3.2-1.2c-0.9-0.4-1.6-1-2.3-1.6c-0.6-0.6-1-1.2-1.3-2c-0.3-0.8-0.4-1.6-0.4-2.7c0-1.4,0.3-2.7,0.8-3.7
		s1.2-2,2.2-2.8c0.9-0.8,2-1.3,3.1-1.6c1.2-0.3,2.4-0.6,3.8-0.6c1,0,1.8,0.1,2.8,0.3c0.9,0.2,1.8,0.4,2.6,0.7c0.9,0.3,1.6,0.6,2.3,1
		c0.7,0.3,1.4,0.7,2,1L601.6,235.9z"/>
	<path class="st0" d="M349.3,278.9h-8.2v21.4h-6.3v-21.4h-8.2v-5.5h22.6L349.3,278.9L349.3,278.9z"/>
	<path class="st0" d="M371.2,294.9v5.5h-18.9v-26.9h18.6v5.5h-12.3v5.2h10.6v5h-10.6v5.7L371.2,294.9L371.2,294.9z M363.6,271.6
		l-3.9-1l2-4.9h5.5L363.6,271.6z"/>
	<path class="st0" d="M372.9,286.7c0-1.6,0.3-3.2,0.9-4.9c0.6-1.6,1.5-3,2.7-4.3c1.2-1.3,2.6-2.3,4.3-3c1.6-0.8,3.6-1.2,5.6-1.2
		c2.5,0,4.7,0.5,6.6,1.6c1.8,1.1,3.2,2.5,4.2,4.3l-4.8,3.3c-0.3-0.7-0.7-1.3-1.1-1.7c-0.4-0.4-1-0.9-1.6-1.1
		c-0.5-0.3-1.1-0.5-1.7-0.6c-0.6-0.1-1.1-0.2-1.7-0.2c-1.2,0-2.3,0.3-3.1,0.7c-0.9,0.5-1.6,1.1-2.2,1.8c-0.6,0.8-1,1.6-1.3,2.6
		c-0.3,1-0.4,1.9-0.4,3c0,1,0.2,2.1,0.5,3c0.3,1,0.8,1.8,1.4,2.6s1.4,1.4,2.3,1.8c0.9,0.4,1.8,0.7,3,0.7c0.5,0,1.1-0.1,1.7-0.2
		c0.6-0.2,1.1-0.3,1.7-0.6c0.5-0.3,1-0.7,1.5-1.1c0.4-0.4,0.8-1,1.1-1.7l5,3c-0.4,1-1,1.9-1.8,2.7s-1.7,1.5-2.8,2s-2.2,1-3.3,1.2
		c-1.1,0.3-2.3,0.4-3.4,0.4c-1.9,0-3.7-0.4-5.4-1.2s-3-1.8-4.2-3.1c-1.2-1.3-2.1-2.8-2.7-4.4C373.2,290,372.9,288.4,372.9,286.7z"/>
	<path class="st0" d="M406.7,284.9v15.4h-6.2v-26.9h4.9l12.5,15.8v-15.8h6.3v26.9h-5L406.7,284.9z"/>
	<path class="st0" d="M429.3,300.3v-26.9h6.3v26.9H429.3z"/>
	<path class="st0" d="M439.1,286.7c0-1.6,0.3-3.2,0.9-4.9c0.6-1.6,1.5-3,2.7-4.3c1.2-1.3,2.6-2.3,4.3-3c1.6-0.8,3.6-1.2,5.6-1.2
		c2.5,0,4.7,0.5,6.6,1.6c1.8,1.1,3.2,2.5,4.2,4.3l-4.8,3.3c-0.3-0.7-0.7-1.3-1.1-1.7c-0.4-0.4-1-0.9-1.6-1.1
		c-0.5-0.3-1.1-0.5-1.7-0.6c-0.6-0.1-1.1-0.2-1.7-0.2c-1.2,0-2.3,0.3-3.1,0.7c-0.9,0.5-1.6,1.1-2.2,1.8c-0.6,0.8-1,1.6-1.3,2.6
		c-0.3,1-0.4,1.9-0.4,3c0,1,0.2,2.1,0.5,3c0.3,1,0.8,1.8,1.4,2.6s1.4,1.4,2.3,1.8s1.8,0.7,3,0.7c0.5,0,1.1-0.1,1.7-0.2
		c0.6-0.2,1.1-0.3,1.7-0.6c0.5-0.3,1-0.7,1.5-1.1c0.4-0.4,0.8-1,1.1-1.7l5,3c-0.4,1-1,1.9-1.8,2.7c-0.8,0.8-1.7,1.5-2.8,2
		c-1,0.5-2.2,1-3.3,1.2c-1.1,0.3-2.3,0.4-3.4,0.4c-1.9,0-3.7-0.4-5.4-1.2c-1.6-0.8-3-1.8-4.2-3.1c-1.2-1.3-2.1-2.8-2.7-4.4
		C439.4,290,439.1,288.4,439.1,286.7z"/>
	<path class="st0" d="M473.6,273.5h5.6l9.8,26.9h-6.3l-2.1-6h-8.3l-2.1,6h-6.3L473.6,273.5z M479.5,290l-3.1-9.5l-3.2,9.5H479.5z"/>
	<path class="st0" d="M507.4,281.3c-0.1-0.1-0.3-0.3-0.8-0.6c-0.4-0.3-1-0.6-1.7-0.9c-0.7-0.3-1.4-0.6-2.3-0.8
		c-0.8-0.3-1.6-0.3-2.4-0.3c-2.3,0-3.3,0.8-3.3,2.3c0,0.4,0.1,0.9,0.3,1.1c0.3,0.3,0.6,0.6,1,0.8c0.4,0.3,1,0.4,1.7,0.7
		c0.7,0.2,1.6,0.4,2.4,0.7c1.3,0.3,2.4,0.8,3.5,1.1c1,0.4,1.9,1,2.6,1.6c0.7,0.6,1.3,1.4,1.6,2.3c0.4,0.9,0.6,1.9,0.6,3.2
		c0,1.5-0.3,2.8-0.9,3.8c-0.6,1-1.3,1.9-2.3,2.5c-1,0.6-2,1.1-3.2,1.4c-1.2,0.3-2.4,0.4-3.7,0.4c-1,0-2-0.1-3-0.3
		c-1-0.2-2.1-0.3-3-0.7c-1-0.3-1.9-0.6-2.9-1c-1-0.4-1.7-0.9-2.5-1.4l2.7-5.4c0.1,0.1,0.4,0.3,1,0.7s1.2,0.7,2.1,1
		c0.8,0.3,1.7,0.7,2.8,1s2,0.4,3,0.4c2.2,0,3.3-0.7,3.3-2c0-0.5-0.2-1-0.5-1.2c-0.3-0.3-0.8-0.6-1.4-0.9s-1.3-0.5-2.1-0.8
		c-0.8-0.3-1.6-0.5-2.6-0.8c-1.2-0.3-2.3-0.8-3.2-1.2c-0.9-0.4-1.6-1-2.3-1.6c-0.6-0.6-1-1.2-1.3-2c-0.3-0.8-0.4-1.6-0.4-2.7
		c0-1.4,0.3-2.7,0.8-3.7c0.5-1.1,1.2-2,2.2-2.8c0.9-0.8,2-1.3,3.1-1.6c1.2-0.3,2.4-0.6,3.8-0.6c1,0,1.8,0.1,2.8,0.3
		c0.9,0.2,1.8,0.4,2.6,0.7c0.9,0.3,1.6,0.6,2.3,1c0.7,0.3,1.4,0.7,2,1L507.4,281.3z"/>
	<path class="st0" d="M523.4,300.3v-26.9h12.2c1.3,0,2.4,0.3,3.5,0.8c1,0.5,2,1.2,2.8,2.1s1.4,1.8,1.8,3c0.4,1.1,0.7,2.2,0.7,3.3
		c0,0.9-0.1,1.6-0.3,2.4s-0.5,1.5-0.9,2.2c-0.3,0.7-0.9,1.3-1.4,1.8s-1.1,1-1.8,1.4l5.9,10h-7l-5.1-8.7h-4.1v8.7H523.4L523.4,300.3z
		 M529.6,286.2h5.6c0.7,0,1.4-0.3,1.9-1c0.5-0.7,0.8-1.6,0.8-2.7c0-1.1-0.3-2-0.9-2.7c-0.6-0.7-1.3-1-2-1h-5.5V286.2L529.6,286.2z"
		/>
	<path class="st0" d="M567.7,294.9v5.5h-18.9v-26.9h18.6v5.5H555v5.2h10.6v5H555v5.7L567.7,294.9L567.7,294.9z"/>
	<path class="st0" d="M578.8,273.5h5.6l9.8,26.9h-6.3l-2.1-6h-8.3l-2.1,6H569L578.8,273.5z M584.7,290l-3.1-9.5l-3.2,9.5H584.7z"/>
	<path class="st0" d="M596.8,300.3v-26.9h6.3v21.4h13v5.5H596.8z"/>
	<path class="st0" d="M619,300.3v-26.9h6.3v26.9H619z"/>
	<path class="st0" d="M628.9,295.7l14-16.8h-13.5v-5.5h20.7v4.7l-13.4,16.8h13.5v5.5h-21.3V295.7z"/>
	<path class="st0" d="M661.4,273.5h5.6l9.8,26.9h-6.3l-2.1-6h-8.3l-2.1,6h-6.3L661.4,273.5z M667.3,290l-3.1-9.5l-3.2,9.5H667.3z"/>
	<path class="st0" d="M679.4,300.3v-26.9h10.1c2.3,0,4.2,0.3,5.8,1c1.6,0.7,3,1.6,4.2,2.9c1.1,1.2,2,2.6,2.5,4.3
		c0.5,1.6,0.9,3.4,0.9,5.2c0,2.1-0.3,3.9-1,5.6c-0.6,1.6-1.6,3-2.7,4.3c-1.2,1.2-2.6,2.1-4.3,2.7s-3.5,1-5.5,1L679.4,300.3
		L679.4,300.3z M696.5,286.8c0-1.2-0.2-2.3-0.4-3.2c-0.3-1-0.8-1.8-1.4-2.5c-0.6-0.7-1.4-1.2-2.3-1.6c-0.9-0.3-1.9-0.6-3-0.6h-3.8
		v16h3.8c1.1,0,2.2-0.2,3-0.6c0.9-0.4,1.6-1,2.3-1.6c0.6-0.7,1-1.6,1.4-2.5C696.3,289.1,696.5,288,696.5,286.8z"/>
	<path class="st0" d="M712.9,273.5h5.6l9.8,26.9H722l-2.1-6h-8.3l-2.1,6h-6.3L712.9,273.5z M718.8,290l-3.1-9.5l-3.2,9.5H718.8z"/>
	<path class="st0" d="M746.7,281.3c-0.1-0.1-0.3-0.3-0.8-0.6c-0.4-0.3-1-0.6-1.7-0.9s-1.4-0.6-2.3-0.8c-0.8-0.3-1.6-0.3-2.4-0.3
		c-2.3,0-3.3,0.8-3.3,2.3c0,0.4,0.1,0.9,0.3,1.1c0.3,0.3,0.6,0.6,1,0.8c0.4,0.3,1,0.4,1.7,0.7c0.7,0.2,1.6,0.4,2.4,0.7
		c1.3,0.3,2.4,0.8,3.5,1.1c1,0.4,1.9,1,2.6,1.6c0.7,0.6,1.3,1.4,1.6,2.3c0.4,0.9,0.6,1.9,0.6,3.2c0,1.5-0.3,2.8-0.9,3.8
		c-0.6,1-1.3,1.9-2.3,2.5c-1,0.6-2,1.1-3.2,1.4c-1.2,0.3-2.4,0.4-3.7,0.4c-1,0-2-0.1-3-0.3c-1-0.2-2.1-0.3-3-0.7
		c-1-0.3-1.9-0.6-2.9-1c-1-0.4-1.7-0.9-2.5-1.4l2.7-5.4c0.1,0.1,0.4,0.3,1,0.7s1.2,0.7,2.1,1c0.8,0.3,1.7,0.7,2.8,1
		c1,0.3,2,0.4,3,0.4c2.2,0,3.3-0.7,3.3-2c0-0.5-0.2-1-0.5-1.2c-0.3-0.3-0.8-0.6-1.4-0.9s-1.3-0.5-2.1-0.8s-1.6-0.5-2.6-0.8
		c-1.2-0.3-2.3-0.8-3.2-1.2c-0.9-0.4-1.6-1-2.3-1.6c-0.6-0.6-1-1.2-1.3-2c-0.3-0.8-0.4-1.6-0.4-2.7c0-1.4,0.3-2.7,0.8-3.7
		c0.5-1.1,1.2-2,2.2-2.8c0.9-0.8,2-1.3,3.1-1.6c1.2-0.3,2.4-0.6,3.8-0.6c1,0,1.8,0.1,2.8,0.3c0.9,0.2,1.8,0.4,2.6,0.7s1.6,0.6,2.3,1
		s1.4,0.7,2,1L746.7,281.3z"/>
</g>
<g>
	<text transform="matrix(1 0 0 1 888.8969 -564.038)"><tspan x="0" y="0" class="st0" style="font-family:'Raleway-Regular'; font-size:69px; letter-spacing:-3;">de</tspan><tspan x="77.1" y="0" class="st0" style="font-family:'Raleway-ExtraBold'; font-size:106.7603px; letter-spacing:-4;"> 50.000</tspan></text>
</g>
<text transform="matrix(1 0 0 1 477.2913 505.5611)"><tspan x="0" y="0" class="st0" style="font-family:'Raleway-ExtraBold'; font-size:16.1349px;">GESTORES E SERVIDORES</tspan><tspan x="0" y="19.4" class="st0" style="font-family:'Raleway-ExtraBold'; font-size:16.1349px;">MUNICIPAIS CAPACITADOS</tspan></text>
<text transform="matrix(1 0 0 1 278.6363 480.6077)" class="st0" style="font-family:'Raleway-Regular'; font-size:69px; letter-spacing:-3;">+</text>
<g>
	<path class="st0" d="M139.2,169.5c-5.4,0-10.4-1.1-15-3.4c-4.6-2.2-8.5-5.2-11.8-8.9c-3.3-3.7-5.9-8-7.7-12.8
		c-1.8-4.8-2.8-9.9-2.8-15.2c0-5.5,0.9-10.7,2.7-15.6c1.8-4.9,4.3-9.3,7.4-12.9c3.1-3.7,6.9-6.6,11.2-8.8c4.3-2.1,9.1-3.2,14.3-3.2
		c6.6,0,12.4,1.7,17.5,5.2s9.1,7.6,12,12.5V58.7h10.2v96.1c0,2.8,1.2,4.2,3.6,4.2v9c-1.5,0.3-2.7,0.4-3.6,0.4
		c-2.4,0-4.5-0.8-6.3-2.3c-1.8-1.5-2.7-3.4-2.7-5.6v-7.6c-3.1,5.1-7.3,9.1-12.6,12.1C150.4,168,144.9,169.5,139.2,169.5z
		 M141.5,160.5c2.5,0,5.2-0.5,8-1.5c2.8-1,5.5-2.4,8-4.1c2.5-1.7,4.6-3.8,6.4-6.1c1.7-2.3,2.8-4.9,3.2-7.6v-24.1
		c-1-2.7-2.4-5.2-4.3-7.6c-1.9-2.3-4.1-4.4-6.5-6.2c-2.4-1.8-5.1-3.2-7.9-4.2c-2.8-1-5.5-1.5-8.2-1.5c-4.2,0-8,0.9-11.4,2.7
		c-3.4,1.8-6.3,4.2-8.8,7.1c-2.4,2.9-4.3,6.3-5.6,10.1c-1.3,3.8-1.9,7.7-1.9,11.7c0,4.2,0.7,8.2,2.2,12c1.5,3.8,3.5,7.1,6.1,10
		c2.6,2.8,5.7,5.1,9.2,6.8C133.6,159.7,137.4,160.5,141.5,160.5z"/>
	<path class="st0" d="M227.1,169.5c-5.7,0-10.9-1.1-15.6-3.2c-4.7-2.1-8.9-5.1-12.3-8.8c-3.5-3.7-6.2-8.1-8.2-12.9
		c-1.9-4.9-2.9-10.1-2.9-15.7c0-5.5,1-10.6,2.9-15.5c1.9-4.8,4.6-9.1,8.1-12.7c3.4-3.6,7.6-6.5,12.3-8.7c4.8-2.1,10-3.2,15.6-3.2
		c5.7,0,10.9,1.1,15.6,3.2c4.7,2.1,8.8,5.1,12.2,8.8c3.4,3.7,6,7.9,7.9,12.7c1.9,4.8,2.8,9.9,2.8,15.3c0,0.8,0,1.6,0,2.4
		c0,0.8-0.1,1.3-0.1,1.6h-66.8c0.3,4.2,1.3,8.1,2.9,11.6c1.6,3.5,3.8,6.6,6.4,9.2c2.6,2.6,5.6,4.6,8.9,6.1c3.3,1.4,6.9,2.2,10.7,2.2
		c2.5,0,5-0.3,7.5-1c2.5-0.7,4.8-1.6,6.9-2.8c2.1-1.2,4-2.7,5.7-4.4c1.7-1.7,3-3.7,3.9-5.8l8.8,2.4c-1.2,2.9-2.9,5.5-5.1,7.9
		c-2.2,2.3-4.7,4.4-7.6,6.1c-2.9,1.7-6.1,3.1-9.6,4C234.5,169,230.9,169.5,227.1,169.5z M255.8,124.9c-0.3-4.2-1.3-8-2.9-11.5
		s-3.7-6.4-6.3-8.9c-2.5-2.5-5.5-4.4-8.8-5.8c-3.3-1.4-6.9-2.1-10.7-2.1c-3.8,0-7.4,0.7-10.8,2.1c-3.4,1.4-6.4,3.3-8.9,5.8
		c-2.5,2.5-4.6,5.5-6.1,9c-1.5,3.5-2.5,7.3-2.8,11.4H255.8z"/>
	<path class="st0" d="M420.9,134.7V168h-100v-33.3h32.9V75.6c-1.4,1.9-3.6,3.7-6.5,5.7c-2.9,1.9-6.2,3.7-9.8,5.3
		c-3.6,1.6-7.3,2.9-11.1,3.9c-3.8,1-7.1,1.5-10.1,1.5V57.8c2.5,0,5.7-0.8,9.6-2.5c3.9-1.7,7.8-3.7,11.7-6.1
		c3.9-2.4,7.3-4.8,10.4-7.3c3.1-2.5,5-4.5,5.8-6h37.7v98.9H420.9z"/>
	<path class="st0" d="M428.3,168v-37.7h30.3V168H428.3z"/>
	<path class="st0" d="M528.5,93.4c7.9,0,15.1,1.3,21.8,3.9c6.6,2.6,12.4,6.3,17.3,10.9c4.9,4.6,8.6,10.2,11.3,16.7
		c2.7,6.5,4.1,13.7,4.1,21.5c0,8.3-1.5,15.9-4.6,22.8c-3.1,6.9-7.4,12.8-12.9,17.7c-5.5,4.9-12,8.8-19.6,11.5
		c-7.6,2.7-15.9,4.1-25,4.1c-12,0-22.9-2.4-32.4-7.2c-9.6-4.8-16.8-11.5-21.8-20.1l20.6-22.9c4.5,5.4,9.7,9.7,15.6,13
		c5.9,3.2,12,4.9,18.2,4.9c7.3,0,13-2.1,17.4-6.3c4.3-4.2,6.5-9.7,6.5-16.7c0-6.6-2-12-6-16c-4-4-9.3-6-15.7-6
		c-4.2,0-8,0.9-11.6,2.8c-3.6,1.9-6.4,4.5-8.6,7.9h-32.2c0-0.2,0.3-1.7,0.9-4.7c0.6-3,1.3-6.9,2.2-11.7c0.8-4.8,1.9-10.1,3-16.1
		c1.2-5.9,2.4-12,3.6-18.2c2.8-14.5,5.9-31,9.5-49.3h81.7v33.8H517l-4.6,28c0.9-1.1,2.7-2,5.4-2.9C520.5,93.9,524.1,93.4,528.5,93.4
		z"/>
	<path class="st0" d="M710.6,100.1c0,10.2-1.5,19.6-4.6,28.1c-3.1,8.6-7.3,16-12.7,22.2c-5.4,6.3-11.8,11.1-19.1,14.6
		c-7.3,3.5-15.3,5.2-24,5.2c-8.6,0-16.7-1.7-24.1-5.2c-7.4-3.5-13.8-8.3-19.2-14.6c-5.4-6.3-9.6-13.7-12.6-22.2
		c-3-8.6-4.5-17.9-4.5-28.1c0-10.2,1.5-19.6,4.5-28.1c3-8.6,7.2-16,12.6-22.2c5.4-6.3,11.8-11.2,19.2-14.7
		c7.4-3.5,15.4-5.3,24.1-5.3c8.6,0,16.6,1.8,24,5.3c7.3,3.6,13.7,8.5,19.1,14.7c5.4,6.3,9.6,13.7,12.7,22.2
		C709,80.6,710.6,90,710.6,100.1z M673.3,100.1c0-10.8-2.2-19.6-6.5-26.3c-4.3-6.7-9.9-10.1-16.7-10.1c-7.1,0-12.8,3.4-17,10.1
		c-4.2,6.7-6.4,15.5-6.4,26.3c0,10.8,2.1,19.5,6.4,26.2c4.2,6.6,9.9,10,17,10c6.8,0,12.3-3.3,16.7-10
		C671.1,119.7,673.3,111,673.3,100.1z"/>
	<path class="st0" d="M842.1,100.1c0,10.2-1.5,19.6-4.6,28.1c-3.1,8.6-7.3,16-12.7,22.2c-5.4,6.3-11.8,11.1-19.1,14.6
		c-7.3,3.5-15.3,5.2-24,5.2c-8.6,0-16.7-1.7-24.1-5.2c-7.4-3.5-13.8-8.3-19.2-14.6c-5.4-6.3-9.6-13.7-12.6-22.2
		c-3-8.6-4.5-17.9-4.5-28.1c0-10.2,1.5-19.6,4.5-28.1c3-8.6,7.2-16,12.6-22.2c5.4-6.3,11.8-11.2,19.2-14.7
		c7.4-3.5,15.4-5.3,24.1-5.3c8.6,0,16.6,1.8,24,5.3c7.3,3.6,13.7,8.5,19.1,14.7c5.4,6.3,9.6,13.7,12.7,22.2
		C840.6,80.6,842.1,90,842.1,100.1z M804.8,100.1c0-10.8-2.2-19.6-6.5-26.3c-4.3-6.7-9.9-10.1-16.7-10.1c-7.1,0-12.8,3.4-17,10.1
		c-4.2,6.7-6.4,15.5-6.4,26.3c0,10.8,2.1,19.5,6.4,26.2c4.2,6.6,9.9,10,17,10c6.8,0,12.3-3.3,16.7-10
		C802.7,119.7,804.8,111,804.8,100.1z"/>
</g>
<g>
	<path class="st0" d="M73.2,120.9v8.4H54.6v20.2h-9.4v-20.2H26.6v-8.4h18.6v-20.2h9.4v20.2H73.2z"/>
</g>
</svg>
