<?xml version="1.0" encoding="utf-8"?>
<!-- Generator: Adobe Illustrator 23.0.4, SVG Export Plug-In . SVG Version: 6.00 Build 0)  -->
<svg version="1.1" id="Layer_1" xmlns="https://www.w3.org/2000/svg" xmlns:xlink="https://www.w3.org/1999/xlink" x="0px" y="0px"
	 viewBox="0 0 595 135" style="enable-background:new 0 0 595 135;" xml:space="preserve">
<style type="text/css">
	.st0{opacity:0.41;}
	.st1{fill:#FFFFFF;}
</style>
<g class="st0">
	
		<image style="overflow:visible;" width="646" height="210" xlink:href="E6A2A74C248022FF.png"  transform="matrix(1 0 0 1 -38 -25)">
	</image>
</g>
<g>
	<path class="st1" d="M58.2,70.6h1.4l11.9,22.2l4.7-22.2h1.8l-5.4,25.2h-1.6L59.3,74l-4.7,21.8h-1.8L58.2,70.6z"/>
	<path class="st1" d="M87.2,96c-1.4,0-2.7-0.3-3.8-0.9s-2-1.3-2.8-2.3c-0.7-1-1.3-2.1-1.7-3.3c-0.4-1.3-0.6-2.6-0.6-3.9
		c0-1.9,0.4-3.8,1.2-5.7s1.9-3.4,3.2-4.9c1.3-1.4,2.9-2.6,4.6-3.4c1.7-0.9,3.5-1.3,5.3-1.3c1.4,0,2.7,0.3,3.8,0.9
		c1.1,0.6,2,1.4,2.8,2.3c0.7,1,1.3,2.1,1.7,3.3c0.4,1.3,0.6,2.5,0.6,3.9c0,1.9-0.4,3.8-1.2,5.6c-0.8,1.8-1.9,3.4-3.2,4.9
		c-1.3,1.4-2.8,2.5-4.6,3.4S89,96,87.2,96z M87.5,94.3c1.6,0,3.2-0.4,4.7-1.2c1.5-0.8,2.8-1.8,3.8-3.1c1.1-1.3,2-2.7,2.6-4.3
		c0.6-1.6,1-3.2,1-4.7c0-1.2-0.2-2.4-0.5-3.4c-0.3-1.1-0.8-2-1.4-2.8c-0.6-0.8-1.4-1.5-2.3-2s-1.9-0.7-3.1-0.7
		c-1.6,0-3.2,0.4-4.7,1.2c-1.5,0.8-2.8,1.8-3.9,3.1c-1.1,1.3-2,2.7-2.6,4.3s-1,3.2-1,4.8c0,1.2,0.2,2.4,0.5,3.4
		c0.3,1.1,0.8,2,1.4,2.8c0.6,0.8,1.4,1.5,2.3,1.9C85.3,94.1,86.4,94.3,87.5,94.3z"/>
	<path class="st1" d="M109.3,96c-3.7,0-6.7-1.3-8.7-3.8l1.3-1.5c0.8,1.1,1.8,2,3.1,2.6c1.3,0.7,2.9,1,4.7,1c2.4,0,4.3-0.5,5.7-1.5
		c1.4-1,2.1-2.4,2.1-4.3c0-1.3-0.6-2.3-1.7-3c-1.1-0.7-2.7-1.3-4.8-1.7c-1.1-0.2-2-0.5-2.8-0.8s-1.5-0.6-2.1-1s-1-0.9-1.3-1.4
		c-0.3-0.6-0.4-1.2-0.4-2c0-1.3,0.3-2.5,0.8-3.5c0.5-1,1.2-1.9,2.1-2.6c0.9-0.7,2-1.3,3.2-1.6c1.2-0.4,2.6-0.6,4-0.6
		c1.6,0,2.9,0.2,4,0.7c1.1,0.5,2.1,1.2,2.8,2.2l-1.2,1.4c-1.1-1.8-3.1-2.7-6-2.7c-1.4,0-2.6,0.2-3.6,0.5c-1,0.3-1.8,0.8-2.4,1.3
		c-0.6,0.5-1.1,1.2-1.4,1.9c-0.3,0.7-0.4,1.6-0.4,2.4c0,0.6,0.1,1.1,0.4,1.6s0.6,0.8,1.1,1.1s1.1,0.6,1.9,0.8
		c0.7,0.2,1.6,0.5,2.6,0.7c1.1,0.3,2,0.5,2.9,0.8c0.9,0.3,1.6,0.7,2.3,1.1c0.6,0.4,1.1,1,1.4,1.6c0.3,0.6,0.5,1.3,0.5,2.2
		c0,1.3-0.3,2.4-0.8,3.4c-0.5,1-1.2,1.8-2.1,2.5c-0.9,0.7-2,1.2-3.2,1.5S110.7,96,109.3,96z"/>
	<path class="st1" d="M128.4,96c-3.7,0-6.7-1.3-8.7-3.8l1.3-1.5c0.8,1.1,1.8,2,3.1,2.6c1.3,0.7,2.9,1,4.7,1c2.4,0,4.3-0.5,5.7-1.5
		c1.4-1,2.1-2.4,2.1-4.3c0-1.3-0.6-2.3-1.7-3c-1.1-0.7-2.7-1.3-4.8-1.7c-1.1-0.2-2-0.5-2.8-0.8s-1.5-0.6-2.1-1s-1-0.9-1.3-1.4
		c-0.3-0.6-0.4-1.2-0.4-2c0-1.3,0.3-2.5,0.8-3.5c0.5-1,1.2-1.9,2.1-2.6c0.9-0.7,2-1.3,3.2-1.6c1.2-0.4,2.6-0.6,4-0.6
		c1.6,0,2.9,0.2,4,0.7c1.1,0.5,2.1,1.2,2.8,2.2l-1.2,1.4c-1.1-1.8-3.1-2.7-6-2.7c-1.4,0-2.6,0.2-3.6,0.5c-1,0.3-1.8,0.8-2.4,1.3
		c-0.6,0.5-1.1,1.2-1.4,1.9c-0.3,0.7-0.4,1.6-0.4,2.4c0,0.6,0.1,1.1,0.4,1.6s0.6,0.8,1.1,1.1s1.1,0.6,1.9,0.8
		c0.7,0.2,1.6,0.5,2.6,0.7c1.1,0.3,2,0.5,2.9,0.8c0.9,0.3,1.6,0.7,2.3,1.1c0.6,0.4,1.1,1,1.4,1.6c0.3,0.6,0.5,1.3,0.5,2.2
		c0,1.3-0.3,2.4-0.8,3.4c-0.5,1-1.2,1.8-2.1,2.5c-0.9,0.7-2,1.2-3.2,1.5S129.8,96,128.4,96z"/>
	<path class="st1" d="M149.5,96c-1.4,0-2.7-0.3-3.8-0.9s-2-1.3-2.8-2.3c-0.7-1-1.3-2.1-1.7-3.3c-0.4-1.3-0.6-2.6-0.6-3.9
		c0-1.9,0.4-3.8,1.2-5.7s1.9-3.4,3.2-4.9c1.3-1.4,2.9-2.6,4.6-3.4c1.7-0.9,3.5-1.3,5.3-1.3c1.4,0,2.7,0.3,3.8,0.9
		c1.1,0.6,2,1.4,2.8,2.3c0.7,1,1.3,2.1,1.7,3.3c0.4,1.3,0.6,2.5,0.6,3.9c0,1.9-0.4,3.8-1.2,5.6c-0.8,1.8-1.9,3.4-3.2,4.9
		c-1.3,1.4-2.8,2.5-4.6,3.4S151.3,96,149.5,96z M149.9,94.3c1.6,0,3.2-0.4,4.7-1.2c1.5-0.8,2.8-1.8,3.8-3.1c1.1-1.3,2-2.7,2.6-4.3
		c0.6-1.6,1-3.2,1-4.7c0-1.2-0.2-2.4-0.5-3.4c-0.3-1.1-0.8-2-1.4-2.8c-0.6-0.8-1.4-1.5-2.3-2s-1.9-0.7-3.1-0.7
		c-1.6,0-3.2,0.4-4.7,1.2c-1.5,0.8-2.8,1.8-3.9,3.1c-1.1,1.3-2,2.7-2.6,4.3s-1,3.2-1,4.8c0,1.2,0.2,2.4,0.5,3.4
		c0.3,1.1,0.8,2,1.4,2.8c0.6,0.8,1.4,1.5,2.3,1.9C147.7,94.1,148.7,94.3,149.9,94.3z"/>
	<path class="st1" d="M171.6,96c-3.7,0-6.7-1.3-8.7-3.8l1.3-1.5c0.8,1.1,1.8,2,3.1,2.6c1.3,0.7,2.9,1,4.7,1c2.4,0,4.3-0.5,5.7-1.5
		c1.4-1,2.1-2.4,2.1-4.3c0-1.3-0.6-2.3-1.7-3c-1.1-0.7-2.7-1.3-4.8-1.7c-1.1-0.2-2-0.5-2.8-0.8s-1.5-0.6-2.1-1s-1-0.9-1.3-1.4
		c-0.3-0.6-0.4-1.2-0.4-2c0-1.3,0.3-2.5,0.8-3.5c0.5-1,1.2-1.9,2.1-2.6c0.9-0.7,2-1.3,3.2-1.6c1.2-0.4,2.6-0.6,4-0.6
		c1.6,0,2.9,0.2,4,0.7c1.1,0.5,2.1,1.2,2.8,2.2l-1.2,1.4c-1.1-1.8-3.1-2.7-6-2.7c-1.4,0-2.6,0.2-3.6,0.5c-1,0.3-1.8,0.8-2.4,1.3
		c-0.6,0.5-1.1,1.2-1.4,1.9c-0.3,0.7-0.4,1.6-0.4,2.4c0,0.6,0.1,1.1,0.4,1.6s0.6,0.8,1.1,1.1s1.1,0.6,1.9,0.8
		c0.7,0.2,1.6,0.5,2.6,0.7c1.1,0.3,2,0.5,2.9,0.8c0.9,0.3,1.6,0.7,2.3,1.1c0.6,0.4,1.1,1,1.4,1.6c0.3,0.6,0.5,1.3,0.5,2.2
		c0,1.3-0.3,2.4-0.8,3.4c-0.5,1-1.2,1.8-2.1,2.5c-0.9,0.7-2,1.2-3.2,1.5S173,96,171.6,96z"/>
</g>
<g>
	
		<image style="overflow:visible;opacity:0.4;" width="399" height="117" xlink:href="E6A2A74C248022FA.png"  transform="matrix(1 0 0 1 151 33)">
	</image>
	<g>
		<g>
			<path class="st1" d="M205.1,79.8v30.5h-12.3V56.9h9.6l24.9,31.3V56.9h12.3v53.4h-9.9L205.1,79.8z"/>
			<path class="st1" d="M269.3,99.8c2.1,0,3.9-0.4,5.3-1.3c1.5-0.9,2.6-2,3.5-3.5c0.9-1.5,1.5-3.1,1.9-5c0.4-1.9,0.6-3.8,0.6-5.8
				V56.9H293v27.3c0,3.7-0.5,7.2-1.4,10.4c-0.9,3.2-2.4,6-4.3,8.4c-1.9,2.4-4.4,4.3-7.4,5.7c-3,1.4-6.5,2.1-10.6,2.1
				c-4.3,0-7.9-0.7-10.9-2.2c-3-1.5-5.4-3.4-7.3-5.8c-1.9-2.4-3.3-5.2-4.1-8.5c-0.9-3.2-1.3-6.6-1.3-10.1V56.9H258v27.3
				c0,2.1,0.2,4,0.6,5.9c0.4,1.9,1.1,3.5,2,5c0.9,1.5,2.1,2.6,3.5,3.5C265.4,99.4,267.2,99.8,269.3,99.8z M272.8,53.4l-7.7-2.1
				l3.9-9.8h10.9L272.8,53.4z"/>
			<path class="st1" d="M341.2,110.3V78.4l-11.6,23.2H323l-11.6-23.2v31.9h-12.3V56.9h13.4l13.8,27.9l13.9-27.9h13.3v53.4H341.2z"/>
			<path class="st1" d="M397.8,99.5v10.8h-37.5V56.9h36.8v10.8h-24.5v10.4h21v10h-21v11.4H397.8z"/>
			<path class="st1" d="M401.8,110.3V56.9h24.1c2.5,0,4.8,0.5,7,1.6s4,2.4,5.5,4.1c1.6,1.7,2.8,3.6,3.6,5.8c0.9,2.2,1.3,4.3,1.3,6.5
				c0,1.7-0.2,3.2-0.6,4.8c-0.4,1.5-1,3-1.7,4.3s-1.7,2.6-2.7,3.6c-1.1,1.1-2.3,2-3.6,2.7l11.7,19.8h-13.9l-10.2-17.2h-8v17.2H401.8
				z M414.2,82.3h11.3c1.5,0,2.7-0.7,3.8-2.1c1.1-1.4,1.6-3.1,1.6-5.3c0-2.2-0.6-4-1.8-5.3c-1.2-1.3-2.5-2-3.9-2h-10.9V82.3z"/>
			<path class="st1" d="M472.1,110.8c-4,0-7.6-0.8-10.8-2.3c-3.3-1.6-6-3.6-8.3-6.1c-2.3-2.5-4.1-5.4-5.4-8.7
				c-1.3-3.3-1.9-6.6-1.9-10.1c0-3.5,0.7-6.9,2-10.1c1.3-3.3,3.2-6.1,5.6-8.6c2.4-2.5,5.2-4.5,8.5-5.9c3.3-1.5,6.8-2.2,10.7-2.2
				c4,0,7.6,0.8,10.8,2.3c3.3,1.6,6,3.6,8.3,6.2c2.3,2.6,4.1,5.5,5.3,8.7c1.3,3.3,1.9,6.6,1.9,9.9c0,3.5-0.7,6.9-2,10.1
				c-1.3,3.3-3.2,6.1-5.5,8.6c-2.4,2.5-5.2,4.5-8.4,6C479.5,110,476,110.8,472.1,110.8z M458.2,83.7c0,2.1,0.3,4,0.9,6
				c0.6,1.9,1.5,3.6,2.7,5.1c1.2,1.5,2.6,2.7,4.4,3.6s3.8,1.4,6,1.4c2.4,0,4.4-0.5,6.2-1.4c1.8-1,3.2-2.2,4.4-3.7
				c1.2-1.5,2-3.3,2.6-5.2c0.6-1.9,0.9-3.9,0.9-5.9c0-2.1-0.3-4-0.9-6c-0.6-1.9-1.5-3.6-2.7-5.1c-1.2-1.5-2.7-2.7-4.4-3.5
				c-1.7-0.9-3.7-1.3-6-1.3c-2.4,0-4.4,0.5-6.1,1.4c-1.7,0.9-3.2,2.1-4.4,3.6s-2.1,3.2-2.6,5.1C458.5,79.7,458.2,81.7,458.2,83.7z"
				/>
			<path class="st1" d="M534.4,72.6c-0.1-0.2-0.7-0.6-1.6-1.1c-0.9-0.6-2-1.1-3.4-1.7c-1.4-0.6-2.8-1.1-4.4-1.6
				c-1.6-0.5-3.2-0.7-4.8-0.7c-4.4,0-6.6,1.5-6.6,4.4c0,0.9,0.2,1.7,0.7,2.3c0.5,0.6,1.2,1.1,2.1,1.6c0.9,0.5,2.1,0.9,3.5,1.3
				c1.4,0.4,3,0.9,4.9,1.4c2.6,0.7,4.9,1.5,6.9,2.3s3.8,1.9,5.2,3.1c1.4,1.2,2.5,2.7,3.3,4.5c0.8,1.8,1.2,3.9,1.2,6.3
				c0,3-0.6,5.6-1.7,7.6c-1.1,2.1-2.6,3.8-4.5,5c-1.9,1.3-4,2.2-6.4,2.8c-2.4,0.6-4.9,0.9-7.4,0.9c-2,0-4-0.2-6-0.5
				c-2.1-0.3-4.1-0.7-6-1.3c-2-0.6-3.8-1.3-5.7-2.1c-1.8-0.8-3.5-1.7-5.1-2.8l5.4-10.7c0.2,0.3,0.9,0.7,2,1.4
				c1.1,0.7,2.5,1.4,4.1,2.1c1.6,0.7,3.4,1.3,5.5,1.9c2,0.6,4,0.8,6.1,0.8c4.4,0,6.5-1.3,6.5-4c0-1-0.3-1.8-1-2.5
				c-0.7-0.7-1.6-1.2-2.7-1.8c-1.2-0.5-2.5-1-4.1-1.5c-1.6-0.5-3.3-1-5.1-1.5c-2.5-0.8-4.6-1.6-6.4-2.4c-1.8-0.9-3.3-1.9-4.5-3
				c-1.2-1.2-2.1-2.5-2.6-4c-0.6-1.5-0.9-3.3-0.9-5.3c0-2.8,0.5-5.3,1.6-7.4c1.1-2.2,2.5-4,4.3-5.5c1.8-1.5,3.9-2.6,6.3-3.3
				c2.4-0.8,4.9-1.1,7.6-1.1c1.9,0,3.7,0.2,5.5,0.5c1.8,0.4,3.5,0.8,5.2,1.4c1.7,0.6,3.2,1.2,4.6,1.9c1.4,0.7,2.7,1.4,3.9,2.1
				L534.4,72.6z"/>
		</g>
	</g>
</g>
</svg>
