<?xml version="1.0" encoding="utf-8"?>
<!-- Generator: Adobe Illustrator 23.0.4, SVG Export Plug-In . SVG Version: 6.00 Build 0)  -->
<svg version="1.1" id="Layer_1" xmlns="https://www.w3.org/2000/svg" xmlns:xlink="https://www.w3.org/1999/xlink" x="0px" y="0px"
	 viewBox="0 0 136 160" style="enable-background:new 0 0 136 160;" xml:space="preserve">
<style type="text/css">
	.st0{fill-rule:evenodd;clip-rule:evenodd;fill:#005699;}
	.st1{fill-rule:evenodd;clip-rule:evenodd;fill:url(#XMLID_2_);}
	.st2{fill-rule:evenodd;clip-rule:evenodd;fill:url(#XMLID_4_);}
	.st3{fill-rule:evenodd;clip-rule:evenodd;fill:url(#XMLID_5_);}
	.st4{fill:url(#XMLID_6_);}
	.st5{fill:url(#XMLID_7_);}
	.st6{fill:#005699;}
	.st7{fill:#FFFFFF;}
	.st8{fill:#F2F2F2;}
	.st9{fill-rule:evenodd;clip-rule:evenodd;fill:#F2F2F2;}
</style>
<g>
	<g id="XMLID_3_">
		<g>
			<g>
				<polygon class="st0" points="38.7,138.4 14.9,148.2 31.2,99.4 68,109.2 51.4,160 				"/>
			</g>
			<g>
				<polygon class="st0" points="67.2,109.2 104,99.4 120.3,148.2 96.5,138.4 83.8,160 				"/>
			</g>
		</g>
		<linearGradient id="XMLID_2_" gradientUnits="userSpaceOnUse" x1="38.6777" y1="78.8564" x2="49.1863" y2="242.49">
			<stop  offset="0" style="stop-color:#A8A7A7"/>
			<stop  offset="0.2" style="stop-color:#B3B2B3"/>
			<stop  offset="0.5" style="stop-color:#E1E1E1"/>
			<stop  offset="0.8" style="stop-color:#B3B2B3"/>
			<stop  offset="1" style="stop-color:#A8A7A7"/>
		</linearGradient>
		<polygon id="XMLID_50_" class="st1" points="32.5,101.8 18.2,144.7 39.6,135.9 50.9,155.1 65.4,110.6 		"/>
		<linearGradient id="XMLID_4_" gradientUnits="userSpaceOnUse" x1="90.0648" y1="75.5563" x2="100.5734" y2="239.1899">
			<stop  offset="0" style="stop-color:#A8A7A7"/>
			<stop  offset="0.2" style="stop-color:#B3B2B3"/>
			<stop  offset="0.5" style="stop-color:#E1E1E1"/>
			<stop  offset="0.8" style="stop-color:#B3B2B3"/>
			<stop  offset="1" style="stop-color:#A8A7A7"/>
		</linearGradient>
		<polygon id="XMLID_49_" class="st2" points="102.7,101.8 117,144.7 95.7,135.9 84.4,155.1 69.8,110.6 		"/>
		<path id="XMLID_48_" class="st0" d="M131,63.9c-0.5,3.2-3.2,6-3.7,9.2c-0.5,3.2,1.1,6.9,0.6,10.1c-1.5,2.9-4.9,4.7-6.4,7.6
			c-1.5,2.9-1.1,6.9-2.5,9.8c-2.3,2.3-6.1,3-8.4,5.3c-2.3,2.3-3.1,6.3-5.4,8.6c-2.9,1.5-6.7,0.9-9.6,2.4c-2.9,1.5-4.9,5-7.8,6.5
			c-3.2,0.5-6.7-1.2-9.9-0.7c-3.2,0.5-6.2,3.2-9.4,3.7c-3.2-0.5-6-3.2-9.2-3.7c-3.2-0.5-6.9,1.1-10.1,0.6c-2.9-1.5-4.7-4.9-7.6-6.4
			c-2.9-1.5-6.9-1.1-9.8-2.5c-2.3-2.3-3-6.1-5.3-8.4c-2.3-2.3-6.3-3.1-8.6-5.4c-1.5-2.9-0.9-6.7-2.4-9.6c-1.5-2.9-5-4.9-6.5-7.8
			C8.3,80,10,76.5,9.5,73.3c-0.5-3.2-3.2-6.2-3.7-9.4c0.5-3.2,3.2-6,3.7-9.2c0.5-3.2-1.1-6.9-0.6-10.1c1.5-2.9,4.9-4.7,6.4-7.6
			c1.5-2.9,1.1-6.9,2.5-9.8c2.3-2.3,6.1-3,8.4-5.3c2.3-2.3,3.1-6.3,5.4-8.6c2.9-1.5,6.7-0.9,9.6-2.4c2.9-1.5,4.9-5,7.8-6.5
			c3.2-0.5,6.7,1.2,9.9,0.7c3.2-0.5,6.2-3.2,9.4-3.7c3.2,0.5,6,3.2,9.2,3.7c3.2,0.5,6.9-1.1,10.1-0.6c2.9,1.5,4.7,4.9,7.6,6.4
			c2.9,1.5,6.9,1.1,9.8,2.5c2.3,2.3,3,6.1,5.3,8.4c2.3,2.3,6.3,3.1,8.6,5.4c1.5,2.9,0.9,6.7,2.4,9.6c1.5,2.9,5,4.9,6.5,7.8
			c0.5,3.2-1.2,6.7-0.7,9.9C127.8,57.6,130.5,60.6,131,63.9z"/>
		
			<radialGradient id="XMLID_5_" cx="67.515" cy="-16292.5244" r="82.7906" gradientTransform="matrix(1 0 0 -1 0 -16236)" gradientUnits="userSpaceOnUse">
			<stop  offset="0" style="stop-color:#B4B4B5"/>
			<stop  offset="0.15" style="stop-color:#CECECE"/>
			<stop  offset="0.5" style="stop-color:#F4F5F5"/>
			<stop  offset="0.85" style="stop-color:#CECECE"/>
			<stop  offset="1" style="stop-color:#B4B4B5"/>
		</radialGradient>
		<path id="XMLID_47_" class="st3" d="M127.9,63.9c-0.5,3.1-3,5.7-3.5,8.8c-0.5,3.1,1.1,6.6,0.6,9.6c-1.4,2.8-4.6,4.5-6,7.3
			c-1.4,2.8-1,6.6-2.4,9.4c-2.2,2.2-5.8,2.8-8,5c-2.2,2.2-3,6-5.2,8.2c-2.8,1.4-6.4,0.9-9.2,2.3c-2.8,1.4-4.7,4.7-7.4,6.2
			c-3.1,0.5-6.4-1.1-9.4-0.6c-3.1,0.5-5.9,3.1-9,3.5c-3.1-0.5-5.7-3-8.8-3.5c-3.1-0.5-6.6,1.1-9.6,0.6c-2.8-1.4-4.5-4.6-7.3-6.1
			c-2.8-1.4-6.6-1-9.4-2.4c-2.2-2.2-2.8-5.8-5-8c-2.2-2.2-6-3-8.1-5.2c-1.4-2.8-0.9-6.4-2.3-9.2c-1.4-2.8-4.7-4.7-6.1-7.4
			c-0.5-3.1,1.1-6.4,0.6-9.4c-0.5-3.1-3.1-5.9-3.5-9c0.5-3.1,3-5.7,3.5-8.8c0.5-3.1-1.1-6.6-0.6-9.6c1.4-2.8,4.6-4.5,6-7.3
			c1.4-2.8,1-6.6,2.4-9.3c2.2-2.2,5.8-2.8,8-5c2.2-2.2,3-6,5.2-8.1c2.8-1.4,6.4-0.9,9.2-2.3c2.8-1.4,4.7-4.7,7.4-6.2
			c3.1-0.5,6.4,1.1,9.4,0.6c3.1-0.5,5.9-3.1,9-3.6c3.1,0.5,5.7,3,8.8,3.5c3.1,0.5,6.6-1.1,9.6-0.6c2.8,1.4,4.5,4.6,7.3,6
			c2.8,1.4,6.6,1,9.4,2.4c2.2,2.2,2.8,5.8,5,8c2.2,2.2,6,3,8.1,5.2c1.4,2.8,0.9,6.4,2.3,9.2c1.4,2.8,4.7,4.7,6.1,7.4
			c0.5,3.1-1.1,6.4-0.6,9.4C124.9,57.9,127.5,60.8,127.9,63.9z"/>
		
			<linearGradient id="XMLID_6_" gradientUnits="userSpaceOnUse" x1="106.7111" y1="-16338.1875" x2="30.0543" y2="-16261.5303" gradientTransform="matrix(1 0 0 -1 0 -16236)">
			<stop  offset="0" style="stop-color:#A8A7A7"/>
			<stop  offset="0.2" style="stop-color:#B3B2B3"/>
			<stop  offset="0.5" style="stop-color:#E1E1E1"/>
			<stop  offset="0.8" style="stop-color:#B3B2B3"/>
			<stop  offset="1" style="stop-color:#A8A7A7"/>
		</linearGradient>
		<path id="XMLID_45_" class="st4" d="M68.4,118.1c-14.5,0-28.1-5.6-38.3-15.9C19.8,91.9,14.2,78.3,14.2,63.9
			c0-14.5,5.6-28.1,15.9-38.3C40.3,15.3,53.9,9.7,68.4,9.7c14.5,0,28.1,5.6,38.3,15.9c10.2,10.2,15.9,23.9,15.9,38.3
			c0,14.5-5.6,28.1-15.9,38.3C96.5,112.4,82.9,118.1,68.4,118.1z"/>
		
			<linearGradient id="XMLID_7_" gradientUnits="userSpaceOnUse" x1="105.9971" y1="-16337.4727" x2="30.7739" y2="-16262.249" gradientTransform="matrix(1 0 0 -1 0 -16236)">
			<stop  offset="0" style="stop-color:#B4B4B5"/>
			<stop  offset="0.15" style="stop-color:#CECECE"/>
			<stop  offset="0.5" style="stop-color:#F4F5F5"/>
			<stop  offset="0.85" style="stop-color:#CECECE"/>
			<stop  offset="1" style="stop-color:#B4B4B5"/>
		</linearGradient>
		<path id="XMLID_44_" class="st5" d="M121.6,63.9c0,29.4-23.8,53.2-53.2,53.2c-29.4,0-53.2-23.8-53.2-53.2
			c0-29.4,23.8-53.2,53.2-53.2C97.8,10.7,121.6,34.5,121.6,63.9z"/>
		<path id="XMLID_43_" class="st6" d="M68.4,109.5c-25.2,0-45.6-20.5-45.6-45.6c0-25.2,20.5-45.6,45.6-45.6
			c25.2,0,45.6,20.5,45.6,45.6C114,89,93.5,109.5,68.4,109.5z"/>
		<path id="XMLID_40_" class="st7" d="M103.1,29.7c-9.3-9.3-21.6-14.4-34.7-14.4c-13.1,0-25.5,5.1-34.7,14.4
			C24.4,39,19.2,51.3,19.2,64.5c0,13.1,5.1,25.5,14.4,34.7c9.3,9.3,21.6,14.4,34.7,14.4c13.1,0,25.5-5.1,34.7-14.4
			c9.3-9.3,14.4-21.6,14.4-34.7C117.5,51.3,112.4,39,103.1,29.7z M101.7,97.8c-8.9,8.9-20.7,13.8-33.3,13.8
			c-12.6,0-24.4-4.9-33.3-13.8C26.2,88.9,21.3,77,21.3,64.5c0-12.6,4.9-24.4,13.8-33.3c8.9-8.9,20.7-13.8,33.3-13.8
			c12.6,0,24.4,4.9,33.3,13.8c8.9,8.9,13.8,20.7,13.8,33.3C115.5,77,110.6,88.9,101.7,97.8z"/>
		<path id="XMLID_36_" class="st6" d="M103.1,29.1c-9.3-9.3-21.6-14.4-34.7-14.4c-13.1,0-25.5,5.1-34.7,14.4
			c-9.3,9.3-14.4,21.6-14.4,34.7c0,13.1,5.1,25.5,14.4,34.7c9.3,9.3,21.6,14.4,34.7,14.4c13.1,0,25.5-5.1,34.7-14.4
			c9.3-9.3,14.4-21.6,14.4-34.7C117.5,50.7,112.4,38.4,103.1,29.1z M101.7,97.2C92.8,106.1,81,111,68.4,111
			c-12.6,0-24.4-4.9-33.3-13.8c-8.9-8.9-13.8-20.7-13.8-33.3c0-12.6,4.9-24.4,13.8-33.3c8.9-8.9,20.7-13.8,33.3-13.8
			c12.6,0,24.4,4.9,33.3,13.8c8.9,8.9,13.8,20.7,13.8,33.3C115.5,76.4,110.6,88.3,101.7,97.2z"/>
		<path id="XMLID_34_" class="st7" d="M68.4,11.7c29.2,0,52.9,23.5,53.2,52.7c0-0.2,0-0.3,0-0.5c0-29.4-23.8-53.2-53.2-53.2
			c-29.4,0-53.2,23.8-53.2,53.2c0,0.2,0,0.3,0,0.5C15.5,35.2,39.2,11.7,68.4,11.7z"/>
		<g id="XMLID_32_">
			<path class="st8" d="M32.1,61.5c0,0.4-0.1,0.8-0.2,1.1c-0.1,0.4-0.3,0.7-0.6,0.9c-0.3,0.3-0.6,0.4-0.9,0.6
				c-0.4,0.1-0.8,0.2-1.2,0.2c-0.4,0-0.8-0.1-1.2-0.3c-0.4-0.2-0.7-0.4-0.9-0.7c-0.3-0.3-0.5-0.6-0.6-1c-0.1-0.4-0.2-0.8-0.2-1.2
				c0-0.3,0.1-0.6,0.1-0.8s0.2-0.5,0.3-0.6l-0.2-0.3l0-0.3l2,0l0,0.3c-0.6,0.2-1.1,0.4-1.4,0.7c-0.3,0.3-0.5,0.6-0.5,1
				c0,0.5,0.2,0.9,0.6,1.1c0.4,0.3,1,0.4,1.8,0.4c0.4,0,0.8,0,1.1-0.1c0.3-0.1,0.6-0.2,0.8-0.3c0.2-0.1,0.4-0.3,0.5-0.5
				s0.2-0.4,0.2-0.7c0-0.4-0.1-0.7-0.3-1c-0.2-0.3-0.5-0.6-0.9-0.8l0.2-0.3c0.2,0.1,0.4,0.3,0.6,0.4c0.2,0.2,0.3,0.3,0.5,0.5
				c0.1,0.2,0.2,0.4,0.3,0.7C32,60.9,32.1,61.2,32.1,61.5z"/>
			<path class="st8" d="M28.9,53.2l-0.1,0.3c-0.2,0-0.5,0.1-0.7,0.3c-0.2,0.1-0.4,0.3-0.5,0.5c0,0.1-0.1,0.2-0.1,0.3
				c0,0.1-0.1,0.3-0.1,0.3l-0.2,0.8l2.1,0.4l0.1-0.6c0-0.1,0-0.3,0-0.4c0-0.1-0.1-0.2-0.1-0.4c0-0.1-0.1-0.1-0.3-0.2
				c-0.1-0.1-0.3-0.2-0.4-0.2l0.1-0.3l2.3,0.4l-0.1,0.3c-0.1,0-0.3,0-0.4,0c-0.2,0-0.3,0.1-0.4,0.1c-0.1,0.1-0.2,0.2-0.2,0.3
				c-0.1,0.1-0.1,0.2-0.1,0.4l-0.1,0.6l1.6,0.3c0.2,0,0.3,0,0.4,0c0.1,0,0.2,0,0.2-0.1c0.1-0.1,0.1-0.1,0.1-0.2
				c0-0.1,0.1-0.3,0.1-0.5c0-0.1,0-0.2,0.1-0.3c0-0.1,0-0.2,0-0.3c0-0.1,0-0.2,0-0.3c0-0.1,0-0.2-0.1-0.2c-0.1-0.1-0.3-0.3-0.5-0.5
				c-0.2-0.2-0.4-0.3-0.5-0.4l0.1-0.3l1.7,0.4l-1,5.1l-0.3-0.1c0-0.1,0-0.2,0-0.3s0-0.2,0-0.3c0-0.1-0.1-0.2-0.1-0.2
				c-0.1,0-0.1-0.1-0.2-0.1l-3.9-0.7c-0.1,0-0.2,0-0.2,0c-0.1,0-0.1,0.1-0.2,0.2c0,0.1-0.1,0.1-0.1,0.3c0,0.1-0.1,0.2-0.1,0.3
				l-0.3-0.1l0.9-4.9L28.9,53.2z"/>
			<path class="st8" d="M35.3,47.3l-0.7,2c-0.7,0.2-1.2,0.3-1.6,0.4c-0.4,0.1-0.9,0.3-1.4,0.5l-0.1,0.2l1.6,0.6c0.1,0,0.2,0,0.2,0
				c0.1,0,0.1-0.1,0.2-0.1c0,0,0.1-0.1,0.1-0.2c0.1-0.1,0.1-0.2,0.1-0.2l0.3,0.1l-1,2.8l-0.3-0.1c0-0.1,0-0.2,0.1-0.3
				c0-0.1,0-0.2,0-0.3c0-0.1,0-0.2-0.1-0.2c0-0.1-0.1-0.1-0.2-0.1L28.9,51c-0.1,0-0.2,0-0.2,0c-0.1,0-0.1,0.1-0.2,0.1
				c-0.1,0.1-0.1,0.2-0.2,0.2c-0.1,0.1-0.1,0.2-0.1,0.2l-0.3-0.1l1.1-2.9c0.2-0.7,0.5-1.1,0.9-1.4c0.3-0.3,0.7-0.3,1.1-0.2
				c0.4,0.1,0.6,0.3,0.8,0.6c0.1,0.3,0.2,0.7,0.2,1.2c0.3-0.1,0.6-0.2,1-0.3c0.4-0.1,0.7-0.2,1.1-0.4c0.1,0,0.3-0.1,0.5-0.2
				c0.2-0.1,0.3-0.2,0.4-0.3c0-0.1,0.1-0.1,0.1-0.2c0-0.1,0.1-0.1,0.1-0.2L35.3,47.3z M30.4,48.4c-0.4-0.1-0.6-0.1-0.9,0
				s-0.4,0.4-0.5,0.8l-0.1,0.3l2.2,0.8l0.1-0.3c0.1-0.4,0.1-0.7,0-0.9C31.1,48.8,30.9,48.6,30.4,48.4z"/>
			<path class="st8" d="M34.1,41.2L34,41.4c-0.2,0-0.5,0-0.8,0c-0.3,0.1-0.5,0.1-0.6,0.3c0,0.1-0.1,0.2-0.2,0.3
				c-0.1,0.1-0.1,0.2-0.2,0.3l-0.4,0.8l1.9,1.1l0.3-0.5c0.1-0.1,0.1-0.3,0.2-0.4c0-0.1,0-0.2,0-0.4c0-0.1-0.1-0.2-0.2-0.3
				c-0.1-0.1-0.2-0.2-0.3-0.3l0.1-0.3l2.1,1.1l-0.1,0.3c-0.1,0-0.3-0.1-0.4-0.1c-0.2,0-0.3,0-0.4,0c-0.1,0-0.2,0.1-0.3,0.2
				c-0.1,0.1-0.2,0.2-0.3,0.3L34,44.3l1.6,0.9c0.1,0,0.2,0.1,0.2,0.1c0.1,0,0.2,0,0.2-0.1c0,0,0.1-0.1,0.2-0.2
				c0.1-0.1,0.1-0.2,0.2-0.2l0.3,0.1l-1.5,2.6L35,47.4c0-0.1,0.1-0.2,0.1-0.3c0-0.1,0.1-0.2,0.1-0.3c0-0.1,0-0.2,0-0.2
				c0-0.1-0.1-0.1-0.2-0.2l-3.4-1.9c-0.1,0-0.2-0.1-0.2-0.1s-0.2,0-0.2,0.1c-0.1,0-0.1,0.1-0.2,0.2c-0.1,0.1-0.1,0.2-0.2,0.2
				l-0.3-0.1l2.4-4.4L34.1,41.2z"/>
			<path class="st8" d="M39.7,40.5L37.9,43l-0.2-0.2c0-0.1,0.1-0.1,0.2-0.3c0.1-0.1,0.1-0.2,0.1-0.3c0-0.1,0-0.2,0-0.3
				c0-0.1-0.1-0.1-0.2-0.2l-3.2-2.3c-0.1-0.1-0.1-0.1-0.2-0.1c-0.1,0-0.2,0-0.3,0.1c-0.1,0-0.1,0.1-0.2,0.2
				c-0.1,0.1-0.2,0.2-0.2,0.2l-0.2-0.2l1.8-2.5l0.2,0.2c0,0.1-0.1,0.2-0.1,0.3c-0.1,0.1-0.1,0.2-0.1,0.3c0,0.1,0,0.2,0,0.3
				c0,0.1,0.1,0.1,0.2,0.2l3.2,2.3c0.1,0.1,0.2,0.1,0.2,0.1c0.1,0,0.2,0,0.3-0.1c0.1,0,0.1-0.1,0.2-0.2c0.1-0.1,0.2-0.2,0.2-0.2
				L39.7,40.5z"/>
			<path class="st8" d="M40.3,33.7L40.1,34c-0.2-0.1-0.5-0.1-0.8-0.2c-0.3,0-0.5,0-0.7,0.1c-0.1,0.1-0.1,0.1-0.2,0.2
				c-0.1,0.1-0.2,0.2-0.3,0.3L37.5,35l1.6,1.5l0.4-0.4c0.1-0.1,0.2-0.2,0.2-0.3s0.1-0.2,0.1-0.4c0-0.1,0-0.2-0.1-0.4
				c-0.1-0.2-0.1-0.3-0.2-0.4l0.2-0.2l1.7,1.6l-0.2,0.2c-0.1-0.1-0.2-0.1-0.4-0.2C40.6,36,40.5,36,40.5,36c-0.1,0-0.2,0-0.3,0.1
				c-0.1,0.1-0.2,0.1-0.3,0.3l-0.4,0.4l1.4,1.3c0.1,0.1,0.1,0.1,0.2,0.1c0.1,0,0.2,0,0.3,0c0.1,0,0.1-0.1,0.2-0.1
				c0.1-0.1,0.2-0.1,0.2-0.2l0.2,0.2l-2,2.2L39.6,40c0-0.1,0.1-0.1,0.2-0.2c0.1-0.1,0.1-0.2,0.1-0.2c0-0.1,0-0.2,0-0.2
				c0-0.1-0.1-0.1-0.1-0.2l-2.9-2.7c-0.1-0.1-0.1-0.1-0.2-0.1c-0.1,0-0.2,0-0.3,0c-0.1,0-0.2,0.1-0.3,0.2c-0.1,0.1-0.2,0.1-0.2,0.2
				l-0.2-0.2l3.4-3.7L40.3,33.7z"/>
			<path class="st8" d="M45.8,34.4l-2.4,2l-0.2-0.2c0-0.1,0.1-0.1,0.2-0.2c0.1-0.1,0.2-0.2,0.2-0.2c0-0.1,0.1-0.2,0.1-0.2
				c0-0.1-0.1-0.1-0.1-0.2l-2.6-3c-0.1-0.1-0.1-0.1-0.2-0.1c-0.1,0-0.2,0-0.3,0c-0.1,0-0.2,0.1-0.3,0.1c-0.1,0.1-0.2,0.1-0.3,0.2
				l-0.2-0.2l2.4-2l0.2,0.2c-0.1,0.1-0.1,0.1-0.2,0.2c-0.1,0.1-0.1,0.2-0.2,0.2C42,30.9,42,31,42,31.1c0,0.1,0.1,0.2,0.1,0.2l2.6,3
				c0.1,0.1,0.1,0.1,0.2,0.1c0.1,0,0.2,0,0.3,0c0.1,0,0.1-0.1,0.3-0.1c0.1-0.1,0.2-0.1,0.3-0.2L45.8,34.4z"/>
			<path class="st8" d="M48.6,32.7c-0.3,0.2-0.7,0.4-1.1,0.5c-0.4,0.1-0.7,0.1-1.1,0c-0.4-0.1-0.7-0.2-1-0.4
				c-0.3-0.2-0.6-0.5-0.8-0.9c-0.2-0.4-0.4-0.7-0.5-1.1c-0.1-0.4-0.1-0.8,0-1.2c0.1-0.4,0.2-0.7,0.5-1c0.2-0.3,0.5-0.6,0.9-0.8
				c0.3-0.2,0.5-0.3,0.8-0.4c0.3-0.1,0.5-0.1,0.7-0.1l0.1-0.3l0.3-0.2l1.1,1.7l-0.3,0.2c-0.5-0.4-1-0.7-1.3-0.8
				c-0.4-0.1-0.8,0-1.1,0.2c-0.4,0.3-0.6,0.7-0.6,1.2c0,0.5,0.3,1.1,0.7,1.7c0.2,0.4,0.5,0.7,0.7,0.9c0.2,0.2,0.5,0.4,0.7,0.4
				c0.2,0.1,0.5,0.1,0.7,0.1c0.2,0,0.4-0.1,0.7-0.3c0.3-0.2,0.5-0.5,0.7-0.8c0.1-0.3,0.2-0.7,0.2-1.2l0.4,0c0,0.3,0,0.5,0,0.7
				c0,0.2-0.1,0.5-0.2,0.7c-0.1,0.2-0.2,0.5-0.4,0.7C49.1,32.3,48.9,32.5,48.6,32.7z"/>
			<path class="st8" d="M56.3,28.6l-2.8,1.2l-0.1-0.3c0.1-0.1,0.3-0.2,0.4-0.3c0.2-0.1,0.2-0.2,0.2-0.3c0,0,0,0,0-0.1
				c0,0,0,0-0.1-0.1L53,28l-1.8,0.8c0,0.1,0,0.3,0,0.4c0,0.2,0,0.3,0,0.4c0,0.2,0,0.3,0.1,0.3c0,0.1,0,0.1,0,0.1
				c0,0.1,0.1,0.1,0.3,0.1c0.1,0,0.4,0,0.6-0.1l0.1,0.3l-2.1,0.9L50.2,31c0.1,0,0.2-0.1,0.3-0.2c0.1-0.1,0.2-0.1,0.2-0.2
				c0.1-0.1,0.1-0.2,0.2-0.3c0-0.1,0-0.2,0-0.4c0-0.8,0-1.6-0.1-2.4c0-0.8-0.1-1.7-0.1-2.6l0.7-0.3c1,0.9,1.8,1.7,2.3,2.2
				c0.6,0.6,1,1,1.4,1.4c0.1,0.1,0.1,0.1,0.2,0.1c0.1,0,0.2,0.1,0.3,0.1c0.1,0,0.2,0,0.3,0c0.1,0,0.2,0,0.3-0.1L56.3,28.6z
				 M52.7,27.7l-1.6-1.5l0.1,2.2L52.7,27.7z"/>
			<path class="st8" d="M58.7,28.2c-0.3,0.1-0.7,0.1-1,0c-0.3,0-0.6-0.1-0.9-0.3c-0.3-0.2-0.6-0.4-0.8-0.7c-0.2-0.3-0.4-0.7-0.5-1.1
				c-0.1-0.4-0.1-0.8-0.1-1.2c0-0.4,0.2-0.8,0.4-1.1c0.2-0.3,0.4-0.6,0.8-0.8c0.3-0.2,0.7-0.4,1.1-0.5c0.3-0.1,0.6-0.1,0.8-0.1
				s0.5,0,0.7,0.1l0.2-0.3l0.3-0.1l0.6,2L59.8,24c-0.4-0.6-0.7-0.9-1-1.1c-0.3-0.2-0.7-0.3-1.1-0.2c-0.5,0.1-0.8,0.4-0.9,0.9
				c-0.1,0.5-0.1,1.1,0.1,1.9c0.1,0.4,0.3,0.8,0.4,1.1c0.2,0.3,0.3,0.5,0.5,0.6c0.2,0.2,0.4,0.2,0.6,0.3s0.5,0,0.7,0
				c0.4-0.1,0.6-0.3,0.9-0.5c0.2-0.3,0.4-0.6,0.5-1.1L61,26c0,0.3-0.1,0.5-0.2,0.7c-0.1,0.2-0.2,0.4-0.4,0.6
				c-0.2,0.2-0.4,0.4-0.6,0.5c-0.2,0.1-0.5,0.3-0.8,0.3l0.1,0.2c0.3-0.1,0.5-0.1,0.7,0s0.3,0.2,0.4,0.4c0,0.1,0,0.3,0,0.4
				c0,0.1-0.1,0.2-0.3,0.3c-0.1,0.1-0.3,0.2-0.5,0.2c-0.2,0.1-0.4,0.2-0.7,0.2l-0.1-0.3c0.1,0,0.3-0.1,0.4-0.1
				c0.1,0,0.2-0.1,0.3-0.1c0.1,0,0.1-0.1,0.2-0.1c0-0.1,0-0.1,0-0.2c0-0.1-0.1-0.2-0.2-0.2c-0.1,0-0.2,0-0.4,0.1L58.7,28.2z"/>
			<path class="st8" d="M67.5,26.6l-3,0.3l0-0.3c0.1,0,0.3-0.1,0.5-0.1c0.2-0.1,0.3-0.1,0.3-0.2c0,0,0,0,0-0.1c0,0,0-0.1,0-0.1
				l-0.6-1.1l-1.9,0.2c0,0.1-0.1,0.2-0.1,0.4c0,0.1-0.1,0.3-0.1,0.4c0,0.2-0.1,0.3-0.1,0.3c0,0.1,0,0.1,0,0.1c0,0.1,0.1,0.1,0.2,0.2
				c0.1,0,0.3,0.1,0.6,0.1l0,0.3L61,27.3l0-0.3c0.1,0,0.2,0,0.3-0.1c0.1,0,0.2-0.1,0.2-0.1c0.1-0.1,0.2-0.2,0.2-0.3
				c0.1-0.1,0.1-0.2,0.2-0.3c0.2-0.8,0.4-1.5,0.7-2.3s0.5-1.6,0.7-2.5l0.8-0.1c0.6,1.2,1.2,2.2,1.5,2.9c0.4,0.7,0.7,1.3,0.9,1.7
				c0,0.1,0.1,0.1,0.2,0.2c0.1,0.1,0.1,0.1,0.2,0.2c0.1,0,0.2,0.1,0.3,0.1s0.2,0,0.3,0L67.5,26.6z M65.3,19.6c0,0.1-0.1,0.2-0.1,0.4
				c-0.1,0.1-0.1,0.3-0.2,0.4c-0.1,0.1-0.2,0.3-0.3,0.3c-0.1,0.1-0.2,0.1-0.4,0.2c-0.2,0-0.4,0-0.5,0c-0.1,0-0.3-0.1-0.4-0.1
				c-0.1,0-0.2-0.1-0.3-0.1c-0.1,0-0.2-0.1-0.3,0c-0.1,0-0.2,0.1-0.3,0.2c-0.1,0.1-0.1,0.3-0.2,0.5l-0.3-0.1c0-0.1,0.1-0.2,0.1-0.4
				c0.1-0.1,0.1-0.3,0.2-0.4c0.1-0.1,0.2-0.2,0.3-0.3c0.1-0.1,0.3-0.2,0.4-0.2c0.2,0,0.3,0,0.5,0c0.1,0,0.3,0.1,0.4,0.1
				c0.1,0,0.2,0.1,0.3,0.1c0.1,0,0.2,0,0.3,0c0.2,0,0.3-0.1,0.4-0.2c0.1-0.1,0.1-0.3,0.2-0.4L65.3,19.6z M64.4,24.7l-1-1.9l-0.6,2.1
				L64.4,24.7z"/>
			<path class="st8" d="M72.8,22c0.3,0.3,0.5,0.6,0.6,1c0.1,0.4,0.2,0.8,0.2,1.2c0,0.4-0.1,0.8-0.3,1.1c-0.2,0.4-0.4,0.7-0.6,0.9
				c-0.3,0.3-0.6,0.5-1,0.6C71.3,27,70.9,27,70.3,27c-0.4,0-0.8-0.1-1.1-0.3c-0.4-0.2-0.7-0.4-0.9-0.6c-0.3-0.3-0.5-0.6-0.6-0.9
				c-0.1-0.4-0.2-0.8-0.2-1.2c0-0.5,0.1-0.9,0.3-1.2c0.2-0.4,0.4-0.7,0.7-0.9c0.3-0.2,0.6-0.4,1-0.5c0.4-0.1,0.8-0.2,1.2-0.1
				c0.4,0,0.8,0.1,1.2,0.3C72.3,21.5,72.6,21.8,72.8,22z M71.6,25.9c0.1-0.2,0.2-0.5,0.3-0.8c0.1-0.3,0.1-0.6,0.1-1
				c0-0.3,0-0.6,0-0.9c0-0.3-0.1-0.6-0.2-0.8c-0.1-0.2-0.2-0.4-0.4-0.6c-0.2-0.2-0.4-0.2-0.7-0.3c-0.5,0-0.8,0.2-1.1,0.6
				c-0.3,0.4-0.4,1.1-0.5,1.9c0,0.3,0,0.7,0,1c0,0.3,0.1,0.6,0.2,0.8c0.1,0.2,0.2,0.4,0.4,0.6c0.2,0.1,0.4,0.2,0.7,0.2
				c0.3,0,0.5,0,0.7-0.2C71.3,26.3,71.4,26.2,71.6,25.9z"/>
			<path class="st8" d="M81.5,29.1l-2.9-0.8l0.1-0.3c0.1,0,0.3,0.1,0.5,0.1c0.2,0,0.3,0,0.3-0.1c0,0,0,0,0-0.1c0,0,0-0.1,0-0.1
				l-0.1-1.2L77.5,26c-0.1,0.1-0.2,0.2-0.2,0.3c-0.1,0.1-0.2,0.2-0.2,0.3c-0.1,0.1-0.1,0.2-0.2,0.3c0,0.1,0,0.1-0.1,0.1
				c0,0.1,0,0.2,0.1,0.3c0.1,0.1,0.3,0.2,0.6,0.3l-0.1,0.3l-2.2-0.6l0.1-0.3c0.1,0,0.2,0,0.3,0c0.1,0,0.2,0,0.3,0
				c0.1,0,0.2-0.1,0.3-0.1c0.1-0.1,0.2-0.2,0.3-0.3c0.5-0.6,1-1.2,1.5-1.9s1-1.3,1.7-2.1l0.8,0.2c0.1,1.4,0.3,2.4,0.3,3.2
				c0.1,0.8,0.1,1.4,0.2,2c0,0.1,0,0.2,0.1,0.2c0,0.1,0.1,0.2,0.2,0.2c0.1,0.1,0.1,0.1,0.2,0.2c0.1,0,0.2,0.1,0.2,0.1L81.5,29.1z
				 M79.3,26.1L79.1,24l-1.3,1.7L79.3,26.1z"/>
			<path class="st8" d="M83.9,30.5c-0.4-0.2-0.7-0.4-1-0.7c-0.3-0.3-0.5-0.6-0.6-0.9c-0.1-0.3-0.2-0.7-0.2-1.1
				c0-0.4,0.1-0.8,0.3-1.2c0.2-0.4,0.4-0.7,0.7-1c0.3-0.3,0.6-0.5,1-0.6c0.4-0.1,0.7-0.2,1.1-0.1c0.4,0,0.8,0.1,1.2,0.3
				c0.3,0.1,0.5,0.3,0.7,0.5c0.2,0.2,0.4,0.3,0.5,0.5l0.3-0.1l0.3,0.1l-0.8,1.9L87.2,28c0.1-0.6,0.1-1.2-0.1-1.5s-0.4-0.7-0.7-0.8
				c-0.4-0.2-0.9-0.2-1.3,0.1c-0.4,0.3-0.8,0.8-1.1,1.5c-0.2,0.4-0.3,0.8-0.4,1.1c-0.1,0.3-0.1,0.6,0,0.8c0.1,0.2,0.2,0.5,0.3,0.6
				c0.1,0.2,0.3,0.3,0.6,0.4c0.3,0.2,0.7,0.2,1,0.1c0.3-0.1,0.7-0.2,1.1-0.5l0.2,0.3c-0.2,0.2-0.4,0.3-0.6,0.4
				c-0.2,0.1-0.4,0.2-0.7,0.2c-0.2,0-0.5,0-0.8,0S84.2,30.7,83.9,30.5z"/>
			<path class="st8" d="M91.4,34.9l-2.5-1.7l0.2-0.3c0.1,0.1,0.3,0.1,0.5,0.2c0.2,0.1,0.3,0.1,0.3,0c0,0,0,0,0-0.1c0,0,0-0.1,0-0.1
				l0.3-1.2l-1.6-1.1c-0.1,0.1-0.2,0.1-0.3,0.2c-0.1,0.1-0.2,0.2-0.3,0.2c-0.1,0.1-0.2,0.2-0.3,0.2s-0.1,0.1-0.1,0.1
				c0,0.1,0,0.2,0,0.3c0.1,0.1,0.2,0.3,0.5,0.5l-0.2,0.3L86,31.2l0.2-0.3c0.1,0,0.2,0.1,0.3,0.1c0.1,0,0.2,0.1,0.3,0.1
				c0.1,0,0.2,0,0.4,0c0.1,0,0.2-0.1,0.3-0.2c0.7-0.4,1.3-0.9,2-1.3c0.7-0.4,1.4-0.9,2.2-1.5l0.7,0.4c-0.3,1.3-0.5,2.4-0.7,3.2
				c-0.2,0.8-0.3,1.4-0.4,1.9c0,0.1,0,0.2,0,0.3c0,0.1,0,0.2,0.1,0.3c0,0.1,0.1,0.2,0.2,0.2s0.1,0.1,0.2,0.2L91.4,34.9z M90.2,31.4
				l0.5-2.1l-1.8,1.2L90.2,31.4z"/>
			<path class="st8" d="M98.3,34.7c0.1,0.4,0.1,0.8,0,1.2s-0.3,0.8-0.7,1.2c-0.3,0.3-0.7,0.6-1.1,0.7c-0.4,0.1-0.8,0.2-1.1,0.1
				c-0.4-0.1-0.8-0.2-1.1-0.4c-0.4-0.2-0.7-0.5-1-0.8l-2-2l0.2-0.2c0.1,0.1,0.1,0.1,0.2,0.2c0.1,0.1,0.2,0.1,0.2,0.1
				c0.1,0,0.2,0,0.3,0c0.1,0,0.1-0.1,0.2-0.1l2.8-2.8c0.1-0.1,0.1-0.1,0.1-0.2c0-0.1,0-0.2,0-0.3c0-0.1-0.1-0.2-0.2-0.3
				c-0.1-0.1-0.1-0.2-0.2-0.2l0.2-0.2l2.1,2.1c0.2,0.2,0.4,0.5,0.6,0.8C98.1,34,98.3,34.3,98.3,34.7z M95,37
				c0.2-0.1,0.5-0.2,0.7-0.3c0.2-0.2,0.5-0.4,0.8-0.7c0.3-0.3,0.5-0.5,0.6-0.8c0.2-0.3,0.3-0.5,0.3-0.8c0-0.3,0-0.5-0.1-0.8
				c-0.1-0.2-0.2-0.5-0.4-0.7c-0.1-0.1-0.1-0.1-0.2-0.2c-0.1-0.1-0.2-0.1-0.2-0.2l-2.9,3c-0.1,0.1-0.1,0.1-0.1,0.2
				c0,0.1,0,0.1,0,0.2c0,0.1,0,0.2,0.1,0.2c0,0.1,0.1,0.2,0.2,0.3c0.2,0.2,0.4,0.3,0.7,0.4C94.5,37.1,94.7,37.1,95,37z"/>
			<path class="st8" d="M102.1,40.9l-0.2-0.2c0.1-0.2,0.2-0.4,0.3-0.7c0.1-0.3,0.1-0.5,0-0.7c0-0.1-0.1-0.2-0.2-0.3
				c-0.1-0.1-0.1-0.2-0.2-0.3l-0.5-0.7l-1.7,1.3l0.3,0.5c0.1,0.1,0.2,0.2,0.3,0.3c0.1,0.1,0.2,0.1,0.4,0.1c0.1,0,0.2,0,0.4,0
				c0.2,0,0.3-0.1,0.4-0.1l0.2,0.2l-1.9,1.4l-0.2-0.2c0.1-0.1,0.2-0.2,0.3-0.3c0.1-0.1,0.2-0.3,0.2-0.4c0-0.1,0-0.2,0-0.4
				c0-0.1-0.1-0.2-0.2-0.4l-0.3-0.5l-1.3,1c-0.1,0.1-0.2,0.2-0.3,0.3c-0.1,0.1-0.1,0.2-0.1,0.2c0,0.1,0,0.2,0.1,0.3
				c0.1,0.1,0.1,0.2,0.3,0.4c0.1,0.1,0.1,0.2,0.2,0.3c0.1,0.1,0.2,0.2,0.2,0.3c0.1,0.1,0.2,0.2,0.2,0.2c0.1,0.1,0.2,0.1,0.2,0.1
				c0.2,0,0.4,0,0.7,0c0.3,0,0.5-0.1,0.7-0.1l0.2,0.2L99,43.6l-3.1-4.2l0.2-0.2c0,0.1,0.1,0.1,0.2,0.2c0.1,0.1,0.2,0.2,0.2,0.2
				c0.1,0.1,0.2,0.1,0.2,0.1s0.1,0,0.2-0.1l3.2-2.3c0.1-0.1,0.1-0.1,0.2-0.2c0-0.1,0-0.1,0-0.3c0-0.1,0-0.2-0.1-0.3
				c-0.1-0.1-0.1-0.2-0.1-0.3l0.2-0.2l2.9,4L102.1,40.9z M103.2,39.2l-0.2,0l-0.2-1.6l-1.4-0.6l0-0.2c0.4,0,0.8,0,1,0.1
				c0.2,0,0.4,0,0.5,0c0.1,0,0.2,0,0.3,0.1c0.1,0,0.2,0.1,0.2,0.2c0.1,0.1,0.1,0.2,0.1,0.3s0,0.2,0,0.3c0,0.2-0.1,0.3-0.1,0.5
				C103.4,38.4,103.3,38.8,103.2,39.2z"/>
			<path class="st8" d="M102.6,50.7l-1.3-2.7l0.3-0.1c0,0.1,0.1,0.2,0.2,0.3c0.1,0.1,0.1,0.2,0.2,0.2c0.1,0.1,0.2,0.1,0.2,0.1
				c0.1,0,0.2,0,0.3-0.1l3.8-1.8l-5.3,0.4l-0.2-0.4c0.1-0.1,0.2-0.2,0.4-0.4c0.2-0.2,0.3-0.4,0.5-0.5l2.8-2.9l-3.1,1.5
				c-0.3,0.1-0.5,0.3-0.6,0.4s-0.2,0.2-0.2,0.4c0,0.1,0,0.2,0,0.4c0,0.2,0.1,0.3,0.1,0.4l-0.3,0.1l-1-2.2l0.3-0.1
				c0,0.1,0.1,0.1,0.2,0.3s0.2,0.2,0.3,0.3c0.1,0.1,0.3,0.1,0.4,0c0.2,0,0.4-0.1,0.7-0.3l2.5-1.2c0.2-0.1,0.3-0.2,0.4-0.2
				c0.1-0.1,0.1-0.2,0.2-0.3c0-0.1,0-0.2,0-0.4c0-0.1-0.1-0.2-0.1-0.3l0.3-0.1l1.1,2.3l-2.7,2.8l3.2-0.3c0.1,0,0.3,0,0.4-0.1
				c0.2,0,0.3-0.1,0.3-0.1l1.1,2.2l-0.3,0.1c0-0.1-0.1-0.1-0.1-0.2c-0.1-0.1-0.1-0.1-0.2-0.2c-0.1-0.1-0.2-0.1-0.2-0.1
				c-0.1,0-0.2,0-0.2,0.1l-3.6,1.7c-0.1,0-0.1,0.1-0.2,0.1c0,0.1-0.1,0.1-0.1,0.3c0,0.1,0,0.1,0.1,0.3c0,0.1,0.1,0.2,0.1,0.3
				L102.6,50.7z"/>
			<path class="st8" d="M103.4,54.1l-0.9-3l0.3-0.1c0,0.1,0.1,0.2,0.1,0.3c0,0.1,0.1,0.2,0.1,0.3c0.1,0.1,0.1,0.1,0.2,0.1
				c0.1,0,0.2,0,0.3,0l3.8-1.1c0.1,0,0.2-0.1,0.2-0.1c0.1-0.1,0.1-0.1,0.1-0.2c0-0.1,0-0.2,0-0.3c0-0.1,0-0.2,0-0.3l0.3-0.1l0.9,3
				l-0.3,0.1c0-0.1-0.1-0.2-0.1-0.3c0-0.1-0.1-0.2-0.1-0.3c-0.1-0.1-0.1-0.1-0.2-0.1c-0.1,0-0.2,0-0.3,0L104,53
				c-0.1,0-0.2,0.1-0.2,0.1c-0.1,0.1-0.1,0.1-0.1,0.2c0,0.1,0,0.2,0,0.3s0,0.2,0.1,0.3L103.4,54.1z"/>
			<path class="st8" d="M103.9,57.3c-0.1-0.4-0.1-0.8,0-1.2s0.2-0.7,0.4-1c0.2-0.3,0.5-0.6,0.8-0.8c0.3-0.2,0.7-0.3,1.1-0.4
				c0.4-0.1,0.8-0.1,1.2,0s0.7,0.2,1.1,0.5c0.3,0.2,0.6,0.5,0.8,0.8c0.2,0.3,0.3,0.7,0.4,1.2c0.1,0.3,0.1,0.6,0,0.9
				c0,0.3-0.1,0.5-0.1,0.7l0.3,0.2l0.1,0.3l-2,0.4l-0.1-0.3c0.6-0.3,1-0.6,1.2-0.9c0.2-0.3,0.3-0.7,0.3-1.1c-0.1-0.5-0.4-0.8-0.8-1
				c-0.5-0.2-1.1-0.2-1.9-0.1c-0.4,0.1-0.8,0.2-1.1,0.3c-0.3,0.1-0.5,0.3-0.7,0.5c-0.2,0.2-0.3,0.4-0.3,0.6c-0.1,0.2-0.1,0.5,0,0.7
				c0.1,0.4,0.2,0.7,0.5,0.9c0.2,0.2,0.6,0.5,1,0.6l-0.1,0.4c-0.2-0.1-0.5-0.2-0.7-0.3c-0.2-0.1-0.4-0.3-0.5-0.4
				c-0.2-0.2-0.3-0.4-0.4-0.6C104,57.9,104,57.7,103.9,57.3z"/>
			<path class="st8" d="M104.5,65.9l0-3l0.3,0c0,0.1,0,0.3,0.1,0.5c0,0.2,0.1,0.3,0.2,0.3c0,0,0,0,0.1,0c0,0,0.1,0,0.1,0l1.2-0.5
				l0-1.9c-0.1,0-0.2-0.1-0.4-0.1c-0.1-0.1-0.3-0.1-0.4-0.1c-0.1,0-0.3-0.1-0.3-0.1c-0.1,0-0.1,0-0.1,0c-0.1,0-0.2,0.1-0.2,0.2
				c-0.1,0.1-0.1,0.3-0.1,0.6l-0.3,0l0-2.3l0.3,0c0,0.1,0,0.2,0,0.3c0,0.1,0.1,0.2,0.1,0.3c0.1,0.1,0.1,0.2,0.2,0.3
				c0.1,0.1,0.2,0.1,0.3,0.2c0.7,0.3,1.5,0.6,2.2,0.9c0.7,0.3,1.6,0.6,2.5,1l0,0.8c-1.3,0.5-2.3,0.9-3,1.2c-0.7,0.3-1.3,0.6-1.8,0.8
				c-0.1,0-0.1,0.1-0.2,0.1c-0.1,0.1-0.1,0.1-0.2,0.2c0,0.1-0.1,0.2-0.1,0.3c0,0.1,0,0.2,0,0.3L104.5,65.9z M106.8,63l2-0.8l-2-0.8
				L106.8,63z"/>
		</g>
	</g>
	<g>
		<path class="st9" d="M100.4,80.6c0-0.7,0-1.4,0-2.1c0-2.2,0-4.3-1.2-5.4c-1-0.9-3.5-0.9-4.5-0.9c-0.4,0-0.8,0-1.2,0
			c-1.8,0.1-3.4,0.6-4.4,1.3L89,73.6l0,0.1c0.1,0.6,0.2,1.2,0.4,1.7c0.1,0.3,0.2,0.6,0.2,0.9l0.1,0.3l0.2-0.1c1-0.5,2.6-0.9,4.1-0.9
			c0.6,0,1.2,0.1,1.6,0.3c0.8,0.3,0.8,2.2,0.8,3.2c-0.6-0.1-1.2-0.2-1.8-0.2c-2.3,0-5.1,0.8-6,2.2c-1,1.7-1.1,3.8-0.3,5.6
			c0.7,1.5,1.9,2.6,3.4,3c0.4,0.1,0.8,0.1,1.3,0.1c1.2,0,2.5-0.4,3.6-0.8c0.5-0.2,1.1-0.3,1.6-0.5c0,0,0.1,0,0.1,0.1
			c0.4,0.3,0.9,0.5,1.6,0.5c0.1,0,0.1,0,0.2,0l0.2,0l0-0.2c0-1,0-2,0-3C100.4,84.3,100.5,82.5,100.4,80.6z M96.3,81.7
			c0,0,0.1,0,0.1,0c0.3,1.2,0.2,2.6,0.2,3.8l0,0.1c-0.6,0.5-1.7,0.9-2.7,0.9c-0.6,0-2-0.2-2.2-1.5c-0.1-0.7,0.1-1.3,0.5-1.8
			c0.9-1.1,2.8-1.4,3.8-1.4C96.1,81.6,96.2,81.6,96.3,81.7z"/>
		<path class="st9" d="M60.7,82c0.8-3.2,0.4-5.9-0.9-7.6c-1.2-1.5-3.1-2.2-5.6-1.9c-1.8,0.2-4.1,1.3-5.1,3c-1,1.7-1.1,4.7-1.1,6
			c0,2.6,0.5,4.6,1.5,5.8c1.1,1.4,3.1,2.2,5.6,2.2c2.3,0,4.5-0.7,5.9-1.8l0.1-0.1L61,87.5c-0.2-0.4-0.3-0.8-0.5-1.2
			c-0.1-0.3-0.3-0.6-0.4-0.9l-0.1-0.2l-0.2,0.1c-1.2,0.6-2.4,0.9-3.5,0.9c-1.4,0-3.7-0.5-3.8-4h8.2L60.7,82z M52.8,76.8
			c0.4-0.9,1.3-1.2,2-1.2c0.9,0,1.6,0.4,1.9,1.1c0.3,0.7,0.3,1.4,0.2,2.3c-1.2,0-2.5,0-3.7,0l-0.7,0C52.5,78,52.6,77.5,52.8,76.8z"
			/>
		<path class="st9" d="M84.9,78c0-0.2,0-0.4,0-0.7c0-1,0-2-0.2-2.7c-0.4-1-1.8-2.2-2.7-2.3c-0.3,0-0.6,0-0.8,0
			c-1.8,0-2.8,0.7-3.8,1.3c-0.3,0.2-0.7,0.4-1,0.6c-0.2-0.2-0.4-0.4-0.5-0.5c-0.6-0.6-1.1-1.2-2-1.4c-0.3-0.1-0.7-0.1-1.1-0.1
			c-1.2,0-2.3,0.5-3.2,0.9c-0.1,0.1-0.3,0.1-0.4,0.2c-0.4,0.2-0.7,0.4-1.1,0.6c-0.5,0.3-1.1,0.6-1.3,0.6h0c-0.2,0-0.5-0.1-0.8-0.2
			C65.4,74.1,65,74,64.7,74c-0.1,0-0.1,0-0.2,0l-0.2,0v15.2h4v-9.1c0-0.3,0-0.6,0-1c0-0.6-0.1-1.3,0-1.7c0.2-0.8,1.5-1.5,2.7-1.5
			c0.2,0,0.4,0,0.6,0.1c1.2,0.3,1.1,3.2,1,5.4c0,0.5,0,1,0,1.5c0,1.8,0,4.3,0.1,6.1l0,0.2h3.9V89v-3.6c0-0.8,0-1.7,0-2.4
			c0-0.5,0-1,0-1.5c0-1.5-0.1-3,0.2-3.9c0.2-1,1.4-1.8,2.6-1.8c0.2,0,0.3,0,0.5,0c0.8,0.2,0.9,0.9,0.8,2.1c0,0.3,0,0.5,0,0.8
			c0.1,2.1,0.1,5,0,7.5c0,1,0,2,0,2.8v0.2l4.4,0l0-0.2c0-1.8,0-4-0.1-6C84.9,81.3,84.9,79.5,84.9,78z"/>
		<path class="st9" d="M35.6,66.7L35.6,66.7c-0.2,0-0.3,0.2-0.3,0.3c0,0,0,0,0,0l-0.1,0.1v0.1c0,2.7,0,5.5,0,8.2
			c0,4.4,0,8.9,0.1,13.2l0,0.2l0.4,0c0.4,0,0.8,0,1.2,0c0.5,0,0.9,0,1.4,0c0.5,0,0.9,0,1.2,0l0.2,0v-9.4h6.3l0.1-4.3h-6.3v-4.5h0.2
			l0,0h7.2h0.2l1.1-3.8H35.6z"/>
		<path class="st9" d="M64.4,58.2c-0.3-1.3-0.8-2.7-0.6-4.1c0.2-1.6,1.9-2.2,3.1-2.7c5.1-2.2,12-1.9,18.3-2.4
			c-0.6-1.9-1.3-3.7-2.2-5.5c-5.4,0.2-10.8,0.5-16,1.1c-1.5,0.2-3.2,0.3-4.3,0.8c-1.9,0.9-2.1,3.5-1.5,6.2c0.3,1.1,1.2,3.2,0.5,4.3
			c-0.5,0.7-2.1,0.7-3.2,0.5c-1.6-0.3-3.3-0.9-5.2-1.3c-5.5-1.1-12.1-1.5-16.8,0.8c9-1.3,16.5,1.3,21.9,4.7c1.6,1,2.9,2.5,5.5,2.4
			C65.8,62.5,64.8,59.9,64.4,58.2z"/>
		<path class="st9" d="M81.9,50.9c-3.9,0.2-8.5,0.2-11.8,1.1c-1.5,0.4-3.6,1.3-4.3,2.2c-1,1.4-0.2,3.9,0.5,5.2
			c1.3-3.6,6.5-3.9,10.9-4.6c3.5-0.6,6.7-0.9,9.8-1.3c-0.5-1.2-0.8-1.9-1.3-2.7C84.8,50.8,83.1,50.9,81.9,50.9z"/>
		<path class="st9" d="M71.8,69.5c0.8-2.9,4.1-3.3,7.1-4c-0.8-2.5-2.2-4.8-3.2-7.3c-0.1-0.3-0.5-1.4-1-1.4c-0.2,0-0.5,0-0.6,0
			c-2.1,0.3-5.6,1.6-6.5,3.2c-0.4,1,0.5,2.4,1,3.5C69.6,65.8,70.8,67.6,71.8,69.5z"/>
	</g>
</g>
</svg>
