<?xml version="1.0" encoding="utf-8"?>
<!-- Generator: Adobe Illustrator 24.0.3, SVG Export Plug-In . SVG Version: 6.00 Build 0)  -->
<svg version="1.1" id="Layer_1" xmlns="https://www.w3.org/2000/svg" xmlns:xlink="https://www.w3.org/1999/xlink" x="0px" y="0px"
	 viewBox="0 0 1003 152" style="enable-background:new 0 0 1003 152;" xml:space="preserve">
<style type="text/css">
	.st0{fill:#1C6397;}
	.st1{opacity:0.7;fill:#1C6397;}
	.st2{opacity:0.4;fill:#1C6397;}
</style>
<polygon class="st0" points="23,126.2 102.7,26.8 154.4,26.8 77.2,126.2 "/>
<polygon class="st1" points="91.2,126.2 170.9,26.8 222.6,26.8 145.4,126.2 "/>
<polygon class="st2" points="159.4,126.2 239,26.8 290.8,26.8 213.6,126.2 "/>
<g>
	<path d="M323.3,58.9c17.4,0,30.7,12.9,30.7,29.9s-13.4,29.9-31,29.9h-23.9V58.9H323.3z M305.9,112.2h17.4c13.3,0,23.7-10,23.7-23.3
		c0-13.4-10.6-23.4-24-23.4h-17.2V112.2z"/>
	<path d="M383.3,58.9c14.8,0,23.3,7.3,23.3,20.1c0,13.2-8.5,20.8-23.3,20.8h-15.6v18.9h-6.8V58.9H383.3z M367.7,93.3H383
		c10.8,0,17-4.8,17-14.1c0-9.1-6.2-13.7-17-13.7h-15.4V93.3z"/>
	<path d="M466.4,118.7l-0.1-49.3l-21.8,43h-4.1l-21.7-43v49.3h-6.5V58.9h8.5l21.9,43l21.8-43h8.4v59.8H466.4z"/>
</g>
<g>
	<path class="st0" d="M510.4,70.9v11.9H539v12h-28.5v12H543v12h-47.7V58.9H542v12H510.4z"/>
	<path class="st0" d="M575.9,58.9c18.8,0,31.8,12.1,31.8,29.9c0,17.7-13.1,29.9-32.4,29.9h-25.1V58.9H575.9z M565.4,106.6h10.8
		c9.3,0,16-7.2,16-17.7c0-10.6-7-17.8-16.7-17.8h-10.2V106.6z"/>
	<path class="st0" d="M666.9,93.6c0,15.8-10.5,25.8-27.2,25.8c-16.8,0-27.6-10-27.6-25.8V58.9h15.2v34.7c0,8.1,5.2,13.1,12.5,13.1
		c7.2,0,12-5,12-13.1V58.9h15.1V93.6z"/>
	<path class="st0" d="M727.4,68.5l-8.8,10.4c-3.9-4.8-9.7-7.8-15-7.8c-9.5,0-16.7,7.5-16.7,17.3c0,10,7.2,17.6,16.7,17.6
		c5,0,10.8-2.7,15-7l8.9,9.4c-6.4,6.6-15.9,10.9-24.7,10.9c-18,0-31.4-13.2-31.4-30.7c0-17.2,13.7-30.2,31.9-30.2
		C712.2,58.4,721.4,62.3,727.4,68.5z"/>
	<path class="st0" d="M744.8,107.7l-4.4,11h-15.6l25.8-59.8h15.6l25.2,59.8h-16.2l-4.3-11H744.8z M758,74l-8.7,22.1h17.2L758,74z"/>
	<path class="st0" d="M845,108.5c-5.4,5.6-13,9.5-20.5,10.6l-2,4c3.5,0.9,5.8,3.4,5.8,6.9c0,5.4-4.4,8.8-10.7,8.8
		c-2.6,0-5.7-1-8.1-2.6l2.7-6.1c1.1,1,2.7,1.7,4.2,1.7c2.2,0,3.6-1.5,3.6-3.2c0-1.7-1.4-3.1-3.9-3.1c-0.9,0-2,0.2-3.1,0.3l3.2-6.7
		c-15.9-1.8-27.3-14.3-27.3-30.5c0-17.2,13.7-30.2,31.9-30.2c8.9,0,18.1,3.9,24.1,10.1l-8.8,10.4c-3.9-4.8-9.7-7.8-15-7.8
		c-9.5,0-16.7,7.5-16.7,17.3c0,10,7.2,17.6,16.7,17.6c5,0,10.8-2.7,15-7L845,108.5z"/>
	<path class="st0" d="M862.3,107.7l-4.4,11h-15.6l25.8-59.8h15.6l25.2,59.8h-16.2l-4.3-11H862.3z M869.5,51.9h-9.1
		c0-9,3-13.3,9-13.3c5,0,7.4,4,9.8,4c1.8,0,2.6-1.2,2.6-3.6h9c0,9-2.9,13.2-8.9,13.2c-5.2,0-7.4-4-9.9-4
		C870.3,48.3,869.5,49.5,869.5,51.9z M875.5,74l-8.7,22.1H884L875.5,74z"/>
	<path class="st0" d="M971,88.7c0,17.4-13.8,30.7-32.4,30.7c-18.4,0-32.3-13.1-32.3-30.7c0-17.4,13.8-30.3,32.3-30.3
		C957.2,58.4,971,71.4,971,88.7z M921.9,88.8c0,10.1,7.8,17.8,16.9,17.8c9.2,0,16.6-7.8,16.6-17.8s-7.3-17.7-16.6-17.7
		C929.6,71.1,921.9,78.7,921.9,88.8z"/>
</g>
</svg>
